<svg xmlns="http://www.w3.org/2000/svg" width="240" height="73" viewBox="-186.5 432.5 240 73"><path d="M2.1 439.2c2.9 0 5.9 0.3 8.5 1.1 7.3 2.3 11.7 8.3 8.9 18.4 -2.4 8.6-9.6 15.6-18.7 18.5 -2.8 0.9-6.2 1.3-9.3 1.3h-7.9l9.8-35.7 -13.5 5.1 -8 29c-0.7 2.4-2.3 5.5-4.9 8.3h22.4c5.5 0 11.4-0.7 16.2-2.2 13-4 22.5-13.2 25.5-24.2 3.5-12.7-2.6-21.7-15.4-24.9 -3.5-0.9-7.5-1.2-11.9-1.2h-33.9c1 3.2 5.5 6.8 12.2 6.8L2.1 439.2 2.1 439.2z" fill="#008C53"/><path d="M-186.5 477.3c0-15.6 12.3-34.7 39.4-41.9 7.4-2 16.4-2.8 26.1-2.8h70v2.6h-70c-8.3 0-16.1 0.5-22.6 2 -29 6.4-41 25.5-42.5 40.2C-186.1 477.8-186.5 477.8-186.5 477.3z"/><path d="M53.5 459.5c0 15.6-12.3 34.7-39.4 41.9 -7.4 2-16.4 2.8-26.1 2.8h-21v-2.6h21c8.3 0 16.1-0.5 22.6-2 29-6.4 41-25.5 42.6-40.2C53.1 459 53.5 459 53.5 459.5z"/><path d="M-153 485h-7l21.4-31.9h5.5l3.8 31.9h-7.2l-0.6-5.4h-12.6L-153 485zM-138.7 463l-7.9 12.2h9.2L-138.7 463z"/><path d="M-109.8 461.6c2.9-0.1 5.5 0.3 7.8 1.3l-2.3 4.1c-1.7-0.8-3.7-1.1-5.4-0.9 -3.1 0.2-7.3 2.6-8.5 7.5 -1.2 4.8 1.7 7.2 4.7 7.5 2.2 0.2 4.1-0.2 6.2-1l0.5 3.7c-0.8 0.5-2.1 0.9-3.3 1.1 -1.7 0.4-3.5 0.6-5.4 0.6 -7.5-0.1-11.8-4.8-10-11.9C-123.9 466.4-116.6 461.8-109.8 461.6z"/><path d="M-87.8 461.6c2.9-0.1 5.5 0.3 7.8 1.3l-2.3 4.1c-1.7-0.8-3.7-1.1-5.4-0.9 -3.1 0.2-7.3 2.6-8.5 7.5s1.7 7.2 4.7 7.5c2.2 0.2 4.1-0.2 6.2-1l0.5 3.7c-0.8 0.5-2.1 0.9-3.3 1.1 -1.7 0.4-3.5 0.6-5.4 0.6 -7.5-0.1-11.8-4.8-10-11.9C-101.9 466.4-94.6 461.8-87.8 461.6z"/><path d="M-68.8 481c3.3 0 6.9-1.3 7.9-1.6l-1.7 4.3c-2 0.8-5.6 1.8-9.9 1.7 -7.1-0.1-10.7-4.5-8.9-11.8 1.9-7.4 8.6-12 14.7-12 6.7 0 10.5 5 6.9 13.8h-14.9C-75.2 477.6-74.3 481-68.8 481zM-69.7 449.9l7 6.7 -2.3 2.5 -8.3-5.1L-69.7 449.9zM-68 466.2c-3 0-4.5 2.6-5.5 5.3h7.7C-64.5 469.5-64.5 466.2-68 466.2z"/><path d="M-49.3 481.3c1.3 0 3.2-0.5 3.7-1.8 0.6-1.8-2.1-2.7-4-3.8 -1.8-1-5.4-3.1-4.9-7 0.6-4.3 4.5-7.1 10.7-7.1 4 0 6.5 0.9 7.9 1.6l-2.6 3.8c-1.1-0.5-3.1-1.2-5.6-1.2 -1.3 0-3.3 0.3-3.7 1.6 -0.4 1.3 1.7 2.5 3.7 3.6 2.4 1.2 5.9 3.3 5.4 6.8 -0.7 4.7-6.2 7.7-11.7 7.7 -4.7 0-7.7-1.4-8.8-2l2.7-4C-55.3 480.1-52.9 481.3-49.3 481.3z"/></svg>