<svg width="202" height="72" viewBox="0 0 202 72" fill="none" xmlns="http://www.w3.org/2000/svg">
<rect width="202" height="72" fill="white"/>
<path d="M64.2483 8H8V64H64.2483V8Z" fill="#13416F"/>
<path d="M40.6232 20.1099H31.6702V28.3778L36.1489 32.8121L40.6135 28.3778L40.6232 20.1099Z" fill="#FDB714"/>
<path d="M31.6742 51.8896H40.6531V37.4184L36.1515 32.9492L31.6722 37.4042L31.6742 51.8896Z" fill="#FDB714"/>
<path d="M25.7281 22.6216L19.3975 28.9243L25.2407 34.7518L31.5855 34.7533L31.5819 28.4537L25.7281 22.6216Z" fill="#FDB714"/>
<path d="M16.9019 34.8589V43.7725L25.1724 43.7795L29.6603 39.3139L25.1836 34.8619L16.9019 34.8589Z" fill="#FDB714"/>
<path d="M55.3459 43.7795V34.866L47.0546 34.8589L42.5875 39.325L47.0642 43.7765L55.3459 43.7795Z" fill="#FDB714"/>
<path d="M52.8785 28.9214L46.5475 22.6187L40.6946 28.4361L40.6931 34.7534L47.0202 34.7499L52.8785 28.9214Z" fill="#FDB714"/>
<path d="M110.415 26.753C110.415 29.0834 110.668 31.4521 112.385 31.4521C113.516 31.4521 114.413 30.4034 114.413 26.6168C114.413 23.4904 114.003 21.7037 112.502 21.7037C111.273 21.7037 110.415 22.6556 110.415 26.7338V26.753ZM116.91 35.8406H113.476L110.727 32.928C107.86 32.0741 106.962 29.3356 106.962 26.6168C106.962 22.4417 109.205 19.9756 112.56 19.9756C116.558 19.9756 117.866 23.3153 117.866 26.4619C117.866 29.2387 116.929 32.1124 113.769 32.928L116.91 35.8406Z" fill="#13416F"/>
<path d="M122.768 20.1504V27.1215C122.768 28.8884 122.807 29.6264 123.256 30.3063C123.627 30.889 124.31 31.1997 124.953 31.1997C125.499 31.1997 126.494 30.947 126.904 29.8791C127.099 29.3934 127.196 28.8693 127.196 27.1023V20.1504H129.322V27.2965C129.322 28.2675 129.654 33.1609 124.368 33.1609C123.666 33.1609 121.306 33.1028 120.135 30.7724C119.726 29.9568 119.628 29.1023 119.628 27.4327V20.1504H122.768Z" fill="#13416F"/>
<path d="M138.837 20.1504V22.0334H134.682V25.413H138.525V27.2188H134.682V31.064H138.895V32.9666H131.542V20.1504H138.837Z" fill="#13416F"/>
<path d="M77.0067 31.2089C77.4941 31.2089 78.1573 31.2089 78.6057 30.9174C79.1128 30.5875 79.3667 29.9464 79.3667 29.0536C79.3667 28.2959 79.1326 27.7138 78.6452 27.4218C78.2156 27.1499 77.6309 27.1307 76.9282 27.1307H76.2847V31.2089H77.0067ZM76.9089 25.5191C77.3381 25.5191 77.9232 25.5191 78.3326 25.2472C78.8008 24.9753 79.0546 24.3932 79.0546 23.5383C79.0546 22.8976 78.8793 22.4119 78.4694 22.1405C78.0985 21.9075 77.6111 21.8878 77.0067 21.8878H76.2847V25.5191H76.9089ZM77.5524 20.1597C78.5864 20.1597 79.698 20.2368 80.5953 20.6838C81.4536 21.111 82.0388 21.8878 82.0388 23.0722C82.0388 24.7035 80.9074 25.7713 79.3859 26.1986C79.8348 26.2762 80.576 26.4321 81.2585 26.8785C81.9805 27.3638 82.5069 28.1406 82.5069 29.3058C82.5069 30.471 81.902 31.8692 80.303 32.4902C79.5617 32.8402 78.6837 32.9759 76.7139 32.9759H73.2225V20.1597H77.5524Z" fill="#13416F"/>
<path d="M87.0117 28.2252H89.5581L88.3046 24.1883L87.0117 28.2252ZM89.5424 20.1333L94.1645 33.002H90.9331L89.9148 29.8625H86.3505L85.3316 33.002H83.1581L87.682 20.1333H89.5424Z" fill="#13416F"/>
<path d="M97.4439 20.1333L103.065 28.0103V20.1333H105.199V33.002H103.221L97.6202 25.125V33.002H95.4655V20.1333H97.4439Z" fill="#13416F"/>
<path d="M160.507 39.1001V40.9831H156.353V44.3622H160.196V46.168H156.353V50.0132H160.566V51.9158H153.212V39.1001H160.507Z" fill="#13416F"/>
<path d="M164.751 39.1118L170.349 46.957V39.1118H172.476V51.9281H170.506L164.927 44.0829V51.9281H162.781V39.1118H164.751Z" fill="#13416F"/>
<path d="M176.661 39.1118L182.259 46.957V39.1118H184.385V51.9281H182.415L176.837 44.0829V51.9281H174.691V39.1118H176.661Z" fill="#13416F"/>
<path d="M193.895 39.1118V40.9948H189.741V44.3739H193.583V46.1802H189.741V50.0249H193.954V51.9281H186.6V39.1118H193.895Z" fill="#13416F"/>
<path d="M76.3541 39.0034V49.9553H80.3916V51.8197H73.2139V39.0034H76.3541Z" fill="#13416F"/>
<path d="M85.3841 47.0728H87.9199L86.6715 43.0525L85.3841 47.0728ZM88.0562 39.0137L92.6596 51.8299H89.4414L88.4271 48.7035H84.877L83.8627 51.8299H81.6978L86.2034 39.0137H88.0562Z" fill="#13416F"/>
<path d="M96.4504 39.0137V45.9852C96.4504 47.7522 96.4894 48.4902 96.9383 49.1696C97.3087 49.7522 97.9916 50.063 98.6351 50.063C99.1812 50.063 100.176 49.8102 100.586 48.7424C100.781 48.2571 100.879 47.733 100.879 45.9661V39.0137H103.004V46.1598C103.004 47.1308 103.336 52.0241 98.0499 52.0241C97.3477 52.0241 94.9877 51.9661 93.8173 49.6357C93.408 48.8206 93.3102 47.9656 93.3102 46.296V39.0137H96.4504Z" fill="#13416F"/>
<path d="M108.286 40.7418V44.8392H108.793C109.534 44.8392 110.841 44.8392 110.841 42.645C110.841 40.7418 109.769 40.7418 108.832 40.7418H108.286ZM108.852 39.0137C110.627 39.0137 111.407 39.0722 112.265 39.4798C113.143 39.907 113.942 40.8195 113.942 42.1401C113.942 43.5963 113.182 44.9754 111.329 45.558L115.093 51.8299H111.68L108.832 46.354H108.286V51.8299H105.224V39.0137H108.852Z" fill="#13416F"/>
<path d="M123.69 39.0137V40.8972H119.535V44.2763H123.377V46.0821H119.535V49.9273H123.748V51.8299H116.395V39.0137H123.69Z" fill="#13416F"/>
<path d="M127.933 39.0137L133.531 46.8589V39.0137H135.658V51.8299H133.687L128.109 43.9852V51.8299H125.963V39.0137H127.933Z" fill="#13416F"/>
<path d="M146.555 39.0137V40.8588H143.318V51.8299H140.177V40.8588H136.959V39.0137H146.555Z" fill="#13416F"/>
<path d="M150.997 39.0137H147.857V51.8299H150.997V39.0137Z" fill="#13416F"/>
</svg>
