<svg width="202" height="54" viewBox="0 0 202 54" fill="none" xmlns="http://www.w3.org/2000/svg">
<g clip-path="url(#clip0_315_6293)">
<path d="M87.5899 37.6457V16.0457H96.4096C97.8002 16.0457 99.0601 16.362 100.189 16.9869C101.319 17.6117 102.195 18.468 102.832 19.548C103.47 20.628 103.785 21.816 103.785 23.112C103.785 24.408 103.47 25.596 102.832 26.676C102.195 27.756 101.319 28.6046 100.189 29.2217C99.0601 29.8389 97.8002 30.1474 96.4096 30.1474H91.4313V37.6457H87.5899ZM96.3482 26.6606C97.3546 26.6606 98.1997 26.3134 98.8988 25.6269C99.5979 24.9403 99.9436 24.0994 99.9436 23.112C99.9436 22.1246 99.5979 21.2529 98.8988 20.5663C98.1997 19.8797 97.3546 19.5326 96.3482 19.5326H91.4313V26.6606H96.3482Z" fill="#0072EF"/>
<path d="M108.748 36.9206C107.549 36.234 106.604 35.2929 105.921 34.1126C105.237 32.9323 104.891 31.6286 104.891 30.2091C104.891 28.7897 105.237 27.486 105.921 26.3057C106.604 25.1254 107.534 24.1843 108.702 23.4977C109.87 22.8111 111.137 22.464 112.512 22.464C113.888 22.464 115.163 22.7803 116.277 23.4206C117.391 24.0609 118.267 24.9403 118.904 26.0589C119.542 27.1774 119.857 28.4271 119.857 29.808C119.857 30.3403 119.803 30.8649 119.703 31.3817H108.517C108.663 32.3074 109.14 33.102 109.962 33.7731C110.784 34.4443 111.767 34.776 112.912 34.776C114.425 34.776 115.77 34.2129 116.938 33.0789L118.997 35.3314C118.42 36.0334 117.583 36.6429 116.477 37.1674C115.37 37.692 114.11 37.9543 112.697 37.9543C111.283 37.9543 109.946 37.6071 108.748 36.9206ZM116.262 28.7589C116.054 27.7714 115.632 26.9846 114.986 26.3983C114.341 25.812 113.519 25.5189 112.512 25.5189C111.506 25.5189 110.599 25.8043 109.916 26.3829C109.232 26.9614 108.756 27.7483 108.487 28.7589H116.262Z" fill="#0072EF"/>
<path d="M122.807 37.6457V22.7726H126.28V24.6857H126.341C126.733 24.1071 127.317 23.598 128.093 23.1429C128.869 22.6877 129.729 22.464 130.674 22.464H131.412V26.1669C130.859 26.0434 130.436 25.9817 130.152 25.9817C129.069 25.9817 128.147 26.3829 127.401 27.1851C126.656 27.9874 126.28 29.0289 126.28 30.3017V37.6457H122.807Z" fill="#0072EF"/>
<path d="M135.33 37.1057C134.254 36.5426 133.432 35.8946 132.856 35.1771L135.007 32.9863C135.414 33.48 135.968 33.9274 136.651 34.3286C137.335 34.7297 138.057 34.9303 138.818 34.9303C139.578 34.9303 140.162 34.776 140.57 34.4674C140.977 34.1589 141.184 33.7654 141.184 33.2949C141.184 32.8629 140.969 32.5311 140.539 32.292C140.109 32.0529 139.409 31.7906 138.449 31.5051C137.443 31.1966 136.613 30.888 135.945 30.5794C135.276 30.2709 134.708 29.8157 134.224 29.2063C133.74 28.5969 133.501 27.8254 133.501 26.8766C133.501 26.0743 133.724 25.3414 134.162 24.6703C134.6 23.9991 135.245 23.4669 136.083 23.0657C136.92 22.6646 137.904 22.464 139.033 22.464C140.239 22.464 141.322 22.6723 142.275 23.0966C143.228 23.5209 143.95 23.9991 144.442 24.5314L142.321 26.7223C141.975 26.3906 141.522 26.1129 140.969 25.8737C140.416 25.6346 139.824 25.5189 139.187 25.5189C138.511 25.5189 137.988 25.65 137.619 25.92C137.251 26.19 137.066 26.5063 137.066 26.8766C137.066 27.2854 137.274 27.6094 137.696 27.8331C138.119 28.0569 138.81 28.3269 139.771 28.6354C140.815 28.9671 141.66 29.2834 142.306 29.592C142.951 29.9006 143.512 30.3557 143.996 30.9497C144.48 31.5437 144.718 32.3306 144.718 33.2949C144.718 34.1357 144.48 34.9149 144.011 35.6246C143.543 36.3343 142.867 36.8974 141.998 37.3217C141.13 37.746 140.101 37.9543 138.91 37.9543C137.596 37.9543 136.406 37.6689 135.33 37.1057Z" fill="#0072EF"/>
<path d="M150.757 36.9206C149.558 36.234 148.613 35.2929 147.929 34.1126C147.246 32.9323 146.9 31.6286 146.9 30.2091C146.9 28.7897 147.246 27.486 147.929 26.3057C148.613 25.1254 149.558 24.1843 150.757 23.4977C151.955 22.8111 153.269 22.464 154.706 22.464C156.142 22.464 157.456 22.8111 158.654 23.4977C159.853 24.1843 160.798 25.1254 161.482 26.3057C162.165 27.486 162.511 28.7897 162.511 30.2091C162.511 31.6286 162.165 32.9323 161.482 34.1126C160.798 35.2929 159.853 36.234 158.654 36.9206C157.456 37.6071 156.142 37.9543 154.706 37.9543C153.269 37.9543 151.955 37.6071 150.757 36.9206ZM156.887 34.0971C157.54 33.7037 158.063 33.1714 158.439 32.4926C158.816 31.8137 159.008 31.05 159.008 30.2091C159.008 29.3683 158.816 28.6046 158.439 27.9257C158.063 27.2469 157.54 26.7146 156.887 26.3211C156.234 25.9277 155.505 25.7349 154.706 25.7349C153.907 25.7349 153.177 25.9277 152.524 26.3211C151.871 26.7146 151.348 27.2469 150.972 27.9257C150.595 28.6046 150.403 29.3683 150.403 30.2091C150.403 31.05 150.595 31.8137 150.972 32.4926C151.348 33.1714 151.871 33.7037 152.524 34.0971C153.177 34.4906 153.907 34.6834 154.706 34.6834C155.505 34.6834 156.234 34.4906 156.887 34.0971Z" fill="#0072EF"/>
<path d="M165.154 37.6457V22.7726H168.627V24.8709H168.688C169.08 24.2537 169.679 23.6983 170.486 23.2046C171.292 22.7109 172.199 22.464 173.205 22.464C174.312 22.464 175.303 22.7263 176.186 23.2509C177.07 23.7754 177.754 24.5237 178.245 25.488C178.737 26.4523 178.983 27.594 178.983 28.9131V37.6457H175.479V29.1291C175.479 28.1031 175.188 27.2854 174.604 26.676C174.02 26.0666 173.267 25.7657 172.345 25.7657C171.277 25.7657 170.394 26.1283 169.687 26.8611C168.98 27.594 168.627 28.5351 168.627 29.6846V37.6457H165.154Z" fill="#0072EF"/>
<path d="M191.797 23.22C192.758 23.7214 193.503 24.4157 194.025 25.3029C194.548 26.19 194.809 27.162 194.809 28.2343V37.6457H191.49V35.5783H191.459C191.052 36.1723 190.422 36.72 189.585 37.2137C188.747 37.7074 187.802 37.9543 186.758 37.9543C185.797 37.9543 184.937 37.7614 184.176 37.368C183.416 36.9746 182.832 36.45 182.409 35.7789C181.987 35.1077 181.779 34.398 181.779 33.6343C181.779 32.3769 182.186 31.3431 182.993 30.5177C183.8 29.6923 184.937 29.1523 186.389 28.8823L191.336 28.0183V27.9874C191.313 27.2854 191.029 26.6991 190.476 26.2131C189.923 25.7271 189.239 25.488 188.417 25.488C187.657 25.488 186.98 25.6654 186.389 26.0126C185.797 26.3597 185.229 26.8149 184.699 27.3703L182.578 25.3337C183.254 24.5314 184.092 23.8526 185.083 23.2971C186.074 22.7417 187.219 22.464 188.509 22.464C189.8 22.464 190.837 22.7186 191.797 23.22ZM190.215 33.9429C190.945 33.1791 191.306 32.2226 191.306 31.0731V30.5794L187.434 31.32C186.758 31.4434 186.228 31.6749 185.851 32.0143C185.475 32.3537 185.283 32.7471 185.283 33.2023C185.283 33.7346 185.49 34.182 185.897 34.5446C186.304 34.9071 186.858 35.0846 187.557 35.0846C188.601 35.0846 189.485 34.7066 190.215 33.9429Z" fill="#0072EF"/>
<path d="M202 37.6457H198.527V16.0457H202V37.6457Z" fill="#0072EF"/>
<path d="M53.1332 34.29C52.2882 34.29 51.6966 34.29 51.2126 34.2206V28.134H52.9028C55.3689 28.134 57.351 28.9903 57.351 31.1426C57.351 33.4183 55.3766 34.2823 53.1332 34.2823M51.2126 20.1806H53.3253C55.5763 20.1806 56.7594 20.952 56.7594 22.5874C56.7594 24.2229 55.4764 24.5931 52.8413 24.5931H51.2126V20.1729V20.1806ZM29.2018 16.0843L30.4771 20.1806H35.6782V37.6689H40.6182V20.1883H46.311V37.584C47.4097 37.746 49.2381 37.908 51.6659 37.908C56.0219 37.908 58.6878 37.1983 60.2781 35.9563C61.6379 34.8686 62.5522 33.3257 62.5522 31.3431C62.5522 28.5814 60.8236 26.7146 58.3267 26.082V26.0203C60.8005 25.0869 61.807 23.436 61.807 21.5383C61.807 19.6406 60.7314 18.09 59.2025 17.28C57.5738 16.3466 55.753 16.0997 52.7261 16.0997H29.1941L29.2018 16.0843ZM26.1902 28.4734L24.8227 23.9066C24.4308 22.6183 24.039 21.0137 23.7164 19.7331H23.6472C23.3245 21.0137 23.0019 22.6491 22.6485 23.9066L21.3424 28.4734H26.1825H26.1902ZM20.6279 32.1223L19.0684 37.6689H13.9671L20.6202 16.0843H27.1198L33.9497 37.6689H28.5872L26.897 32.1223H20.6202H20.6279Z" fill="#0072EF"/>
<path d="M72.2169 4.62857V49.3714H4.60959V4.62857H72.2169ZM76.8265 0H0V54H76.8265V0Z" fill="#0072EF"/>
</g>
<defs>
<clipPath id="clip0_315_6293">
<rect width="202" height="54" fill="white"/>
</clipPath>
</defs>
</svg>
