<svg width="18" height="18" viewBox="0 0 18 18" fill="none" xmlns="http://www.w3.org/2000/svg">
<path d="M16.6426 8.57587C15.3506 6.97412 14.0578 5.87763 12.7839 5.18024C11.5112 4.48236 10.2571 4.19123 9.09063 4.19239C6.74993 4.19685 4.8175 5.32508 3.47552 6.40992C2.13098 7.50044 1.35418 8.57325 1.33032 8.60474L1.01416 9.04132L1.35547 9.45856C2.65546 11.0475 3.95307 12.1354 5.22937 12.8274C6.50439 13.5197 7.7583 13.8087 8.92407 13.8076C11.1282 13.8044 12.9706 12.8058 14.2971 11.7856C15.6259 10.7611 16.4609 9.69465 16.6562 9.43726L16.9857 9.00116L16.6426 8.57587H16.6426ZM2.81359 8.99482C3.15221 8.60194 3.72356 7.99543 4.47057 7.40681C5.29863 6.75215 6.33342 6.13819 7.49157 5.82026C6.38592 6.40693 5.61974 7.60371 5.61974 9.00062C5.61974 10.4488 6.43889 11.6893 7.61101 12.2495C7.06151 12.1231 6.49224 11.9187 5.89653 11.5966C4.92577 11.0705 3.88841 10.2238 2.81358 8.99482H2.81359ZM13.4428 10.6765C12.6226 11.3091 11.6122 11.8909 10.4847 12.1917C11.6007 11.6088 12.3752 10.4055 12.3752 9.00062C12.3752 7.54829 11.5519 6.30421 10.3744 5.74629C10.9313 5.87257 11.508 6.07869 12.1117 6.40834C13.0795 6.93794 14.1128 7.79091 15.1816 9.03011C14.8223 9.44558 14.2259 10.0742 13.4428 10.6765V10.6765Z" fill="#767676"/>
</svg>
