<?xml version="1.0" encoding="utf-8"?>
<!-- Generator: Adobe Illustrator 25.1.0, SVG Export Plug-In . SVG Version: 6.00 Build 0)  -->
<svg version="1.1" id="Layer_1" xmlns="http://www.w3.org/2000/svg" xmlns:xlink="http://www.w3.org/1999/xlink" x="0px" y="0px"
	 viewBox="0 0 400 88" style="enable-background:new 0 0 400 88;" xml:space="preserve">
<style type="text/css">
	.st0{fill:#C41F3E;}
	.st1{fill:#8B1D41;}
	.st2{fill:#FFFFFF;}
	.st3{fill:#B9BABA;}
</style>
<g>
	<path class="st0" d="M115.28,82.87H97.29V5.02h17.99v66.64V82.87z M174,41.83c6.91,1.96,15.01,6.46,15.01,18.81
		c0,14.33-10.57,22.22-29.77,22.22h-27.28V5.02h27.85c17.16,0,26.23,6.89,26.23,19.93c0,9.43-6.13,14.27-12.03,16.67V41.83z
		 M149.96,36.07h7.06c6.89,0,11.76-2.71,11.76-8.94c0-4.16-2.54-9.12-11.3-9.12h-7.52V36.07z M157.72,69.23
		c7.81,0,13.02-3.08,13.02-9.84c0-7.17-5.16-10.3-13.24-10.3h-7.52v20.15H157.72z M248.62,64.7c-1.87,1.26-5.28,4.05-12.3,4.05
		c-12.46,0-20.73-9.55-20.73-24.75c0-15.44,8.26-24.87,20.74-24.87c5.6,0,8.59,1.6,11.45,3.42l9.3-12.65
		c-5.79-3.88-11.46-6.26-22.47-6.26c-23.89,0-37.58,16.18-37.58,40.36c0,24.79,14.28,40.24,37.58,40.24
		c14.89,0,20.66-5.1,23.31-6.92L248.62,64.7z M79.82,64.82c-1.87,1.26-5.09,3.93-12.11,3.93c-12.46,0-20.73-9.55-20.73-24.75
		c0-15.44,8.26-24.87,20.74-24.87c5.6,0,8.59,1.6,11.45,3.42l9.31-12.65C82.68,6.03,77.01,3.64,66,3.64
		C42.11,3.64,28.41,19.83,28.41,44c0,24.79,14.28,40.24,37.58,40.24c14.88,0,20.66-5.1,23.3-6.92L79.82,64.82z"/>
	<g>
		<path class="st0" d="M341.7,3.37C340.32,1.53,338.22,0,334.74,0H305.8c2.98,0,5.28,1.11,7.04,3.46
			C315.75,7.36,342.66,44,342.66,44s-26.91,36.64-29.81,40.54c-1.75,2.35-4.06,3.46-7.04,3.46h28.94c3.48,0,5.58-1.53,6.96-3.37
			L371.59,44L341.7,3.37z"/>
		<path class="st1" d="M320.27,13.53L320.27,13.53c-3.66-4.98-6.55-8.9-7.43-10.07C311.09,1.11,308.78,0,305.81,0c0,0,0,0,0,0
			c-3.48,0-5.59,1.53-6.97,3.37L268.95,44l29.89,40.63c1.38,1.84,3.49,3.37,6.97,3.37c0,0,0,0,0,0c2.98,0,5.28-1.11,7.04-3.46
			c0.87-1.17,7.43-10.07,7.43-10.07l0,0L297.88,44L320.27,13.53z"/>
	</g>
</g>
</svg>
