<?xml version="1.0" encoding="iso-8859-1"?>
<!-- Generator: Adobe Illustrator 19.0.1, SVG Export Plug-In . SVG Version: 6.00 Build 0)  -->
<svg version="1.1" id="Layer_1" xmlns="http://www.w3.org/2000/svg" xmlns:xlink="http://www.w3.org/1999/xlink" x="0px" y="0px"
	 viewBox="0 0 445 144.054" style="enable-background:new 0 0 445 144.054;" xml:space="preserve">
<rect x="154.769" style="fill:#FDB913;" width="287.999" height="143.999"/>
<path style="fill:#005288;" d="M348.412,63.825c-0.004,0.001-0.004,0.002-0.006,0.003l0.008-0.004
	C348.412,63.823,348.412,63.825,348.412,63.825z"/>
<polygon style="fill:#005288;" points="348.865,105.456 348.865,105.456 348.865,105.456 348.865,105.456 348.865,105.456 
	348.865,105.456 348.865,105.456 348.865,105.456 348.865,105.456 348.865,105.456 348.865,105.456 348.865,105.456 
	348.865,105.456 348.865,105.456 348.865,105.456 "/>
<g>
	<polygon style="fill:#004071;" points="296.408,42.886 296.408,38.605 281.196,38.605 281.196,65.795 296.408,65.795 
		296.408,61.586 287.407,61.586 287.407,53.244 296.267,53.244 296.267,49.75 287.407,49.75 287.407,42.886 	"/>
	<path style="fill:#004071;" d="M231.587,38.605v15.928c0,1.642,0.206,3.342,0.581,4.78c1.537,5.825,7.311,6.694,10.617,6.694
		c1.937,0,4.714-0.365,6.957-2.105c1.667-1.244,2.747-2.875,3.302-4.979c0.489-1.855,0.536-3.836,0.585-5.933l0.011-0.426V38.605
		h-4.592l-0.002,12.883c0,0.002,0.002,1.012,0.002,1.012c0,1.501-0.029,3.078-0.234,4.445c-0.281,1.75-0.512,2.893-1.674,4.185
		c-0.941,1.011-2.087,1.503-3.503,1.503c-1.408,0-2.555-0.496-3.508-1.516c-1.139-1.274-1.387-2.428-1.658-4.174
		c-0.205-1.341-0.233-3.252-0.233-4.944l0.004-1.191l0.002-1.005V38.605H231.587z M249.742,63.902
		c-0.001,0.001-0.003,0.002-0.005,0.003l0.008-0.005C249.743,63.9,249.743,63.902,249.742,63.902z"/>
	<path style="fill:#004071;" d="M404.413,55.799l-14.645-17.193h-4.08v27.19h3.857V48.283l15.146,17.512h3.572v-27.19h-3.852V55.799
		z"/>
	<path style="fill:#004071;" d="M319.097,55.799l-14.645-17.193h-4.08v27.19h3.858V48.283l15.147,17.512h3.571v-27.19h-3.852V55.799
		z"/>
	<path style="fill:#004071;" d="M189.272,38.605v27.19h15.18V61.6l-8.713-0.004v-22.99H189.272z"/>
	<path style="fill:#004071;" d="M350.511,38.623v27.168h6.199V38.623H350.511z"/>
	<g>
		<g>
			<path style="fill:#004071;" d="M269.815,52.758l-0.059-0.093c0,0,0.029-0.005,0.059-0.015c3.748-0.949,6.076-3.803,6.076-7.458
				c0-1.968-0.737-3.631-2.133-4.812c-1.373-1.162-3.299-1.775-5.569-1.775h-10.601v27.19h6.32c0,0,0-11.701,0-12.526h0.199
				c0.966,1.711,6.743,11.948,6.948,12.305l0.128,0.222h6.957L269.815,52.758z M265.718,50.619c0,0-1.236,0-1.809,0V41.44
				c0.094,0,1.809,0,1.809,0c2.951,0,4.577,1.546,4.577,4.356c0,1.642-0.501,2.905-1.488,3.755
				C268.006,50.24,266.909,50.619,265.718,50.619z"/>
		</g>
	</g>
	<path style="fill:#004071;" d="M326.547,38.605v4.272h7.212l-0.003,22.918h6.265V42.887l6.932-0.001v-4.28H326.547z"/>
	<path style="fill:#004071;" d="M220.784,38.605h-3.326l-10.849,27.19h3.938l2.969-7.914h8.212l2.786,7.914h6.865L220.784,38.605z
		 M214.72,54.807l3.092-8.004l2.821,8.004H214.72z"/>
	<path style="fill:#004071;" d="M372.924,38.61h-3.326l-10.85,27.19h3.939l2.969-7.913h8.212l2.785,7.913h6.867L372.924,38.61z
		 M366.859,54.811l3.093-8.003l2.821,8.003H366.859z"/>
</g>
<g>
	<path style="fill:#004071;" d="M317.746,95.848l-14.645-17.194h-4.082v27.189h3.859V88.332l15.147,17.511h3.572V78.654h-3.853
		L317.746,95.848z"/>
	<path style="fill:#004071;" d="M266.949,91.106c0.629-0.296,1.314-0.704,1.933-1.227c1.545-1.303,2.362-3.022,2.362-4.973
		c0-2.328-0.921-4.041-2.736-5.09c-1.335-0.773-3.135-1.163-5.348-1.163h-11.051v27.189h10.01c2.549,0,4.906-0.675,6.639-1.901
		c2.029-1.438,3.104-3.547,3.104-6.098C271.861,94.11,269.52,91.995,266.949,91.106z M258.6,81.696c0.073,0,2.152,0,2.152,0
		c1.568,0,3.906,1.195,3.941,3.76c0.022,1.551-0.516,2.869-1.512,3.711c-1.08,0.92-2.935,0.898-4.426,0.882c0,0-0.096,0-0.156,0
		V81.696z M260.662,102.791c0,0-1.459,0-2.062,0v-9.705c0.072,0,1.264,0,1.264,0c3.414,0,5.22,1.74,5.22,5.035
		C265.083,101.154,262.805,102.791,260.662,102.791z"/>
	<path style="fill:#004071;" d="M286.25,78.654h-3.326l-10.85,27.189h3.939l2.969-7.913h8.212l2.785,7.913h6.867L286.25,78.654z
		 M280.185,94.855l3.093-8.003l2.821,8.003H280.185z"/>
	<g>
		<path style="fill:#004071;" d="M324.707,105.837h5.788v-12.76l8.758,12.773l6.175-0.007l-10.123-15.232
			c0.996-1.308,9.505-11.962,9.505-11.962l-4.439,0.01c0,0-6.436,8.153-9.876,12.241V78.658h-5.788V105.837z"/>
	</g>
</g>
<rect x="1.77" y="0.054" style="fill:#004071;" width="144" height="144"/>
<g>
	<g>
		<path style="fill:#FDB913;" d="M22.89,49.653l17.781,17.827h19.126V48.311L42.035,30.495L22.89,49.653z M14.921,67.676v27.156
			h25.181l13.509-13.578L40.102,67.676H14.921z M60.132,76.518v44.622h27.162V76.518L73.715,63.009L60.132,76.518z M107.319,67.676
			L93.815,81.254l13.504,13.578h25.183V67.676H107.319z M124.53,49.653l-19.145-19.158L87.62,48.311v19.169h19.131L124.53,49.653z
			 M60.132,48.205l13.583,13.509l13.579-13.509V22.911H60.132V48.205z"/>
	</g>
</g>
</svg>
