<?xml version="1.0" encoding="utf-8"?>
<!-- Generator: Adobe Illustrator 24.3.0, SVG Export Plug-In . SVG Version: 6.00 Build 0)  -->
<svg version="1.1" id="Layer_1" xmlns="http://www.w3.org/2000/svg" xmlns:xlink="http://www.w3.org/1999/xlink" x="0px" y="0px"
	 viewBox="0 0 612 292" style="enable-background:new 0 0 612 292;" xml:space="preserve">
<style type="text/css">
	.st0{fill:#7BA0C4;}
	.st1{fill:#3D3935;}
</style>
<g>
	<g>
		<path class="st0" d="M349.3,143.7h-57.8c-15.3,0,29.7-12.5,29.7-27.8V29c0-15.3-45-27.8-29.7-27.8h57.8
			c15.3,0,27.8,12.5,27.8,27.8V116C377.1,131.2,364.6,143.7,349.3,143.7z"/>
		<g>
			<path class="st0" d="M273.8,47.9c-3.4-15.7-14.7-44-53.7-46.5c-0.7,0-1.4-0.1-2-0.1v22.4v75.1c0,0-0.3,16.4,3.3,32.9
				c3.4,15.7,14.7,44,53.7,46.5c0.7,0,1.4,0.1,2,0.1v-22.4V80.8C277.1,80.8,277.4,64.3,273.8,47.9z"/>
		</g>
	</g>
	<g>
		<path class="st1" d="M1,210.1h21.1c3.5,0,6.6,0.3,9.5,1c2.9,0.6,5.4,1.7,7.6,3.3s3.8,3.5,5,6s1.8,5.5,1.8,9.2c0,3.5-0.6,6.5-1.8,9
			c-1.2,2.6-2.9,4.7-5,6.4c-2.1,1.7-4.7,2.9-7.6,3.7c-2.9,0.8-6.1,1.2-9.4,1.2h-10v23H1L1,210.1L1,210.1z M21.2,240.9
			c9.2,0,13.8-3.8,13.8-11.4c0-4-1.2-6.7-3.5-8.2c-2.3-1.5-5.8-2.3-10.4-2.3h-9.1v21.9L21.2,240.9L21.2,240.9z"/>
		<path class="st1" d="M48.6,249.3c0-3.8,0.7-7.3,2.1-10.4c1.4-3.1,3.2-5.7,5.4-7.8c2.2-2.1,4.8-3.8,7.7-4.9c2.9-1.1,5.9-1.7,9-1.7
			c3.5,0,6.6,0.6,9.3,1.7s5,2.7,6.9,4.6c1.8,1.9,3.3,4.3,4.2,7.1s1.4,5.8,1.4,9c0,1.1,0,2.1-0.1,3s-0.2,1.6-0.3,2.2H59.9
			c0.5,4.3,2.2,7.6,5.1,9.9c2.9,2.3,6.5,3.5,10.7,3.5c2.4,0,4.7-0.3,6.8-1s4.3-1.6,6.4-2.8l3.7,6.9c-2.6,1.6-5.4,2.9-8.5,3.9
			s-6.4,1.5-9.9,1.5c-3.6,0-6.9-0.6-10.1-1.7c-3.1-1.1-5.9-2.7-8.2-4.8c-2.3-2.1-4.1-4.7-5.5-7.7C49.3,256.7,48.6,253.3,48.6,249.3z
			 M84.4,245.1c0-3.8-1-6.7-2.9-8.8c-1.9-2.1-4.8-3.2-8.5-3.2c-1.6,0-3.1,0.3-4.6,0.8c-1.5,0.5-2.8,1.3-4,2.3s-2.2,2.3-3,3.7
			c-0.8,1.5-1.4,3.2-1.6,5.2L84.4,245.1L84.4,245.1z"/>
		<path class="st1" d="M102.2,249.3c0-3.9,0.7-7.4,2-10.4c1.3-3.1,3-5.7,5.2-7.8c2.2-2.1,4.7-3.7,7.6-4.8c2.9-1.1,5.9-1.7,8.9-1.7
			c3.1,0,6,0.6,8.9,1.7c2.9,1.1,5.4,2.7,7.6,4.8c2.2,2.1,3.9,4.7,5.2,7.8c1.3,3.1,2,6.6,2,10.4c0,3.9-0.7,7.4-2,10.4
			c-1.3,3.1-3,5.7-5.2,7.8c-2.2,2.1-4.7,3.7-7.6,4.8s-5.9,1.6-8.9,1.6c-3.1,0-6-0.5-8.9-1.6c-2.9-1.1-5.4-2.7-7.6-4.8
			c-2.2-2.1-3.9-4.7-5.2-7.8C102.8,256.7,102.2,253.3,102.2,249.3z M113.6,249.3c0,4.7,1.1,8.5,3.3,11.4c2.2,2.9,5.2,4.3,9,4.3
			c3.8,0,6.8-1.4,9-4.3c2.2-2.8,3.3-6.6,3.3-11.4c0-4.8-1.1-8.6-3.3-11.5c-2.2-2.8-5.2-4.3-9-4.3c-3.8,0-6.8,1.4-9,4.3
			C114.7,240.7,113.6,244.6,113.6,249.3z"/>
		<path class="st1" d="M167.8,276.7v14.8h-11.1v-65.7h9.1l0.9,5.4h0.3c2-1.9,4.4-3.4,7.1-4.6c2.7-1.3,5.3-1.9,8-1.9
			c3.1,0,5.8,0.6,8.2,1.7c2.4,1.1,4.4,2.7,6,4.8c1.6,2.1,2.9,4.6,3.7,7.6c0.9,2.9,1.3,6.2,1.3,9.9c0,4-0.6,7.6-1.7,10.8
			c-1.2,3.2-2.7,5.8-4.6,8c-1.9,2.1-4.2,3.8-6.7,4.9c-2.5,1.2-5.1,1.7-7.8,1.7c-2.2,0-4.4-0.5-6.7-1.4c-2.3-1-4.4-2.3-6.3-4.1
			L167.8,276.7z M167.8,260.6c1.7,1.6,3.5,2.7,5.3,3.4c1.8,0.6,3.5,1,4.9,1c3.4,0,6.2-1.4,8.4-4.1c2.2-2.7,3.4-6.8,3.4-12.1
			c0-4.7-0.9-8.4-2.6-11c-1.7-2.6-4.5-3.9-8.3-3.9c-1.8,0-3.6,0.4-5.5,1.3c-1.9,0.9-3.7,2.3-5.7,4.3L167.8,260.6L167.8,260.6z"/>
		<path class="st1" d="M195.5,205.1h25.9v51.1c0,3.2,0.8,5.5,2.4,6.8c1.6,1.3,3.6,2,6,2c2.3,0,5-0.6,8.1-1.8l2.6,8.2
			c-2.2,0.8-4.3,1.4-6.3,1.9c-1.9,0.5-4.3,0.8-7.1,0.8c-5.6,0-9.8-1.6-12.6-4.8c-2.8-3.2-4.2-7.7-4.2-13.5v-41.8h-14.9L195.5,205.1
			L195.5,205.1z"/>
		<path class="st1" d="M242.7,249.3c0-3.8,0.7-7.3,2.1-10.4c1.4-3.1,3.2-5.7,5.4-7.8c2.2-2.1,4.8-3.8,7.7-4.9c2.9-1.1,5.9-1.7,9-1.7
			c3.5,0,6.6,0.6,9.3,1.7c2.7,1.1,5,2.7,6.9,4.6c1.8,1.9,3.3,4.3,4.2,7.1c1,2.8,1.4,5.8,1.4,9c0,1.1,0,2.1-0.1,3
			c-0.1,0.9-0.2,1.6-0.3,2.2H254c0.5,4.3,2.2,7.6,5.1,9.9c2.9,2.3,6.5,3.5,10.7,3.5c2.4,0,4.7-0.3,6.8-1c2.1-0.7,4.3-1.6,6.4-2.8
			l3.7,6.9c-2.6,1.6-5.4,2.9-8.5,3.9c-3.1,1-6.4,1.5-9.9,1.5c-3.6,0-6.9-0.6-10.1-1.7c-3.1-1.1-5.9-2.7-8.2-4.8
			c-2.3-2.1-4.1-4.7-5.5-7.7C243.3,256.7,242.7,253.3,242.7,249.3z M278.5,245.1c0-3.8-1-6.7-2.9-8.8c-1.9-2.1-4.8-3.2-8.5-3.2
			c-1.6,0-3.1,0.3-4.6,0.8c-1.5,0.5-2.8,1.3-4,2.3s-2.2,2.3-3,3.7c-0.8,1.5-1.4,3.2-1.6,5.2L278.5,245.1L278.5,245.1z"/>
		<path class="st1" d="M301.6,259.7c2.7,1.9,5.5,3.3,8.4,4.4c2.9,1.1,6.2,1.6,9.8,1.6c3.7,0,6.4-0.5,8.2-1.6s2.6-2.4,2.6-4.1
			s-1.1-3-3.4-4.2c-2.2-1.1-5.8-2.3-10.5-3.6c-2.2-0.6-4.4-1.3-6.5-2.1s-4-1.8-5.6-2.9c-1.6-1.1-2.9-2.3-3.8-3.7
			c-1-1.4-1.4-3-1.4-4.8c0-4.2,1.8-7.5,5.4-10.2c3.6-2.6,8.7-3.9,15.4-3.9c3.8,0,7.4,0.6,10.8,1.9c3.4,1.3,6.3,2.7,8.7,4.3l-5.1,6.8
			c-2.1-1.4-4.4-2.5-6.8-3.4s-4.9-1.3-7.6-1.3c-3.6,0-6.2,0.5-7.7,1.5c-1.5,1-2.2,2.2-2.2,3.7c0,0.8,0.3,1.6,1,2.3
			c0.7,0.7,1.6,1.3,2.8,1.8c1.2,0.5,2.6,1.1,4.2,1.6c1.6,0.5,3.4,1,5.3,1.4c2.8,0.7,5.2,1.5,7.4,2.4c2.2,0.9,4.1,1.8,5.7,2.9
			c1.6,1.1,2.8,2.4,3.6,3.8c0.9,1.5,1.3,3.2,1.3,5.1c0,2-0.5,4-1.4,5.7c-1,1.8-2.4,3.3-4.2,4.6c-1.9,1.3-4.2,2.4-6.9,3.1
			c-2.8,0.8-5.9,1.2-9.5,1.2c-4.4,0-8.6-0.7-12.7-2.1c-4-1.4-7.5-3.1-10.4-5.2L301.6,259.7z"/>
	</g>
	<g>
		<path class="st1" d="M395.1,213.5h-22v-3.8h48.3v3.8h-22v59.4h-4.4L395.1,213.5L395.1,213.5z"/>
		<path class="st1" d="M426.8,226.8h3.6l0.5,11.3h0.2c2.5-3.6,5.6-6.6,9.3-9c3.7-2.3,7.8-3.5,12.4-3.5c1.5,0,3.1,0.1,4.6,0.4
			c1.6,0.3,3.1,0.8,4.5,1.5l-1.1,3.7c-1.7-0.6-3.1-1-4.3-1.3c-1.2-0.3-2.7-0.4-4.5-0.4c-3.8,0-7.5,1.1-11,3.3s-6.8,5.9-10,11.1v28.8
			h-4.3L426.8,226.8L426.8,226.8z"/>
		<path class="st1" d="M509.7,272.8h-3.5l-0.5-8.9h-0.4c-2.5,2.9-5.2,5.4-8.2,7.2c-2.9,1.9-6.3,2.8-10,2.8c-5.6,0-9.8-1.5-12.5-4.5
			c-2.7-3-4-7.7-4-14v-28.7h4.2v28.1c0,5.2,1,9,3,11.5c2,2.5,5.3,3.7,9.9,3.7c1.6,0,3.1-0.2,4.6-0.6c1.5-0.4,2.9-1.1,4.3-1.9
			c1.4-0.9,2.8-1.9,4.2-3.3c1.4-1.3,2.9-2.9,4.5-4.6v-32.9h4.2L509.7,272.8L509.7,272.8z"/>
		<path class="st1" d="M522,263.6c2.5,2,5.3,3.7,8.5,4.9c3.2,1.2,7.2,1.8,11.9,1.8c4.8,0,8.4-0.9,10.8-2.7c2.4-1.8,3.6-3.9,3.6-6.4
			c0-1-0.2-2-0.7-2.9c-0.4-0.9-1.3-1.8-2.5-2.7c-1.2-0.9-2.9-1.7-5-2.5c-2.1-0.8-4.9-1.6-8.3-2.4c-2.6-0.6-5-1.4-7.2-2.2
			c-2.2-0.8-4.1-1.8-5.7-2.8c-1.6-1.1-2.9-2.2-3.8-3.5c-0.9-1.3-1.4-2.7-1.4-4.2c0-1.7,0.3-3.2,1.1-4.7s1.8-2.8,3.3-3.9
			c1.5-1.1,3.4-2,5.7-2.6c2.3-0.6,4.9-1,8-1c3.1,0,6.2,0.5,9.4,1.6c3.2,1.1,6,2.4,8.2,4l-2.3,3.1c-2-1.5-4.4-2.8-6.9-3.7
			c-2.6-0.9-5.4-1.4-8.5-1.4c-2.6,0-4.7,0.2-6.4,0.7c-1.7,0.5-3.1,1.1-4.2,1.9c-1.1,0.8-1.8,1.6-2.3,2.6c-0.4,1-0.7,2-0.7,3.1
			c0,2.2,1.4,4.1,4.2,5.6c2.8,1.5,6.6,2.8,11.4,4c3.6,0.9,6.6,1.8,9,2.7c2.4,0.9,4.4,1.9,5.9,3c1.5,1.1,2.6,2.3,3.2,3.6
			c0.6,1.3,1,2.8,1,4.5c0,1.7-0.4,3.4-1.3,4.9s-2.1,2.9-3.7,4.1c-1.6,1.2-3.6,2.1-6,2.8c-2.4,0.7-5,1.1-8.1,1.1
			c-4.8,0-9.1-0.7-12.9-2.2s-7-3.1-9.8-5.1L522,263.6z"/>
		<path class="st1" d="M581.6,230.5h-13.8v-3.3l13.9-0.4l0.6-13.3h3.5v13.3h24.5v3.6h-24.5V256c0,2.2,0.2,4.2,0.6,6
			c0.4,1.8,1.1,3.3,2,4.5s2.3,2.2,3.9,2.8c1.6,0.6,3.7,1,6.3,1c2.4,0,4.6-0.2,6.6-0.6c2-0.4,3.9-1,5.7-1.8l1.2,3.3
			c-2,0.9-4.3,1.6-6.9,2.1c-2.5,0.5-4.9,0.8-7.2,0.8c-3.1,0-5.8-0.4-7.9-1.3c-2.1-0.9-3.8-2.1-5-3.7c-1.3-1.6-2.1-3.5-2.7-5.8
			c-0.5-2.3-0.8-4.8-0.8-7.5L581.6,230.5L581.6,230.5z"/>
	</g>
</g>
</svg>
