<?xml version="1.0" encoding="utf-8"?>
<!-- Generator: Adobe Illustrator 21.0.0, SVG Export Plug-In . SVG Version: 6.00 Build 0)  -->
<svg version="1.1" id="Layer_1" xmlns="http://www.w3.org/2000/svg" xmlns:xlink="http://www.w3.org/1999/xlink" x="0px" y="0px"
	 viewBox="0 0 313 80" style="enable-background:new 0 0 313 80;" xml:space="preserve">
<style type="text/css">
	.st0{fill:#3B6E98;}
	.st1{fill:#FAA620;}
</style>
<g id="Logo">
	<g>
		<path id="XMLID_20_" class="st0" d="M253.4,24.6c-0.1-2.7-1.9-3-3.6-3v-1.1l8.6-1.2l0.3,5.3h0.1c1.6-3,5.4-6,10.7-6
			c4.5,0,11.5,2.7,11.5,13.8v19.4h-5.9V33.1c0-5.2-1.9-9.7-7.5-9.7c-3.8,0-6.8,2.8-7.9,6c-0.3,0.7-0.4,1.8-0.4,2.8v19.6h-5.9
			C253.4,51.8,253.4,25.7,253.4,24.6z"/>
		<path id="XMLID_17_" class="st0" d="M107.6,32.3c0.1-3.7-1.6-9.6-8.1-9.6c-6.1,0-8.6,5.5-9.1,9.6H107.6z M90.3,36.5
			c0.1,8,5.2,11.3,11.1,11.3c4.2,0,6.9-0.8,9-1.6l1.1,4.2c-2.1,0.9-5.7,2.1-10.9,2.1c-9.9,0-16-6.6-16-16.4
			c0-9.9,5.9-17.6,15.3-17.6c10.6,0,13.4,9.4,13.4,15.3c0,1.2-0.1,2.2-0.2,2.8L90.3,36.5z"/>
		<path id="XMLID_14_" class="st0" d="M237.3,35.2c-6.4-0.1-13.8,1-13.8,7.3c0,3.9,2.6,5.7,5.5,5.7c4.3,0,7.1-2.7,8-5.5
			c0.2-0.6,0.2-1.3,0.2-1.9L237.3,35.2L237.3,35.2z M243.1,44c0,2.8,0.1,5.6,0.5,7.8h-5.3l-0.6-4.1h-0.2c-1.8,2.6-5.3,4.9-10,4.9
			c-6.6,0-9.9-4.7-9.9-9.4c0-7.9,7-12.2,19.6-12.1v-0.7c0-2.7-0.7-7.6-7.4-7.5c-3.1,0-6.3,0.9-8.5,2.4l-1.3-4
			c2.7-1.7,6.7-2.8,10.7-2.8c10,0,12.4,6.8,12.4,13.3V44L243.1,44z"/>
		<path id="XMLID_11_" class="st0" d="M153.4,12.9c0-1.9-1.6-3.5-3.5-3.5s-3.5,1.5-3.5,3.5c0,1.9,1.6,3.5,3.5,3.5
			C151.8,16.4,153.4,14.8,153.4,12.9z M146.9,51.8V19.3h5.9v32.5H146.9z"/>
		<path id="XMLID_8_" class="st0" d="M209.5,12.9c0-1.9-1.5-3.5-3.5-3.5c-1.9,0-3.5,1.5-3.5,3.5c0,1.9,1.5,3.5,3.5,3.5
			C207.9,16.4,209.5,14.8,209.5,12.9z M202.8,51.8V19.3h5.9v32.5H202.8z"/>
		<path id="XMLID_7_" class="st0" d="M127.5,19.3l-8.6,1.2v1.1c1.9,0,3.6,0.5,3.7,4c0,1.2,0.1,2.6,0.1,3.9l-0.1,22.4h5.9V34.4
			c0-1,0.1-1.9,0.2-2.8c0.8-4.4,3.8-7.5,7.9-7.5c0.8,0,1.4,0.1,2.1,0.1v-5.5c-0.5-0.1-1-0.2-1.6-0.2c-4,0-7.6,2.7-9.1,7.1h-0.2
			L127.5,19.3z"/>
		<path id="XMLID_6_" class="st0" d="M180.3,19.5c4.9,2.5,4,8.3,4,8.3c-1.4-2.7-4.2-4.6-7.7-4.6c-6.1,0-9.8,5.4-9.8,12.5
			c0,6.7,3.3,12.1,9.6,12.1c3.9,0,7.6-2.7,8.7-7.1c0.2-0.8,0.3-1.6,0.3-2.6V6.3h5.9v37.1c0,2.9,0.1,6.2,0.3,8.4h-5.3l-0.3-5.7h-0.1
			c-1.8,3.6-5.7,6.4-11,6.4c-7.9,0-14-6.7-14-16.6c-0.1-10.9,6.7-17.5,14.6-17.5C176.7,18.5,178.8,18.7,180.3,19.5z"/>
		<path id="XMLID_3_" class="st0" d="M283.4,14.1h-1.6v-0.5h3.8v0.5H284v4.4h-0.6V14.1L283.4,14.1z M290.6,13.6h1v4.9H291v-4.4l0,0
			l-1.8,4.4h-0.4l-1.8-4.4l0,0v4.4h-0.6v-4.9h1l1.6,4L290.6,13.6z"/>
		<path class="st1" d="M54.5,73.7c-5.3,0-10.4-0.8-14.9-2.4c-3.6-1.3-7-3-10-5.3c-5-3.7-7.3-7.6-7.4-7.7c-0.3-0.4-0.5-0.9-0.7-1.3
			c0,0-0.2-0.3-0.2-0.6c0-0.4,0.3-1.1,1.1-1.1c0.6,0,1,0.5,1,0.5c0.4,0.4,2.3,3.5,7,6.7c4.5,3,12.3,6.6,23.9,6.6s19.5-3.6,23.9-6.6
			c4.8-3.2,6.6-6.2,7-6.7c0,0,0.4-0.6,1-0.5c0.8,0,1.1,0.7,1.1,1.1c0,0.3-0.2,0.6-0.2,0.6c-0.2,0.4-0.5,0.8-0.7,1.3
			c-0.1,0.2-2.4,4-7.4,7.7c-3,2.2-6.3,4-10,5.3C64.9,72.9,59.9,73.7,54.5,73.7z"/>
		<path id="XMLID_1_" class="st0" d="M34.3,10.1C34.5,7.4,30,7.8,30,7.8V6.5h12l7.7,21.9c1.9,5.6,3.4,10.5,4.6,15.2h0.2
			c1.2-4.6,2.8-9.5,4.8-15.2l8.1-21.9h7.4l2.8,45.3h-5.8l-1.1-19.9c-0.3-6.3-0.8-14-0.8-19.5h-0.1c-1.6,5.2-3.4,10.9-5.7,17.2l-8,22
			h-4.4L44.4,30c-2.1-6.4-3.9-12.2-5.2-17.6h-0.1c-0.1,5.6-0.5,13.2-0.9,20L37,51.8h-5.6L34.3,10.1z"/>
	</g>
</g>
<g id="Layer_1_1_">
</g>
</svg>
