<?xml version="1.0" encoding="utf-8"?>
<!-- Generator: Adobe Illustrator 19.0.1, SVG Export Plug-In . SVG Version: 6.00 Build 0)  -->
<svg version="1.1" id="Layer_1" xmlns="http://www.w3.org/2000/svg" xmlns:xlink="http://www.w3.org/1999/xlink" x="0px" y="0px"
	 viewBox="-183 255.8 243.1 283.2" style="enable-background:new -183 255.8 243.1 283.2;" xml:space="preserve" preserveAspectRatio="xMidYMid meet">
<style type="text/css">
	.st0{fill:#0060A9;}
	.st1{fill:none;stroke:#FFFFFF;stroke-width:4.7171;}
	.st2{fill:#FFDD00;}
	.st3{fill:#FFFFFF;}
	.st4{fill:#231F20;}
</style>
<path class="st0" d="M33.4,503.3c0,9.4-3.8,14.8-11.3,17.7c-29.1,11.2-63.6,17-96.4,17s-67.3-5.8-96.4-17
	c-7.5-2.9-11.3-8.3-11.3-17.7V254.8H33.5"/>
<path class="st1" d="M32.4,504.3c0,9.4-3.8,14.8-11.3,17.7c-29.1,11.2-63.6,17-96.4,17s-67.3-5.8-96.4-17
	c-7.5-2.9-11.3-8.3-11.3-17.7V255.8H32.5L32.4,504.3L32.4,504.3z"/>
<path class="st2" d="M-125.2,407.3c-29.9-18.7-39.7-26.9-40.5-39.1c-0.1-2.5,0.4-6.7,1.5-9.7l-2.8-1.9c-2.2,3.6-3.7,8.3-3.7,12.6
	c0,7.1,2.3,12.4,5,16.7c4.2,6.5,8.6,10.5,19.5,18.7c11.7,8.8,19.7,19,24.3,29.8h1.7v-12.2c15.8,9,29.8,17.4,36.6,32.5h1.7
	C-84.7,439.1-93.6,427-125.2,407.3"/>
<path class="st2" d="M12.2,454.7h-2c0-11.1-10.2-14.2-20.9-14.2h-33.4c1.1,5.5,1.6,11.9,0.7,18h-1.7c-3.1-25-17.2-37.4-37-50.7v11.4
	h-1.7c-5.3-11.7-16.8-22.8-27.7-30.6l0,0c-2.9-2.1-5.9-4.2-8.9-6.4v12.3h-1.7c-4.6-12.2-13.1-21.3-25-32.1
	c-12.9-11.7-18.2-18.6-21.2-26.7c-1.8-4.9-2.4-8.8-2.4-14.1c-0.1-9.6,4.7-18.2,10.7-21.4v4.6c-3,3.9-4.5,8.9-4.5,14
	c0,4.7,1.1,9.9,3.4,14.3c7.3,13.9,31.9,30.9,47.5,41.4c48.5,32.5,58.2,38.2,66.3,55.5c0.9,1.9,1.8,4.5,2.5,7.5
	c7-1.1,32.4-4.9,37.1-5.7c0.9-0.2,2.8-0.4,3.7-0.4c4.4-2.8,7.8-6.3,10.8-10.7l-18.5-1.3c-1,2.1-1.9,3.9-2.8,5.4H-16
	c0.5-1.9,1-3.8,1.3-5.6l-4.8-0.3v-1l5.2-0.6c1-5.3,1.4-10.2,1.6-14.9l-23.4-1.3c-0.1,2.4-0.1,4.7-0.1,6.8h-1.5
	c-0.5-2.3-0.9-4.7-1.2-6.9l-5.1-0.3v-1.6l4.9-0.3c-0.7-6.2-0.7-12-0.5-16.9l-13.7-0.6c0.6,1.2,1.3,2.4,1.8,3.8
	c2.9,8.3,2.3,17.9,1.3,22.4h-1.7c-0.2-5.1-2-11.5-3.6-15.3c-3.8-8.9-12.3-16.8-26.5-26v11.2h-1.7c-4.7-15-16.5-23.3-34.1-32.3
	c-14.5-7.4-19-16.4-18.1-30.2l4.9,2.9c1.2,13,11.2,20.4,21.6,20.4c6.1,0,11.9-0.9,17.4-2c8-1.6,15.4-3,21.6-0.8v-7.6h-4.9
	c-1.7,1.5-5.3,3.2-10.5,3.3c-5.7,0.1-16.5-3.2-16.5-15.2c0-10.5,8.9-12.2,16.1-12.2c3.9,0,10.3-0.1,12.5-0.3
	c1.6-0.1,2.8-0.3,3.6-1.1c0.8-0.8,1.1-1.6,1.3-2.7c0.2-1.3,0.2-2.6,0.2-4.9V287H-102v13.3l-12.7-4.8v-3.2h6.1V287h-22.6v-11h-7.7
	c-4.1,0-8.9,2.9-9.2,8.5c-0.3,5.4,2.1,9.9,7.6,9.9h1v6.4h-1c-9.7,0-17-7.3-17-16.9c0-10,8.6-17.7,18.9-17.7h16.3v11h63.5v16.2
	c0,2.7-0.1,6.4-0.4,8.7c-0.2,1.7-0.8,4.7-4,7.2c-1.9,1.5-4.9,2.1-9.6,2.1c-1.5,0-6.1-0.1-11.4-0.4c-7.2-0.5-9.3,2.3-9.6,4.9
	c-0.1,0.6-0.1,1.1,0,1.6c3.4-2.6,8.2-4.5,13.6-2.7c9.6,3,12.3,3.3,17.3-0.7l0.5,1.1c-0.5,0.8-1.5,2-2.9,3.1h4.6v25.1l14.4-8.6h40.4
	c0,0,17.1,8.9,19.9,10.4c2.5,1.3,3.5,2.9,3.9,5.2c0.3,1.9-0.2,4.4-1.1,6c-0.6,1-5.2,8.6-7.7,12.7c6.9,7.4,11.5,17.8,11.5,29.4
	c0,10.5-3.9,24.1-16.5,34.1c5.6,1.8,9.1,4.8,11.9,8.8 M-78,319.7c-5.7-1.2-8.9-0.5-12.1,2.6c1.6,0.8,3.6,1.2,5.8,1
	C-81.1,323.1-79.1,321.1-78,319.7 M-81.3,355.8l16-9.6c-3.1-1.5-6.6-2.6-10.7-2.6c-5.5-0.1-14.8,2.5-19.3,3.1
	C-93.3,348.1-86.2,352.7-81.3,355.8 M-9.8,356.8l2.2-3.1l-3.4-4.6l0.6-1l9.7,5.2l-2.1,6.4c1.6,0.7,3,1.7,4.9,3l6.2-10.3L-7.9,344
	h-35.7l-29,17.4c5.4,3.8,10.4,7.9,14,12c7.8-11.3,21.4-18.5,34.9-18.5C-19.3,354.9-14.1,355.4-9.8,356.8 M-12.7,397.3
	c-0.2-5.3-0.9-10.2-1.7-14.4l-18.9-0.9c-1.3,5.8-2.2,11.4-2.6,16.5L-12.7,397.3z M-6.4,383.3c0.6,4.9,0.7,9.5,0.4,13.7l18.7-1
	c-0.5-4.3-1.7-8.3-3.5-12L-6.4,383.3z M-15.9,377.1c-2-6.8-4.3-11.5-5.5-13.7c-0.8,0-1.6-0.1-2.4-0.1c-1.3,0-2.6,0.2-3.9,0.3
	c-1.9,4.7-3.4,9.5-4.7,14.4L-15.9,377.1z M-10.7,365.8c1.4,3.8,2.5,7.4,3.2,10.9L4,376.1C0,371.5-5,368-10.7,365.8 M10.4,414.1
	c1.3-3.3,2.2-6.4,2.4-10.3l-19.5-1.1c-0.9,5.5-2.3,10.2-3.9,14.1L10.4,414.1z M-37.7,366.5c-6.5,2.9-11,6.9-15,12.6l13.3-0.7
	C-38.9,372.5-38.1,368.6-37.7,366.5"/>
<path class="st3" d="M-62.4,483.5c5.4-0.9,10.6-5.1,10.6-11.5c0-5.8-2.5-12.1-19.4-12.1h-28.6v0.5c0.9,0.3,2.2,1,3.1,1.9
	c1.9,1.9,2.6,4.7,2.7,8.5v42.9h23.7c13,0,22.5-5,22.5-16.4C-47.8,487.9-55,484-62.4,483.5 M-74.6,465c6.1,0,10.2,1.3,10.2,7.8
	c0,6.9-5.5,8.8-11.8,8.8h-5.4V465L-74.6,465L-74.6,465z M-74,508.5h-7.7v-21.9h7.3c10,0,13.9,3,13.9,10.5
	C-60.5,505.2-65.5,508.5-74,508.5"/>
<path class="st3" d="M-120.9,513.6h15.5l-19.7-25.2c7.9-2.1,13.8-6.4,13.8-14.3c0-9.2-5.5-14.1-20-14.1h-29.9v0.5
	c1.1,0.4,2.3,1.1,3.1,1.9c2.1,2.1,2.7,5.2,2.7,9.5v41.9h12.4V490h4.5 M-143,465h8.3c7,0,10.6,2,10.6,9.4c0,6.6-4.7,10.5-12.4,10.5
	h-6.6L-143,465L-143,465z"/>
<path class="st3" d="M2.3,467.3c3.3,1.9,4.3,4.3,4.3,4.4c0.2,0.2,0.5,0.1,0.5,0.1l2.7-9.2c0,0-4.8-3.5-16.4-3.5
	c-17.4,0-30.5,8.8-30.5,28c0,21.7,15.6,27.3,29.3,27.3c12.8,0,17.8-4.1,17.8-4.1V504c0,0-4.5,4.2-14.2,4.2c-8,0-19.7-3.6-20-21.5
	c-0.2-16.4,6.9-21.8,16.6-21.8C-2.2,465,0.5,466.2,2.3,467.3"/>
<path class="st4" d="M40.4,518c0-4.4,3.6-7.7,7.8-7.7s7.8,3.3,7.8,7.7c0,4.5-3.6,7.7-7.8,7.7C43.9,525.7,40.4,522.5,40.4,518
	 M48.2,524.4c3.5,0,6.3-2.7,6.3-6.4c0-3.7-2.8-6.4-6.3-6.4s-6.3,2.7-6.3,6.4C41.9,521.7,44.7,524.4,48.2,524.4 M46.6,522.5h-1.3
	v-8.9h3.4c2.1,0,3.1,0.8,3.1,2.5c0,1.6-1,2.3-2.3,2.4l2.5,3.9h-1.5l-2.3-3.9h-1.6L46.6,522.5L46.6,522.5z M48.2,517.5
	c1.1,0,2.2-0.1,2.2-1.4c0-1.1-1-1.3-1.9-1.3h-1.8v2.8L48.2,517.5L48.2,517.5z"/>
</svg>
