<svg width="145" height="100" viewBox="0 0 145 100" fill="none" xmlns="http://www.w3.org/2000/svg">
<path fill-rule="evenodd" clip-rule="evenodd" d="M0 50.5114C0 45.9597 3.349 43.0091 7.50637 43.0091C11.3173 43.0091 14.4122 45.3193 14.828 49.2077H10.9709C10.6013 47.1034 9.12313 46.3028 7.50637 46.3028C5.63555 46.3028 3.83402 47.7438 3.83402 50.5343C3.83402 53.3248 5.63555 54.7429 7.50637 54.7429C9.12313 54.7429 10.6013 53.9652 10.9709 51.8381H14.828C14.4122 55.7264 11.3173 58.0366 7.50637 58.0366C3.349 58.0137 0 55.0631 0 50.5114Z" fill="#0056FF"/>
<path fill-rule="evenodd" clip-rule="evenodd" d="M15.6826 50.5114C15.6826 45.9597 19.0546 43.0091 23.4199 43.0091C27.7851 43.0091 31.1572 45.9597 31.1572 50.5114C31.1572 55.0631 27.7851 58.0137 23.4199 58.0137C19.0546 58.0137 15.6826 55.0631 15.6826 50.5114ZM27.3001 50.5114C27.3001 47.7209 25.4755 46.28 23.4199 46.28C21.3412 46.28 19.5165 47.7209 19.5165 50.5114C19.5165 53.3019 21.3412 54.72 23.4199 54.72C25.4755 54.7429 27.3001 53.3019 27.3001 50.5114Z" fill="#0056FF"/>
<path fill-rule="evenodd" clip-rule="evenodd" d="M31.7115 53.9424C31.7115 51.0375 33.4669 49.8024 38.2248 49.2077C40.6037 48.8875 41.2042 48.7274 41.2042 47.7438C41.2042 46.7145 40.3035 46.0512 38.7791 46.0512C36.9545 46.0512 36.1461 46.9204 36.0768 48.247H32.3352C32.3583 44.9991 35.0144 42.9863 38.7329 42.9863C42.3129 42.9863 44.9459 44.2443 44.9459 48.3843V53.0732C44.9459 54.8573 44.9921 56.0467 45.1999 57.6478H41.5276C41.389 57.0073 41.3197 56.2983 41.2966 55.3376C40.5344 56.7786 38.8484 57.9909 36.377 57.9909C33.5131 58.0137 31.7115 56.4812 31.7115 53.9424ZM41.2042 51.0833C40.5113 51.3577 39.5181 51.5407 38.2709 51.7008C36.2153 51.9982 35.4993 52.5929 35.4993 53.6679C35.4993 54.5371 36.0306 55.1546 37.4395 55.1546C39.1948 55.1546 41.2042 53.645 41.2042 51.0833Z" fill="#0056FF"/>
<path fill-rule="evenodd" clip-rule="evenodd" d="M45.9159 52.8673H49.6113C49.8654 54.4913 50.8816 55.0174 52.5446 55.0174C54.0459 55.0174 54.8773 54.5142 54.8773 53.6679C54.8773 52.6844 54.1614 52.3184 51.8055 52.0668C47.4865 51.5636 46.2161 50.0769 46.2161 47.5151C46.2161 44.8618 48.6413 43.0091 52.1058 43.0091C55.6626 43.0091 57.7875 44.6102 58.1571 47.9726H54.4847C54.3692 46.7374 53.5147 46.1199 52.1058 46.1199C50.7662 46.1199 49.9116 46.6002 49.9116 47.4693C49.9116 48.4071 50.6969 48.7045 52.8449 49.0476C57.418 49.7795 58.5959 51.2662 58.5959 53.645C58.5959 55.8866 56.7482 58.0595 52.5677 58.0595C47.9715 58.0137 46.1469 56.0467 45.9159 52.8673Z" fill="#0056FF"/>
<path fill-rule="evenodd" clip-rule="evenodd" d="M61.021 52.387V46.5544H58.7114V43.3294H61.021V39.4867H64.7627V43.3522H68.8046V46.6002H64.7627V51.9982C64.7627 54.2855 65.6634 54.6972 66.8644 54.6972C67.6035 54.6972 68.204 54.5828 68.8738 54.3312V57.6706C68.1117 57.8765 67.3957 58.0366 66.1484 58.0366C62.7533 58.0137 61.021 56.6414 61.021 52.387Z" fill="#0056FF"/>
<path fill-rule="evenodd" clip-rule="evenodd" d="M69.4512 50.5114C69.4512 45.914 72.5462 43.0091 76.6343 43.0091C80.3528 43.0091 83.1475 45.2507 83.6325 48.979H81.2767C80.8609 46.3943 79.0363 45.0677 76.6574 45.0677C73.932 45.0677 71.8302 47.0348 71.8302 50.5343C71.8302 54.0339 73.932 56.0009 76.6574 56.0009C79.0363 56.0009 80.8609 54.6743 81.2767 52.0897H83.6325C83.1475 55.7951 80.3759 58.0595 76.6343 58.0595C72.5693 58.0137 69.4512 55.086 69.4512 50.5114Z" fill="#0056FF"/>
<path fill-rule="evenodd" clip-rule="evenodd" d="M84.2561 54.0339C84.2561 51.3349 85.896 50.0769 90.4691 49.505C93.7257 49.1162 94.4417 48.7502 94.4417 47.4465C94.4417 45.8454 93.0559 44.9991 90.9541 44.9991C88.7137 44.9991 87.3972 46.0512 87.1432 48.0412H84.8797C85.1107 44.9762 87.4434 43.0091 90.9541 43.0091C94.4417 43.0091 96.7282 44.3358 96.7282 47.7438V53.828C96.7282 55.2461 96.8206 56.5041 96.9592 57.7164H94.7419C94.6033 56.9387 94.511 56.0924 94.4879 54.5371C93.8412 56.1382 91.9011 58.0595 88.8292 58.0595C86.0576 58.0137 84.2561 56.527 84.2561 54.0339ZM94.4648 50.1683C93.6102 50.6944 92.3861 50.946 90.5384 51.1747C87.6975 51.5178 86.5658 52.2955 86.5658 53.8737C86.5658 55.3147 87.5358 56.161 89.2681 56.161C91.9704 56.161 94.4648 54.0796 94.4648 50.1683Z" fill="#0056FF"/>
<path fill-rule="evenodd" clip-rule="evenodd" d="M98.6453 43.3294H100.909V45.6395C101.994 43.9698 103.888 42.9863 106.221 42.9863C110.101 42.9863 113.104 45.914 113.104 50.4886C113.104 55.0631 110.124 57.9909 106.221 57.9909C103.888 57.9909 101.994 57.0302 100.909 55.4062V63H98.6453V43.3294ZM110.771 50.5114C110.771 47.0348 108.6 45.0448 105.805 45.0448C103.011 45.0448 100.863 47.0119 100.863 50.5114C100.863 54.011 103.011 55.978 105.805 55.978C108.6 55.978 110.771 54.011 110.771 50.5114Z" fill="#0056FF"/>
<path fill-rule="evenodd" clip-rule="evenodd" d="M113.912 39.7155C113.912 38.7777 114.628 38.0915 115.552 38.0915C116.499 38.0915 117.238 38.8005 117.238 39.7155C117.238 40.6075 116.499 41.3394 115.552 41.3394C114.628 41.3394 113.912 40.6075 113.912 39.7155ZM114.42 43.3294H116.684V57.6706H114.42V43.3294Z" fill="#0056FF"/>
<path fill-rule="evenodd" clip-rule="evenodd" d="M120.31 52.7072V45.365H117.631V43.3294H120.31V39.4867H122.619V43.3522H127.424V45.3879H122.619V52.57C122.619 55.269 123.636 55.978 125.229 55.978C126.061 55.978 126.823 55.8408 127.678 55.4748V57.5791C126.939 57.8307 126.084 58.0595 124.975 58.0595C121.765 58.0137 120.31 56.527 120.31 52.7072Z" fill="#0056FF"/>
<path fill-rule="evenodd" clip-rule="evenodd" d="M128.232 54.0339C128.232 51.3349 129.872 50.0769 134.445 49.505C137.702 49.1162 138.418 48.7502 138.418 47.4465C138.418 45.8454 137.032 44.9991 134.93 44.9991C132.69 44.9991 131.373 46.0512 131.119 48.0412H128.856C129.087 44.9762 131.419 43.0091 134.93 43.0091C138.418 43.0091 140.704 44.3358 140.704 47.7438V53.828C140.704 55.2461 140.796 56.5041 140.935 57.7164H138.718C138.579 56.9387 138.487 56.0924 138.464 54.5371C137.817 56.1382 135.877 58.0595 132.805 58.0595C130.033 58.0137 128.232 56.527 128.232 54.0339ZM138.441 50.1683C137.586 50.6944 136.362 50.946 134.514 51.1747C131.673 51.5178 130.542 52.2955 130.542 53.8737C130.542 55.3147 131.512 56.161 133.244 56.161C135.923 56.161 138.441 54.0796 138.441 50.1683Z" fill="#0056FF"/>
<path fill-rule="evenodd" clip-rule="evenodd" d="M142.667 38H145V57.6935H142.667V38Z" fill="#0056FF"/>
</svg>
