<?xml version="1.0" encoding="utf-8"?>
<!-- Generator: Adobe Illustrator 19.0.1, SVG Export Plug-In . SVG Version: 6.00 Build 0)  -->
<svg version="1.1" id="Layer_1" xmlns="http://www.w3.org/2000/svg" xmlns:xlink="http://www.w3.org/1999/xlink" x="0px" y="0px"
	 viewBox="102.1 352.2 763 187" style="enable-background:new 102.1 352.2 763 187;" xml:space="preserve">
<style type="text/css">
	.st0{fill:none;}
	.st1{fill:#F58426;}
	.st2{fill:#777777;}
</style>
<rect id="backgroundrect" x="89" y="163.4" class="st0" width="792" height="612"/>
<g>
	<title>Layer 1</title>
	<g id="Layer_2">
	</g>
	<g id="svg_1">
		<polygon id="svg_2" class="st1" points="102.1,354.6 102.1,377 140.2,377 140.2,475.4 163.8,475.4 163.8,377 201.9,377 
			201.9,354.6 		"/>
		<g id="svg_3">
			<path id="svg_4" class="st1" d="M214.3,457.5c11.3,0,20.2-8.7,20.2-23.6c0-14.7-8.9-22.9-20.2-22.9s-20.4,8.3-20.4,23
				C193.9,448.8,202.6,457.5,214.3,457.5 M256.1,475.4h-21.4v-9.5c-3.7,6.5-12.1,11.5-23,11.5c-23.4,0-40.1-18.4-40.1-43.3
				c0-24,16.2-42.9,39.4-42.9c14.2,0,20.8,5.8,23.2,10.2v-8.2h21.9L256.1,475.4L256.1,475.4z"/>
			<path id="svg_5" class="st1" d="M287.8,475.4h-22.3v-82.1h21.5v10.2c5-8.5,14.9-12.4,23.7-12.4c20.4,0,29.7,14.5,29.7,32.5v51.8
				h-22.2v-47.9c0-9.1-4.5-16.3-15.2-16.3c-9.7,0-15.4,7.5-15.4,17.1L287.8,475.4L287.8,475.4L287.8,475.4z"/>
			<path id="svg_6" class="st1" d="M409.8,431.8c0-12.7-8.7-20.7-19.4-20.7c-11,0-19.7,8-19.7,20.7c0,12.8,8.2,20.8,19.7,20.8
				C401.8,452.7,409.8,444.5,409.8,431.8 M368.4,474.6c1.5,9,8.7,15.6,19.2,15.6c14,0,21.9-7,21.9-22.8v-6
				c-3.3,5.4-11,10.6-22.9,10.6c-21.9,0-38.2-16.9-38.2-39.9c0-21.7,15.7-40.1,38.2-40.1c13,0,20.6,5.7,23.4,11.2v-9.7h21.4v73.3
				c0,22.5-12.2,43.1-43.1,43.1c-22.5,0-37.6-14-39.9-29.7L368.4,474.6z"/>
			<path id="svg_7" class="st1" d="M498.1,425c-0.4-8.2-5.7-16.2-18.4-16.2c-11.5,0-17.9,8.7-18.4,16.2H498.1z M518.8,451.8
				c-4.1,14.2-17.2,26-37.4,26c-22.5,0-42.4-16.2-42.4-43.9c0-26.2,19.3-43.3,40.5-43.3c25.4,0,40.5,16.2,40.5,42.6
				c0,3.2-0.3,6.5-0.3,6.9h-58.7c0.5,10.8,9.7,18.7,20.7,18.7c10.4,0,16-5.2,18.7-12.5L518.8,451.8z"/>
		</g>
		<rect id="svg_8" x="585.4" y="393.2" class="st1" width="22.2" height="82.1"/>
		<g id="svg_9">
			<path id="svg_10" class="st1" d="M639.5,475.4h-22.3v-82.1h21.6v10.2c5-8.5,14.9-12.4,23.7-12.4c20.4,0,29.7,14.5,29.7,32.5v51.8
				H670v-47.9c0-9.1-4.5-16.3-15.2-16.3c-9.7,0-15.4,7.5-15.4,17.1L639.5,475.4L639.5,475.4z"/>
			<path id="svg_11" class="st1" d="M759,425c-0.4-8.2-5.7-16.2-18.4-16.2c-11.5,0-17.8,8.7-18.4,16.2H759z M779.7,451.8
				c-4.1,14.2-17.2,26-37.4,26c-22.5,0-42.4-16.2-42.4-43.9c0-26.2,19.3-43.3,40.5-43.3c25.4,0,40.5,16.2,40.5,42.6
				c0,3.2-0.3,6.5-0.3,6.9h-58.7c0.5,10.8,9.7,18.7,20.7,18.7c10.4,0,16-5.2,18.7-12.5L779.7,451.8z"/>
			<path id="svg_12" class="st1" d="M610,365.7c0,7.4-6,13.5-13.5,13.5s-13.5-6-13.5-13.5s6-13.5,13.5-13.5
				C604,352.2,610,358.3,610,365.7"/>
			<path id="svg_13" class="st1" d="M577.7,414.7c-2.5-0.5-4.7-0.7-6.7-0.7c-11.3,0-21.2,5.5-21.2,23.2v38.1h-22.3v-82.1H549v12.7
				c5-10.8,16.4-14,23.4-14c1.8,0,3.5,0.2,5.2,0.4L577.7,414.7L577.7,414.7z"/>
			<path id="svg_14" class="st1" d="M864.4,357.8c1,1.9,0.9,4.3-0.3,6.2l-41.8,65.2c-1,1.7-3.2,2.4-5,1.6c-1.9-0.8-3-2.7-2.5-4.6
				c2.4-9.5,5.1-26-2.5-39.9s-22.9-20.5-32.2-23.7c-1.9-0.7-2.9-2.6-2.5-4.6c0.4-2,2.1-3.4,4.1-3.4h77.4
				C861.3,354.6,863.3,355.9,864.4,357.8"/>
		</g>
	</g>
	<g id="svg_15">
		<polygon id="svg_16" class="st2" points="453.7,530.5 453.7,499.8 472.4,499.8 472.4,503.8 458,503.8 458,513.6 471.1,513.6 
			471.1,517.6 458,517.6 458,530.5 		"/>
		<g id="svg_17">
			<path id="svg_18" class="st2" d="M491.1,520.1c0-4.8-3-7.4-6.5-7.4s-6.5,2.5-6.5,7.4s3,7.4,6.5,7.4
				C488.1,527.5,491.1,524.9,491.1,520.1 M495.3,520.1c0,6.3-4.4,11-10.7,11s-10.7-4.7-10.7-11s4.4-11,10.7-11
				C491,509.1,495.3,513.8,495.3,520.1"/>
			<path id="svg_19" class="st2" d="M511.2,513.8c-0.6-0.1-1.2-0.1-1.8-0.1c-3.4,0-5.8,1.8-5.8,6.4v10.5h-4.1v-20.8h4v3.7
				c1.5-3.2,4.1-4,6.2-4c0.6,0,1.1,0.1,1.3,0.1L511.2,513.8L511.2,513.8L511.2,513.8z"/>
		</g>
		<polygon id="svg_20" class="st2" points="532.5,509.7 537.9,525.4 542.5,509.7 546.8,509.7 540.1,530.5 535.8,530.5 530.4,514.6 
			524.9,530.5 520.7,530.5 513.8,509.7 518.3,509.7 522.9,525.4 528.4,509.7 		"/>
		<g id="svg_21">
			<path id="svg_22" class="st2" d="M559,527.5c3.7,0,6-3.2,6-7.5c0-4.2-2.3-7.3-5.9-7.3c-3.7,0-6.1,2.9-6.1,7.3
				C552.9,524.2,555.1,527.5,559,527.5 M565.1,527.4c-1,2-3.2,3.7-6.4,3.7c-6.1,0-9.9-4.9-9.9-11.1c0-5.8,4-10.8,9.9-10.8
				c3.7,0,5.7,1.8,6.3,3.5v-2.9h4.1v17c0,1.9,0.2,3.5,0.2,3.9h-4c-0.1-0.5-0.2-1.5-0.2-2.8L565.1,527.4L565.1,527.4z"/>
			<path id="svg_23" class="st2" d="M587.2,513.8c-0.6-0.1-1.2-0.1-1.8-0.1c-3.4,0-5.8,1.8-5.8,6.4v10.5h-4.1v-20.8h4v3.7
				c1.5-3.2,4.1-4,6.2-4c0.6,0,1.1,0.1,1.3,0.1L587.2,513.8L587.2,513.8z"/>
			<path id="svg_24" class="st2" d="M599.9,527.5c3.7,0,6-3.2,6-7.5c0-4.2-2.3-7.3-5.9-7.3s-6.1,3-6.1,7.4
				C593.7,524.3,596,527.5,599.9,527.5 M605.9,527.4c-1,2-3.2,3.7-6.4,3.7c-6.1,0-9.9-4.8-9.9-11c0-5.8,4-10.9,9.9-10.9
				c3.7,0,5.7,1.8,6.3,3.5v-13.4h4.1v27.4c0,2,0.2,3.5,0.2,3.9h-4c-0.1-0.5-0.2-1.5-0.2-2.8L605.9,527.4L605.9,527.4z"/>
			<path id="svg_25" class="st2" d="M638.1,526.8c3.4,0,5.8-1.9,5.8-4.9c0-2.9-1.9-5-5.6-5h-6v9.9H638.1L638.1,526.8z M637.5,513.2
				c3.4,0,5.5-2.1,5.5-4.9c0-2.9-2.1-4.8-5.7-4.8h-5.1v9.7H637.5L637.5,513.2z M638,499.8c5.8,0,9.2,3.5,9.2,8.3
				c0,3.3-1.9,5.7-4.6,6.6c3.5,0.8,5.6,4,5.6,7.4c0,4.8-3.9,8.4-9.4,8.4H628v-30.6L638,499.8L638,499.8z"/>
			<path id="svg_26" class="st2" d="M662.3,527.5c3.7,0,6-3.2,6-7.5c0-4.2-2.3-7.3-5.9-7.3s-6.1,2.9-6.1,7.3
				C656.3,524.2,658.4,527.5,662.3,527.5 M668.3,527.4c-1,2-3.2,3.7-6.4,3.7c-6.1,0-9.9-4.9-9.9-11.1c0-5.8,4-10.8,9.9-10.8
				c3.7,0,5.7,1.8,6.3,3.5v-2.9h4.1v17c0,1.9,0.2,3.5,0.2,3.9h-4c-0.1-0.5-0.2-1.5-0.2-2.8L668.3,527.4L668.3,527.4z"/>
			<path id="svg_27" class="st2" d="M683,530.5H679v-20.8h4v3c1.5-2.6,4-3.6,6.4-3.6c5,0,7.4,3.6,7.4,8.2v13.2h-4.1V518
				c0-2.9-1.2-5.2-4.8-5.2c-3.2,0-4.8,2.5-4.8,5.8L683,530.5L683,530.5z"/>
		</g>
		<polygon id="svg_28" class="st2" points="713,518.5 722.1,530.5 717,530.5 710.2,521.3 707.3,524.2 707.3,530.5 703.3,530.5 
			703.3,499.2 707.3,499.2 707.3,518.9 716.3,509.7 721.9,509.7 		"/>
		<g id="svg_29">
			<path id="svg_30" class="st2" d="M725.9,509.7h4.1v20.8h-4.1V509.7z M727.9,498.9c1.6,0,2.9,1.3,2.9,2.9s-1.3,2.9-2.9,2.9
				c-1.6,0-2.9-1.3-2.9-2.9C725.1,500.2,726.4,498.9,727.9,498.9"/>
			<path id="svg_31" class="st2" d="M740.9,530.5h-4.1v-20.8h4v3c1.5-2.6,4-3.6,6.4-3.6c5,0,7.4,3.6,7.4,8.2v13.2h-4.1V518
				c0-2.9-1.2-5.2-4.8-5.2c-3.2,0-4.8,2.5-4.8,5.8L740.9,530.5L740.9,530.5z"/>
			<path id="svg_32" class="st2" d="M775.8,519.4c0-4.1-2.5-6.7-5.9-6.7c-3.6,0-6,2.6-6,6.7c0,4.1,2.4,6.7,6,6.7
				C773.4,526,775.8,523.4,775.8,519.4 M763.7,530.7c0.3,2.9,2.5,5.1,5.7,5.1c4.3,0,6.3-2.3,6.3-6.8v-3c-1,1.9-3.2,3.4-6.3,3.4
				c-5.6,0-9.5-4.2-9.5-10.1c0-5.7,3.9-10.1,9.5-10.1c3.2,0,5.4,1.2,6.4,3.3v-2.9h4.1v19.2c0,5.3-2.6,10.5-10.5,10.5
				c-5.2,0-9.1-3.3-9.6-7.7L763.7,530.7z"/>
		</g>
	</g>
</g>
</svg>
