<?xml version="1.0" encoding="utf-8"?>
<!-- Generator: Adobe Illustrator 19.0.1, SVG Export Plug-In . SVG Version: 6.00 Build 0)  -->
<svg version="1.1" id="Layer_1" xmlns="http://www.w3.org/2000/svg" xmlns:xlink="http://www.w3.org/1999/xlink" x="0px" y="0px"
	 viewBox="109 366.7 765 100.9" style="enable-background:new 109 366.7 765 100.9;" xml:space="preserve">
<style type="text/css">
	.st0{fill:none;}
	.st1{fill:#0079C1;}
	.st2{fill:#4D4D4D;}
</style>
<rect id="backgroundrect" x="-13.9" y="22.3" class="st0" width="1032" height="797.5"/>
<g>
	<title>Layer 1</title>
	<path id="svg_1" class="st1" d="M144.4,439.1l-6.8,24.8H115l29.4-97h28.8l30.2,97h-23.7l-7.4-24.8H144.4 M168.9,422.6l-6-20.5
		c-1.7-5.7-3.4-12.8-4.9-18.8h-0.3c-1.4,5.7-2.9,13.1-4.6,18.8l-5.7,20.5H168.9 M182.3,366.9l5.7,18.3h23.1v78.5h22v-78.5h25.1v78.2
		c4.9,0.9,12.8,1.4,23.7,1.4c19.4,0,31.1-3.1,38.2-8.8c6-4.9,10-11.7,10-20.8c0-12.3-7.7-20.8-18.8-23.7v-0.3
		c10.8-4.3,15.4-11.7,15.4-20c0-8.8-4.9-15.4-11.4-19.1c-7.1-4.3-15.4-5.4-28.5-5.4H182.3V366.9z M279.9,385.5h9.4
		c10,0,15.1,3.4,15.1,10.8c0,7.1-5.7,8.8-17.4,8.8h-7.1L279.9,385.5 M288.2,448.5c-3.7,0-6.3,0-8.6-0.3v-27.4h7.4
		c10.8,0,19.7,4,19.7,13.4C307,444.8,298.2,448.5,288.2,448.5"/>
	<path id="svg_2" class="st2" d="M361,369.1h52.2v10.6h-39.7v32.2h36.5v10.3h-36.5v43.9H361L361,369.1 M442.7,376.8
		c0,4.3-3.1,7.7-8,7.7c-4.6,0-7.7-3.4-7.7-7.7c0-4.3,3.1-8,8-8C439.2,368.8,442.7,372.2,442.7,376.8 M428.4,466.1v-69.6h12.6v69.6
		H428.4 M456.4,415.3c0-7.4-0.3-13.1-0.6-18.8h11.1l0.9,11.4h0.3c3.4-6.6,11.4-12.8,23.1-12.8c9.7,0,24.5,5.7,24.5,29.7v41.4h-12.6
		v-40.2c0-11.1-4.3-20.5-16-20.5c-8.3,0-14.6,6-17.1,12.8c-0.6,1.7-0.9,3.7-0.9,6v41.9h-12.6v-50.8L456.4,415.3L456.4,415.3
		L456.4,415.3z M579.3,449.3c0,6,0.3,12,1.1,16.8h-11.4l-1.1-8.8h-0.6c-4,5.4-11.4,10.3-21.4,10.3c-14,0-21.4-10-21.4-20
		c0-16.8,14.8-26,41.9-26v-1.4c0-5.7-1.7-16.3-15.7-16c-6.6,0-13.4,2-18.3,5.1l-2.9-8.6c5.7-3.7,14.3-6,23.1-6
		c21.4,0,26.5,14.6,26.5,28.2L579.3,449.3 M567.1,430.4c-13.7-0.3-29.4,2.3-29.4,15.7c0,8.3,5.4,12,11.7,12
		c9.1,0,15.1-5.7,17.1-11.7c0.6-1.4,0.6-2.9,0.6-4V430.4 M592.8,415.3c0-7.4-0.3-13.1-0.6-18.8h11.1l0.9,11.4h0.3
		c3.4-6.6,11.4-12.8,23.1-12.8c9.7,0,24.5,5.7,24.5,29.7v41.4h-12.6v-40.2c0-11.1-4.3-20.5-16.3-20.5c-8.3,0-14.6,6-17.1,12.8
		c-0.6,1.7-0.9,3.7-0.9,6v41.9h-12.6L592.8,415.3 M716.3,463.5c-3.4,1.7-10.6,4-20,4c-21.1,0-34.8-14.3-34.8-35.7
		s14.6-37.1,37.4-37.1c7.4,0,14,2,17.7,3.7l-2.9,9.7c-3.1-1.7-7.7-3.4-14.6-3.4c-16,0-24.5,12-24.5,26.3c0,16.3,10.3,26,24.3,26
		c7.1,0,12-1.7,15.7-3.4L716.3,463.5 M742.6,376.8c0,4.3-3.1,7.7-8,7.7c-4.6,0-7.7-3.4-7.7-7.7c0-4.3,3.1-8,8-8
		C739.4,368.8,742.6,372.2,742.6,376.8 M728.3,466.1v-69.6h12.6v69.6H728.3 M806.8,449.3c0,6,0.3,12,1.1,16.8h-11.4l-1.1-8.8h-0.6
		c-4,5.4-11.4,10.3-21.4,10.3c-14,0-21.4-10-21.4-20c0-16.8,14.8-26,41.9-26v-1.4c0-5.7-1.7-16.3-15.7-16c-6.6,0-13.4,2-18.3,5.1
		l-2.9-8.6c5.7-3.7,14.3-6,23.1-6c21.4,0,26.5,14.6,26.5,28.2L806.8,449.3 M794.5,430.4c-13.7-0.3-29.4,2.3-29.4,15.7
		c0,8.3,5.4,12,11.7,12c9.1,0,15.1-5.7,17.1-11.7c0.3-1.4,0.6-2.9,0.6-4L794.5,430.4 M821.3,369.1h12.6v97h-12.6V369.1 M844.7,370.8
		v-2h9.4v2h-3.7v9.1h-2.3v-9.1H844.7 M859.3,368.8l2.9,8l2.9-8h3.1v11.1h-2v-8.8l-3.1,8.8h-1.7l-3.1-8.8v8.8h-2v-11.1H859.3"/>
</g>
</svg>
