<svg width="394" height="100" fill="none" xmlns="http://www.w3.org/2000/svg">
  <g clip-path="url(#a)" fill-rule="evenodd" clip-rule="evenodd">
    <path d="M59.015 74.344a21.423 21.423 0 0 1-13.9 4.508c-14.308 0-23.806-10.957-23.806-28.38 0-17.703 9.403-28.518 23.805-28.518a21.73 21.73 0 0 1 13.15 3.928l10.687-14.507C62.305 6.929 55.79 4.188 43.156 4.188 15.67 4.188 0 22.755 0 50.472 0 78.9 16.389 96.618 43.156 96.618c17.083 0 23.71-5.853 26.75-7.936l-10.89-14.338ZM252.817 74.202a22.037 22.037 0 0 1-14.102 4.698c-14.308 0-23.806-10.958-23.806-28.38 0-17.703 9.482-28.519 23.806-28.519a21.751 21.751 0 0 1 13.146 3.929l10.69-14.508c-6.646-4.445-13.166-7.187-25.795-7.187-27.438 0-43.16 18.567-43.16 46.284 0 28.428 16.393 46.146 43.16 46.146 17.08 0 23.71-5.853 26.751-7.936l-10.69-14.527ZM150.863 5.817c19.698 0 30.104 7.905 30.104 22.854 0 10.816-7.037 16.37-13.806 19.127l-.047.185c7.929 2.256 17.237 7.404 17.237 21.572 0 16.433-12.143 25.481-34.179 25.481h-31.34V5.817h32.031Zm-2.666 50.481h-8.648v23.103h8.901c8.98 0 14.951-3.523 14.951-11.285 0-8.22-5.923-11.818-15.204-11.818Zm0-35.642h-8.648v20.708h8.115c7.839 0 13.494-3.131 13.494-10.251 0-4.777-2.914-10.457-12.961-10.457ZM79.092 95.036H99.73V5.817H79.092v89.22ZM359.694 3.876A9.4 9.4 0 0 0 351.701.01h-33.223a9.398 9.398 0 0 1 8.071 3.976c3.353 4.462 34.243 46.486 34.243 46.486s-30.89 42.012-34.243 46.489a9.404 9.404 0 0 1-8.071 3.96h33.223a9.4 9.4 0 0 0 7.993-3.85L394 50.471 359.694 3.877Z" fill="#C41F3E"/>
    <path d="M335.091 15.522c-4.214-5.696-7.539-10.205-8.542-11.538a9.402 9.402 0 0 0-8.068-3.976 9.419 9.419 0 0 0-8.009 3.87l-34.305 46.595 34.305 46.584a9.412 9.412 0 0 0 8.009 3.85 9.398 9.398 0 0 0 8.068-3.96l8.542-11.553-25.716-34.92 25.716-34.952Z" fill="#8B1D41"/>
  </g>
  <defs>
    <clipPath id="a">
      <path fill="#fff" d="M0 0h394v100H0z"/>
    </clipPath>
  </defs>
</svg>