<svg width="24" height="24" viewBox="0 0 24 24" fill="none" xmlns="http://www.w3.org/2000/svg">
<mask id="mask0_1251_4156" style="mask-type:alpha" maskUnits="userSpaceOnUse" x="4" y="2" width="16" height="20">
<path fill-rule="evenodd" clip-rule="evenodd" d="M12 2C7.58172 2 4 5.58172 4 10C4 14.235 11.1198 21.3315 11.6312 21.8412L11.65 21.86C11.8465 22.0454 12.1535 22.0454 12.35 21.86L12.3688 21.8412C12.8802 21.3315 20 14.235 20 10C20 5.58172 16.4183 2 12 2ZM12 20.79C10.54 19.29 5 13.39 5 10C5 6.13401 8.13401 3 12 3C15.866 3 19 6.13401 19 10C19 13.39 13.46 19.29 12 20.79ZM12 6C9.79086 6 8 7.79086 8 10C8 12.2091 9.79086 14 12 14C14.2091 14 16 12.2091 16 10C16 8.93913 15.5786 7.92172 14.8284 7.17157C14.0783 6.42143 13.0609 6 12 6ZM12 13C10.3431 13 9 11.6569 9 10C9 8.34315 10.3431 7 12 7C13.6569 7 15 8.34315 15 10C15 10.7956 14.6839 11.5587 14.1213 12.1213C13.5587 12.6839 12.7956 13 12 13Z" fill="white"/>
</mask>
<g mask="url(#mask0_1251_4156)">
<rect width="24" height="24" fill="white"/>
</g>
</svg>
