<svg width="24" height="24" viewBox="0 0 24 24" fill="none" xmlns="http://www.w3.org/2000/svg">
<mask id="mask0_1105_5152" style="mask-type:alpha" maskUnits="userSpaceOnUse" x="1" y="2" width="21" height="20">
<path fill-rule="evenodd" clip-rule="evenodd" d="M14.7249 15.1479L13.3754 16.8518C10.8397 15.3552 8.70247 13.2687 7.14537 10.7696L8.82914 9.29629C9.92242 8.2133 10.0872 6.54068 9.24449 5.29053L7.55307 2.80843C7.24726 2.36685 6.76654 2.08366 6.23583 2.03059C5.70512 1.97752 5.17784 2.15991 4.79335 2.52956C3.00117 4.31822 1.9978 6.73732 1.9978 9.26C1.9978 11.7827 3.00117 14.2018 4.78667 15.9839L8.01854 19.1757C9.79811 20.9587 12.2172 21.9621 14.7399 21.9621C17.2626 21.9621 19.6817 20.9587 21.4638 19.1732C21.84 18.782 22.0224 18.2548 21.9693 17.7241C21.9162 17.1933 21.633 16.7126 21.1946 16.409L18.7068 14.7537C17.4592 13.9127 15.7866 14.0775 14.7249 15.1479ZM6.17063 10.2937C5.98941 10.4523 5.94696 10.7175 6.06964 10.9247C7.80451 13.855 10.2838 16.2741 13.2558 17.9364C13.4702 18.0563 13.7399 18.0027 13.8922 17.8099L15.4722 15.8099C16.1585 15.1226 17.2984 15.0103 18.1504 15.5846L20.6329 17.2363C20.8228 17.3679 20.9503 17.5844 20.9743 17.8236C20.9982 18.0627 20.916 18.3002 20.7494 18.4735C19.1615 20.0643 16.997 20.9621 14.7399 20.9621C12.4827 20.9621 10.3183 20.0643 8.72378 18.4668L5.49123 15.2742C3.89555 13.6816 2.9978 11.5171 2.9978 9.26C2.9978 7.00286 3.89555 4.83841 5.4931 3.24389C5.65965 3.08389 5.89721 3.00171 6.13632 3.02562C6.37543 3.04954 6.59202 3.17713 6.72884 3.37468L8.4167 5.85156C8.9896 6.70148 8.87731 7.84142 8.14778 8.565L6.17063 10.2937Z" fill="white"/>
</mask>
<g mask="url(#mask0_1105_5152)">
<rect width="24" height="24" rx="4" fill="white"/>
</g>
</svg>
