<svg width="13" height="14" viewBox="0 0 13 14" fill="none" xmlns="http://www.w3.org/2000/svg">
<path d="M1.12508 13.854C1.81071 13.854 2.29064 13.5113 2.77058 13.2371C3.18195 13.0315 3.59333 12.7573 4.07327 12.5517C6.26726 11.3865 8.46126 10.1528 10.6553 8.91911C11.3409 8.57642 12.2322 8.23372 12.7121 7.61686C12.8493 7.41124 13.0549 7.13708 12.9864 6.79438C12.7807 6.04044 11.8208 5.76628 11.2038 5.42359C9.69538 4.60111 8.11845 3.71009 6.61008 2.88762C6.06158 2.54492 5.23883 1.92806 4.5532 2.40784C4.27895 2.54492 4.14183 2.682 4.07327 2.88762C4.0047 3.16178 4.07327 3.50447 4.07327 3.77863V5.9719C4.07327 6.58876 4.0047 7.06854 4.41608 7.3427C4.5532 7.41124 4.82745 7.47978 5.03314 7.41124C5.71876 7.13708 5.51308 5.90336 5.51308 4.94381V4.18987C6.67864 4.80673 7.8442 5.42359 9.00976 5.9719C9.42113 6.17752 10.1068 6.38314 10.2439 6.93146C10.381 7.54832 9.07832 8.0281 8.66695 8.23372L3.93614 10.9068C3.59333 11.1124 2.70202 11.7978 2.15352 11.5922C1.94783 11.5236 1.81071 11.318 1.81071 11.1809C1.74214 10.9068 1.74214 10.4955 1.74214 10.1528V7.95956V4.25841C1.74214 3.71009 1.67358 3.0247 1.87927 2.682C2.35921 1.9966 3.4562 3.23031 3.79902 2.13368C3.86758 1.85952 3.73045 1.58536 3.59333 1.44828C3.31908 1.03704 2.08496 0.420186 1.60502 0.283106C1.46789 0.214566 1.12508 0.146027 0.919395 0.146027C-0.246167 0.351646 0.0280832 2.20222 0.0280832 3.57301V10.3584C0.0280832 11.3865 -0.109042 12.7573 0.302333 13.3742C0.50802 13.7169 0.713707 13.7169 1.12508 13.854ZM4.69033 9.39889C5.71876 9.39889 5.78733 8.09664 4.82745 7.89102C4.27895 7.82248 3.86758 8.3708 4.0047 8.85057C4.14183 9.19327 4.34752 9.26181 4.69033 9.39889Z" fill="white"/>
</svg>
