<svg width="24" height="24" viewBox="0 0 24 24" fill="none" xmlns="http://www.w3.org/2000/svg">
<mask id="mask0_944_3895" style="mask-type:alpha" maskUnits="userSpaceOnUse" x="2" y="3" width="20" height="17">
<path fill-rule="evenodd" clip-rule="evenodd" d="M21.5 5.99995C21.6787 5.99673 21.8444 6.09306 21.93 6.24995C22.0193 6.40465 22.0193 6.59525 21.93 6.74995L17.93 13.75C17.8412 13.9037 17.6776 13.9989 17.5 14H7.71L5.71 16H16.5C16.7761 16 17 16.2238 17 16.5C17 16.7761 16.7761 17 16.5 17H4.5C4.29815 16.9989 4.1167 16.8767 4.04 16.69C3.95622 16.5051 4.00058 16.2873 4.15 16.15L6.93 13.37L4.14 4.99995H2.5C2.22386 4.99995 2 4.7761 2 4.49995C2 4.22381 2.22386 3.99995 2.5 3.99995H4.5C4.72408 3.98826 4.9285 4.12727 5 4.33995L5.5 5.99995H21.5ZM7.86 13H17.21L20.64 6.99995H5.86L7.86 13ZM7 19C7 19.5522 6.55228 20 6 20C5.44772 20 5 19.5522 5 19C5 18.4477 5.44772 18 6 18C6.55228 18 7 18.4477 7 19ZM14 20C14.5523 20 15 19.5522 15 19C15 18.4477 14.5523 18 14 18C13.4477 18 13 18.4477 13 19C13 19.5522 13.4477 20 14 20Z" fill="white"/>
</mask>
<g mask="url(#mask0_944_3895)">
<rect width="24" height="24" fill="white"/>
</g>
</svg>
