<svg xmlns="http://www.w3.org/2000/svg" width="110" height="36" viewBox="0 0 110 36">
    <g fill="none" fill-rule="evenodd">
        <path d="M0 0h109.692v36H0z"/>
        <path fill="#A6A6A6" d="M100.957 0H8.74c-.336 0-.668 0-1.004.002-.28.002-.559.007-.842.011-.615.008-1.23.06-1.837.159a6.24 6.24 0 0 0-1.743.564 5.914 5.914 0 0 0-1.483 1.061 5.649 5.649 0 0 0-1.08 1.46A5.86 5.86 0 0 0 .18 4.968 11.433 11.433 0 0 0 .014 6.77c-.009.276-.01.553-.014.829v20.803c.004.28.005.55.014.83.007.604.062 1.206.165 1.802.1.595.293 1.174.572 1.713a5.582 5.582 0 0 0 1.08 1.453c.434.43.934.787 1.483 1.061.55.274 1.137.465 1.743.568.608.097 1.222.151 1.837.16.283.005.562.01.842.01h94.215c.28 0 .565-.005.845-.01a12.507 12.507 0 0 0 1.833-.16 6.349 6.349 0 0 0 1.75-.568 5.757 5.757 0 0 0 1.481-1.061 5.732 5.732 0 0 0 1.084-1.453c.277-.539.468-1.117.567-1.713.102-.596.16-1.198.17-1.802.003-.28.003-.55.003-.83.008-.327.008-.652.008-.984V8.582c0-.329 0-.656-.008-.982 0-.276 0-.553-.002-.83a12.023 12.023 0 0 0-.17-1.801 5.858 5.858 0 0 0-.568-1.713 5.878 5.878 0 0 0-2.566-2.52 6.311 6.311 0 0 0-1.749-.564 12.146 12.146 0 0 0-1.833-.158c-.28-.005-.566-.01-.845-.012-.33-.002-.665-.002-.994-.002"/>
        <path fill="#000" d="M7.741 35.213c-.28 0-.552-.004-.829-.01a12.002 12.002 0 0 1-1.713-.147 5.45 5.45 0 0 1-1.519-.493 4.946 4.946 0 0 1-1.28-.914 4.824 4.824 0 0 1-.936-1.258 5.124 5.124 0 0 1-.498-1.49 10.968 10.968 0 0 1-.152-1.688C.808 29.023.8 28.39.8 28.39V7.601s.008-.624.014-.806C.82 6.23.872 5.667.965 5.11c.088-.52.256-1.024.499-1.496.239-.465.552-.891.93-1.258.377-.371.81-.682 1.285-.92a5.396 5.396 0 0 1 1.516-.49C5.764.856 6.34.806 6.915.8L7.74.788h94.205l.837.01c.571.008 1.14.057 1.704.147a5.469 5.469 0 0 1 1.53.494 5.078 5.078 0 0 1 2.215 2.178c.239.467.405.967.49 1.484.095.561.15 1.128.16 1.698.002.255.002.528.002.801.008.338.008.659.008.983v18.836c0 .327 0 .646-.008.967 0 .293 0 .561-.003.837-.01.56-.063 1.116-.156 1.668a5.136 5.136 0 0 1-.495 1.503c-.242.461-.557.882-.932 1.248a4.949 4.949 0 0 1-1.283.92c-.481.239-.996.406-1.528.494-.567.091-1.14.14-1.714.147-.269.006-.55.01-.822.01l-.994.002-93.216-.002z"/>
        <path fill="#FFF" d="M22.705 18.27a4.436 4.436 0 0 1 2.16-3.736 4.667 4.667 0 0 0-3.659-1.942c-1.539-.159-3.031.904-3.816.904-.8 0-2.007-.888-3.307-.862a4.884 4.884 0 0 0-4.1 2.455c-1.773 3.013-.452 7.442 1.247 9.879.85 1.192 1.843 2.525 3.142 2.477 1.272-.052 1.747-.795 3.281-.795 1.52 0 1.966.795 3.292.766 1.364-.023 2.224-1.198 3.044-2.402.61-.851 1.08-1.79 1.392-2.784-1.621-.672-2.674-2.232-2.676-3.96M20.2 10.99a4.334 4.334 0 0 0 1.023-3.142 4.575 4.575 0 0 0-2.94 1.494 4.13 4.13 0 0 0-1.05 3.025 3.784 3.784 0 0 0 2.968-1.377M34.888 23.032h3.439L36.63 18.13h-.047l-1.696 4.903zm3.889 1.394h-4.339l-1.042 3.02h-1.838l4.11-11.176h1.91l4.11 11.177h-1.87l-1.041-3.02zM48.812 23.373c0-1.65-.868-2.734-2.194-2.734-1.301 0-2.177 1.107-2.177 2.734 0 1.642.876 2.742 2.177 2.742 1.326 0 2.194-1.077 2.194-2.742m1.75 0c0 2.532-1.38 4.16-3.462 4.16a2.825 2.825 0 0 1-2.612-1.427h-.04v4.036h-1.702V19.3h1.649v1.355h.03a2.955 2.955 0 0 1 2.644-1.44c2.106 0 3.494 1.634 3.494 4.16M57.947 23.373c0-1.65-.868-2.734-2.194-2.734-1.301 0-2.177 1.107-2.177 2.734 0 1.642.876 2.742 2.177 2.742 1.326 0 2.194-1.077 2.194-2.742m1.75 0c0 2.532-1.38 4.16-3.462 4.16a2.824 2.824 0 0 1-2.612-1.427h-.04v4.036H51.88V19.3h1.65v1.355h.03a2.955 2.955 0 0 1 2.643-1.44c2.108 0 3.496 1.634 3.496 4.16M65.735 24.333c.126 1.108 1.223 1.836 2.722 1.836 1.435 0 2.468-.728 2.468-1.727 0-.868-.623-1.387-2.098-1.743l-1.475-.349c-2.09-.496-3.06-1.455-3.06-3.013 0-1.929 1.71-3.253 4.14-3.253 2.405 0 4.055 1.324 4.111 3.253h-1.72c-.103-1.116-1.042-1.79-2.415-1.79-1.371 0-2.31.682-2.31 1.674 0 .79.6 1.255 2.066 1.61l1.254.303c2.336.543 3.307 1.464 3.307 3.099 0 2.09-1.698 3.4-4.396 3.4-2.524 0-4.228-1.279-4.338-3.3h1.744zM76.401 17.37v1.929h1.579v1.324H76.4v4.492c0 .698.316 1.024 1.01 1.024.187-.004.374-.018.56-.04v1.318a4.91 4.91 0 0 1-.946.077c-1.68 0-2.335-.62-2.335-2.2v-4.67h-1.208v-1.325h1.207v-1.93H76.4zM85.03 23.373c0-1.758-.82-2.796-2.2-2.796-1.38 0-2.201 1.046-2.201 2.796 0 1.766.82 2.796 2.2 2.796 1.38 0 2.202-1.03 2.202-2.796m-6.137 0c0-2.564 1.537-4.175 3.936-4.175 2.406 0 3.937 1.611 3.937 4.175 0 2.57-1.524 4.175-3.937 4.175-2.414 0-3.936-1.604-3.936-4.175M88.171 19.299h1.624v1.386h.04a1.975 1.975 0 0 1 1.996-1.472c.196 0 .393.02.584.063v1.564a2.398 2.398 0 0 0-.765-.1c-.948-.038-1.747.684-1.785 1.615-.004.085-.001.173.01.26v4.832H88.17V19.3zM94.51 22.622h4.15c.06-1.081-.782-2.006-1.882-2.066a1.453 1.453 0 0 0-.154-.003c-1.161-.007-2.107.911-2.113 2.05v.019zm5.76 2.431c-.23 1.48-1.697 2.495-3.574 2.495-2.415 0-3.913-1.588-3.913-4.136 0-2.556 1.507-4.214 3.841-4.214 2.297 0 3.74 1.549 3.74 4.02v.573h-5.862v.1c-.105 1.168.773 2.198 1.963 2.302.089.008.18.01.27.007a1.883 1.883 0 0 0 1.917-1.147h1.617zM33.548 12.469h1.031c.948.055 1.763-.654 1.819-1.584a1.63 1.63 0 0 0-.015-.348c.13-.926-.53-1.78-1.474-1.907a1.838 1.838 0 0 0-.33-.013h-1.031v3.852zm1.126-4.611c1.333-.094 2.491.89 2.586 2.2.012.156.008.313-.012.468 0 1.716-.945 2.702-2.574 2.702h-1.976v-5.37h1.976zM41.263 11.2c0-.879-.402-1.392-1.108-1.392-.707 0-1.106.513-1.106 1.392 0 .885.399 1.395 1.106 1.395.706 0 1.108-.513 1.108-1.395m-3.056 0c-.102-1.056.686-1.993 1.76-2.094 1.076-.101 2.03.673 2.133 1.728.012.122.012.244 0 .366.105 1.056-.682 1.994-1.756 2.098-1.075.102-2.032-.67-2.137-1.726a1.946 1.946 0 0 1 0-.372M47.275 13.228h-.845l-.853-2.984h-.064l-.85 2.984h-.837l-1.138-4.053h.826l.74 3.093h.062l.847-3.093h.782l.85 3.093h.063l.736-3.093h.814zM49.366 9.175h.783v.644h.062a1.24 1.24 0 0 1 1.232-.722 1.336 1.336 0 0 1 1.439 1.216c.007.097.004.194-.011.292v2.623h-.814v-2.423c0-.651-.289-.974-.891-.974a.94.94 0 0 0-.985 1.026v2.371h-.815V9.175z"/>
        <path d="M0 36h109.692V0H0z"/>
        <path fill="#FFF" d="M54.17 13.228h.814V7.593h-.815zM59.172 11.2c0-.879-.402-1.392-1.108-1.392-.707 0-1.106.513-1.106 1.392 0 .885.399 1.395 1.106 1.395.706 0 1.108-.513 1.108-1.395m-3.056 0c-.102-1.056.686-1.993 1.761-2.094 1.075-.101 2.03.673 2.133 1.728.012.122.012.244 0 .366.104 1.056-.683 1.994-1.758 2.098-1.075.101-2.031-.67-2.136-1.726a1.8 1.8 0 0 1 0-.372M63.521 11.736v-.339l-1.008.063c-.568.037-.826.227-.826.584 0 .366.323.577.765.577a.967.967 0 0 0 1.07-.885m-2.655.346c0-.73.554-1.15 1.536-1.21l1.118-.063v-.35c0-.428-.288-.67-.845-.67-.455 0-.77.165-.86.45h-.789c.083-.696.75-1.142 1.687-1.142 1.035 0 1.618.506 1.618 1.362v2.769h-.784v-.57h-.064c-.267.417-.741.66-1.24.636a1.24 1.24 0 0 1-1.377-1.212M66.244 11.2c0 .86.413 1.377 1.103 1.377.687 0 1.111-.525 1.111-1.374 0-.845-.429-1.377-1.11-1.377-.687 0-1.104.522-1.104 1.374m-.841 0c0-1.28.67-2.092 1.713-2.092a1.365 1.365 0 0 1 1.266.711h.06V7.594h.815v5.634h-.78v-.64h-.065a1.441 1.441 0 0 1-1.296.707c-1.05 0-1.713-.812-1.713-2.095M75.683 11.2c0-.879-.401-1.392-1.107-1.392-.708 0-1.107.513-1.107 1.392 0 .885.4 1.395 1.107 1.395.706 0 1.107-.513 1.107-1.395m-3.055 0c-.103-1.056.685-1.993 1.76-2.094 1.075-.101 2.03.673 2.133 1.728.012.122.012.244 0 .366.104 1.056-.682 1.994-1.757 2.098-1.075.102-2.032-.67-2.136-1.726a1.808 1.808 0 0 1 0-.372M77.614 9.175h.784v.644h.061a1.24 1.24 0 0 1 1.232-.722 1.335 1.335 0 0 1 1.438 1.216c.009.097.005.194-.01.292v2.623h-.814v-2.423c0-.651-.288-.974-.89-.974a.94.94 0 0 0-.986 1.026v2.371h-.815V9.175zM85.723 8.166v1.028h.894v.673h-.894v2.085c0 .424.177.61.584.61.103 0 .206-.007.31-.019v.667a2.833 2.833 0 0 1-.443.04c-.906 0-1.267-.313-1.267-1.094V9.867h-.655v-.673h.655V8.166h.816zM87.73 7.593h.807v2.233h.064c.221-.478.726-.768 1.258-.725.75-.04 1.392.524 1.433 1.26.004.083 0 .168-.011.25v2.617h-.815V10.81c0-.647-.307-.976-.883-.976a.96.96 0 0 0-1.038 1.028v2.367h-.815V7.593zM93.165 10.828h2.085a.984.984 0 0 0-.92-1.048c-.032-.003-.064-.003-.096-.003a1.047 1.047 0 0 0-1.068 1.05zm2.867 1.306a1.675 1.675 0 0 1-1.789 1.172c-1.036.027-1.897-.775-1.924-1.792-.003-.1.003-.2.018-.3-.14-1.023.59-1.963 1.633-2.1.09-.012.179-.017.27-.017 1.148 0 1.841.77 1.841 2.043v.279h-2.915v.045a1.077 1.077 0 0 0 1.1 1.16.995.995 0 0 0 .981-.49h.785z"/>
    </g>
</svg>
