<?xml version="1.0" encoding="UTF-8"?>
<svg width="90px" height="33px" viewBox="0 0 90 33" version="1.1" xmlns="http://www.w3.org/2000/svg" xmlns:xlink="http://www.w3.org/1999/xlink">
    <title>CCC33090-DA4F-4E62-A6FF-E66362AEB978</title>
    <g id="Components-" stroke="none" stroke-width="1" fill="none" fill-rule="evenodd">
        <g id="Footer" transform="translate(-703.000000, -701.000000)" fill-rule="nonzero">
            <g id="cdic-digital-symbol" transform="translate(703.000000, 701.000000)">
                <path d="M73.6363636,1.59090909 L16.3636364,1.59090909 C12.4204545,1.59090909 8.70454545,3.125 5.92045455,5.92045455 C3.125,8.70454545 1.59090909,12.4204545 1.59090909,16.3636364 C1.59090909,20.3068182 3.125,24.0227273 5.92045455,26.8068182 C8.70454545,29.6022727 12.4204545,31.1363636 16.3636364,31.1363636 L73.6363636,31.1363636 C77.5795455,31.1363636 81.2954545,29.6022727 84.0795455,26.8068182 C86.875,24.0113636 88.4090909,20.3068182 88.4090909,16.3636364 C88.4090909,12.4204545 86.875,8.70454545 84.0795455,5.92045455 C81.2954545,3.125 77.5795455,1.59090909 73.6363636,1.59090909 Z" id="Path" fill="#6E298C"></path>
                <path d="M73.6363636,0 L16.3636364,0 C7.32954545,0 0,7.32954545 0,16.3636364 L0,16.3636364 C0,25.3977273 7.32954545,32.7272727 16.3636364,32.7272727 L73.6363636,32.7272727 C82.6704545,32.7272727 90,25.3977273 90,16.3636364 L90,16.3636364 C90,7.32954545 82.6704545,0 73.6363636,0 Z M73.6363636,31.1363636 L16.3636364,31.1363636 C12.4204545,31.1363636 8.70454545,29.6022727 5.92045455,26.8068182 C3.125,24.0227273 1.59090909,20.3068182 1.59090909,16.3636364 C1.59090909,12.4204545 3.125,8.70454545 5.92045455,5.92045455 C8.70454545,3.125 12.4204545,1.59090909 16.3636364,1.59090909 L73.6363636,1.59090909 C77.5795455,1.59090909 81.2954545,3.125 84.0795455,5.92045455 C86.875,8.71590909 88.4090909,12.4204545 88.4090909,16.3636364 C88.4090909,20.3068182 86.875,24.0227273 84.0795455,26.8068182 C81.2954545,29.6022727 77.5795455,31.1363636 73.6363636,31.1363636 Z" id="Shape" fill="#FFFFFF"></path>
                <g id="Group" transform="translate(37.386364, 7.500000)" fill="#FFFFFF">
                    <path d="M9.06818182,3.47727273 C9.04545455,1.59090909 7.48863636,0.0568181818 5.60227273,0.0568181818 C3.72727273,0.0568181818 2.17045455,1.59090909 2.13636364,3.47727273 L2.13636364,5.51136364 L2.30681818,5.39772727 C2.80681818,5.07954545 3.35227273,4.84090909 3.92045455,4.67045455 L4,4.64772727 L4,3.48863636 C4.01136364,2.61363636 4.73863636,1.90909091 5.60227273,1.90909091 C6.47727273,1.90909091 7.20454545,2.625 7.21590909,3.51136364 C7.21590909,3.59090909 7.21590909,3.85227273 7.21590909,4.17045455 L7.21590909,4.64772727 L7.29545455,4.67045455 C7.86363636,4.82954545 8.40909091,5.06818182 8.90909091,5.39772727 L9.07954545,5.51136364 L9.07954545,5.31818182 C9.06818182,4.10227273 9.06818182,3.61363636 9.06818182,3.47727273 Z" id="Path"></path>
                    <path d="M5.60227273,5.11363636 C2.56818182,5.11363636 0.102272727,7.57954545 0.102272727,10.6136364 C0.102272727,13.6477273 2.56818182,16.1136364 5.60227273,16.1136364 C8.63636364,16.1136364 11.1022727,13.6477273 11.1022727,10.6136364 C11.1022727,7.57954545 8.63636364,5.11363636 5.60227273,5.11363636 Z M7.5,12.1477273 C7.22727273,12.3409091 7.43181818,12.8295455 7.48863636,13.1136364 C6.94318182,13.0340909 6.42045455,12.8977273 5.875,12.8863636 C5.53409091,12.875 5.79545455,13.8068182 5.79545455,14.7727273 C5.69318182,14.8181818 5.47727273,14.8068182 5.39772727,14.7727273 C5.39772727,13.9090909 5.67045455,12.875 5.31818182,12.8863636 C4.77272727,12.8977273 4.23863636,13.0340909 3.70454545,13.1136364 C3.80681818,12.5568182 3.89772727,12.3181818 3.44318182,11.9545455 C2.98863636,11.5909091 2.53409091,11.2272727 2.09090909,10.8636364 C2.80681818,10.6136364 2.40909091,9.98863636 2.25,9.42045455 C2.48863636,9.46590909 2.88636364,9.64772727 3.125,9.60227273 C3.44318182,9.70454545 3.45454545,9.27272727 3.51136364,9.07954545 C3.73863636,9.32954545 3.95454545,9.57954545 4.18181818,9.82954545 C4.28409091,9.94318182 4.61363636,10.1590909 4.54545455,9.82954545 C4.44318182,9.22727273 4.31818182,8.625 4.21590909,8.02272727 C4.42045455,8.125 4.81818182,8.44318182 4.98863636,8.18181818 C5.18181818,7.875 5.38636364,7.56818182 5.57954545,7.26136364 C5.77272727,7.56818182 5.97727273,7.875 6.17045455,8.18181818 C6.34090909,8.44318182 6.73863636,8.125 6.94318182,8.02272727 C6.82954545,8.625 6.71590909,9.22727273 6.61363636,9.82954545 C6.53409091,10.2613636 6.97727273,9.84090909 7.06818182,9.73863636 C7.26136364,9.52272727 7.45454545,9.29545455 7.64772727,9.07954545 C7.72727273,9.35227273 7.71590909,9.65909091 8.06818182,9.60227273 C8.35227273,9.54545455 8.625,9.48863636 8.90909091,9.43181818 C8.76136364,10 8.36363636,10.625 9.06818182,10.875 C8.56818182,11.2840909 8.02272727,11.7159091 7.5,12.1477273 Z" id="Shape"></path>
                </g>
                <g id="Group" transform="translate(11.477273, 10.227273)" fill="#FFFFFF">
                    <path d="M4.05681818,4.68181818 C4.56818182,4.68181818 5.05681818,4.84090909 5.45454545,5.14772727 L6.46590909,3.78409091 C5.76136364,3.25 4.92045455,2.97727273 4.04545455,2.97727273 C1.80681818,2.97727273 0,4.79545455 0,7.02272727 C0,9.25 1.81818182,11.0681818 4.04545455,11.0681818 C4.89772727,11.0681818 5.71590909,10.8068182 6.40909091,10.3068182 L5.42045455,8.93181818 C5.02272727,9.22727273 4.54545455,9.375 4.04545455,9.375 C2.75,9.375 1.69318182,8.31818182 1.69318182,7.02272727 C1.69318182,5.72727273 2.76136364,4.68181818 4.05681818,4.68181818 Z" id="Path"></path>
                    <path d="M21.5454545,9.39772727 C20.25,9.39772727 19.1931818,8.34090909 19.1931818,7.04545455 C19.1931818,5.75 20.25,4.69318182 21.5454545,4.69318182 C22.0568182,4.69318182 22.5454545,4.85227273 22.9545455,5.15909091 L23.9659091,3.79545455 C23.2613636,3.26136364 22.4204545,2.98863636 21.5454545,2.98863636 C19.3068182,2.98863636 17.5,4.80681818 17.5,7.03409091 C17.5,9.26136364 19.3181818,11.0795455 21.5454545,11.0795455 C22.3977273,11.0795455 23.2159091,10.8181818 23.9090909,10.3181818 L22.9204545,8.94318182 C22.5227273,9.23863636 22.0454545,9.39772727 21.5454545,9.39772727 Z" id="Path"></path>
                    <path d="M14.875,11.0340909 L16.5681818,11.0340909 L16.5681818,4.40909091 C16.5681818,4.40909091 16.5,3.71590909 15.9886364,3.43181818 C15.4772727,3.14772727 14.875,3.19318182 14.875,3.19318182 L14.875,11.0340909 L14.875,11.0340909 Z" id="Path"></path>
                    <path d="M11.9318182,3.13636364 C11.5454545,3.01136364 11.1363636,2.94318182 10.7045455,2.94318182 C8.46590909,2.94318182 6.65909091,4.76136364 6.65909091,6.98863636 C6.65909091,9.21590909 8.47727273,11.0340909 10.7045455,11.0340909 C11.1818182,11.0340909 11.875,11.0227273 12.2727273,11.0227273 L13.6363636,11.0227273 L13.6363636,0.0454545455 C13.6363636,0.0454545455 12.9204545,-0.0340909091 12.4204545,0.329545455 C11.9090909,0.681818182 11.9431818,1.47727273 11.9431818,1.47727273 L11.9318182,3.13636364 L11.9318182,3.13636364 Z M8.35227273,6.98863636 C8.35227273,5.69318182 9.40909091,4.63636364 10.7045455,4.63636364 C11.1477273,4.63636364 11.5568182,4.75 11.9318182,4.97727273 L11.9318182,9.32954545 C11.5454545,9.32954545 11.0681818,9.34090909 10.7045455,9.34090909 C9.40909091,9.34090909 8.35227273,8.28409091 8.35227273,6.98863636 Z" id="Shape"></path>
                </g>
                <g id="Group" transform="translate(50.568182, 10.227273)" fill="#FFFFFF">
                    <path d="M4.875,7.14772727 C4.25,6.61363636 3.22727273,6.29545455 3.10227273,6.25 L3.10227273,6.25 C2.79545455,6.14772727 2.20454545,5.92045455 1.94318182,5.70454545 C1.88636364,5.65909091 1.64772727,5.42045455 1.76136364,5.03409091 C1.88636364,4.78409091 1.98863636,4.70454545 2.80681818,4.70454545 C4.19318182,4.70454545 5.35227273,4.71590909 5.35227273,4.71590909 L5.36363636,3.04545455 C5.36363636,3.04545455 4.19318182,3.03409091 2.80681818,3.03409091 C1.19318182,3.03409091 0.670454545,3.48863636 0.238636364,4.32954545 L0.193181818,4.43181818 C-0.181818182,5.53409091 0.306818182,6.47727273 0.852272727,6.95454545 C1.47727273,7.48863636 2.5,7.80681818 2.625,7.85227273 L2.625,7.85227273 C2.93181818,7.95454545 3.52272727,8.18181818 3.78409091,8.39772727 C3.84090909,8.44318182 4.07954545,8.68181818 3.96590909,9.06818182 C3.84090909,9.31818182 3.73863636,9.38636364 2.92045455,9.38636364 C1.53409091,9.38636364 0.363636364,9.375 0.363636364,9.375 L0.363636364,11.0568182 C0.363636364,11.0568182 1.53409091,11.0568182 2.92045455,11.0568182 C4.52272727,11.0568182 5.05681818,10.6022727 5.48863636,9.76136364 L5.53409091,9.65909091 C5.90909091,8.57954545 5.43181818,7.63636364 4.875,7.14772727 Z" id="Path"></path>
                    <path d="M18.8977273,3.17045455 C18.5113636,3.05681818 18.1022727,2.98863636 17.6818182,2.98863636 C15.4659091,2.98863636 13.6704545,4.79545455 13.6704545,7 C13.6704545,9.20454545 15.4772727,11.0113636 17.6818182,11.0113636 C18.1590909,11.0113636 18.8409091,11 19.2272727,11 L20.5681818,11 L20.5681818,0.102272727 C20.5681818,0.102272727 19.8522727,0.0227272727 19.3636364,0.386363636 C18.8522727,0.727272727 18.8977273,1.52272727 18.8977273,1.52272727 L18.8977273,3.17045455 L18.8977273,3.17045455 Z M15.3522727,7 C15.3522727,5.71590909 16.3977273,4.67045455 17.6818182,4.67045455 C18.1136364,4.67045455 18.5340909,4.78409091 18.8977273,5.01136364 L18.8977273,9.32954545 C18.5227273,9.32954545 18.0340909,9.34090909 17.6818182,9.34090909 C16.3977273,9.32954545 15.3522727,8.28409091 15.3522727,7 Z" id="Shape"></path>
                    <path d="M11.3295455,3.03409091 C10.9431818,3.03409091 10.4659091,3.03409091 10.1136364,3.03409091 C7.89772727,3.03409091 6.10227273,4.84090909 6.10227273,7.04545455 C6.10227273,9.25 7.90909091,11.0568182 10.1136364,11.0568182 C10.5340909,11.0568182 10.9659091,10.9318182 11.3295455,10.6590909 L11.3295455,11.0454545 L13,11.0454545 L13,4.63636364 C13,4.63636364 13.0227273,4.02272727 12.5795455,3.53409091 C12.1477273,3.03409091 11.3295455,3.03409091 11.3295455,3.03409091 Z M10.125,9.38636364 C8.84090909,9.38636364 7.79545455,8.34090909 7.79545455,7.05681818 C7.79545455,5.77272727 8.84090909,4.72727273 10.125,4.72727273 C10.4772727,4.72727273 10.9545455,4.72727273 11.3409091,4.73863636 L11.3409091,8.84090909 C10.9545455,9.21590909 10.5568182,9.38636364 10.125,9.38636364 Z" id="Shape"></path>
                    <path d="M25.4318182,9.32954545 C24.1477273,9.32954545 23.1022727,8.28409091 23.1022727,7 C23.1022727,5.71590909 24.1477273,4.67045455 25.4318182,4.67045455 C25.9431818,4.67045455 26.4204545,4.82954545 26.8295455,5.13636364 L27.8295455,3.78409091 C27.125,3.26136364 26.2954545,2.98863636 25.4318182,2.98863636 C23.2159091,2.98863636 21.4204545,4.79545455 21.4204545,7 C21.4204545,9.20454545 23.2272727,11.0113636 25.4318182,11.0113636 C26.2727273,11.0113636 27.0795455,10.75 27.7727273,10.25 L26.7954545,8.88636364 C26.3977273,9.18181818 25.9318182,9.32954545 25.4318182,9.32954545 Z" id="Path"></path>
                </g>
            </g>
        </g>
    </g>
</svg>