<svg width="26" height="26" viewBox="0 0 26 26" fill="none" xmlns="http://www.w3.org/2000/svg">
<circle cx="13" cy="13" r="13" fill="#E3E6E9"/>
<path d="M18.1464 9.46141C18.3417 9.26615 18.3417 8.94957 18.1464 8.7543L17.7457 8.35355C17.5504 8.15829 17.2339 8.15829 17.0386 8.35355L13.3536 12.0386C13.1583 12.2339 12.8417 12.2339 12.6464 12.0386L8.96141 8.35355C8.76615 8.15829 8.44957 8.15829 8.2543 8.35355L7.85355 8.7543C7.65829 8.94957 7.65829 9.26615 7.85355 9.46141L11.5386 13.1464C11.7339 13.3417 11.7339 13.6583 11.5386 13.8536L7.85355 17.5386C7.65829 17.7339 7.65829 18.0504 7.85355 18.2457L8.2543 18.6464C8.44957 18.8417 8.76615 18.8417 8.96141 18.6464L12.6464 14.9614C12.8417 14.7661 13.1583 14.7661 13.3536 14.9614L17.0386 18.6464C17.2339 18.8417 17.5504 18.8417 17.7457 18.6464L18.1464 18.2457C18.3417 18.0504 18.3417 17.7339 18.1464 17.5386L14.4614 13.8536C14.2661 13.6583 14.2661 13.3417 14.4614 13.1464L18.1464 9.46141Z" fill="#2B2C32"/>
</svg>
