<svg xmlns="http://www.w3.org/2000/svg" width="121" height="36" viewBox="0 0 121 36">
    <defs>
        <linearGradient id="a" x1="61.139%" x2="26.518%" y1="4.839%" y2="71.968%">
            <stop offset="0%" stop-color="#00A0FF"/>
            <stop offset=".657%" stop-color="#00A1FF"/>
            <stop offset="26.01%" stop-color="#00BEFF"/>
            <stop offset="51.22%" stop-color="#00D2FF"/>
            <stop offset="76.04%" stop-color="#00DFFF"/>
            <stop offset="100%" stop-color="#00E3FF"/>
        </linearGradient>
        <linearGradient id="b" x1="107.728%" x2="-130.665%" y1="49.428%" y2="49.428%">
            <stop offset="0%" stop-color="#FFE000"/>
            <stop offset="40.87%" stop-color="#FFBD00"/>
            <stop offset="77.54%" stop-color="#FFA500"/>
            <stop offset="100%" stop-color="#FF9C00"/>
        </linearGradient>
        <linearGradient id="c" x1="86.389%" x2="-49.888%" y1="30.671%" y2="136.717%">
            <stop offset="0%" stop-color="#FF3A44"/>
            <stop offset="100%" stop-color="#C31162"/>
        </linearGradient>
        <linearGradient id="d" x1="-18.579%" x2="42.275%" y1="-12.193%" y2="34.941%">
            <stop offset="0%" stop-color="#32A071"/>
            <stop offset="6.85%" stop-color="#2DA771"/>
            <stop offset="47.62%" stop-color="#15CF74"/>
            <stop offset="80.09%" stop-color="#06E775"/>
            <stop offset="100%" stop-color="#00F076"/>
        </linearGradient>
    </defs>
    <g fill="none" fill-rule="nonzero">
        <path fill="#000" d="M116.519 36H4.48C1.971 36 0 34.02 0 31.5v-27C0 1.98 1.972 0 4.481 0H116.52C119.029 0 121 1.98 121 4.5v27c0 2.43-1.972 4.5-4.481 4.5z"/>
        <path fill="#A6A6A6" d="M116.519.72c2.061 0 3.764 1.71 3.764 3.78v27c0 2.07-1.703 3.78-3.764 3.78H4.48C2.42 35.28.717 33.57.717 31.5v-27C.717 2.43 2.42.72 4.481.72H116.52zm0-.72H4.48C1.971 0 0 1.98 0 4.5v27C0 34.02 1.972 36 4.481 36H116.52c2.51 0 4.481-1.98 4.481-4.5v-27c0-2.43-1.972-4.5-4.481-4.5z"/>
        <g fill="#FFF" stroke="#FFF" stroke-width=".2">
            <path d="M42.484 9.18c0 .72-.179 1.35-.627 1.8-.538.54-1.165.81-1.972.81-.806 0-1.434-.27-1.972-.81-.537-.54-.806-1.17-.806-1.98s.269-1.44.806-1.98c.538-.54 1.166-.81 1.972-.81.359 0 .717.09 1.076.27.358.18.627.36.806.63l-.448.45c-.358-.45-.806-.63-1.434-.63-.538 0-1.075.18-1.434.63-.448.36-.627.9-.627 1.53s.179 1.17.627 1.53c.448.36.896.63 1.434.63.628 0 1.076-.18 1.524-.63.269-.27.448-.63.448-1.08h-1.972v-.63h2.6v.27zM46.607 6.93h-2.42v1.71h2.241v.63h-2.24v1.71h2.42v.72H43.47V6.3h3.137zM49.565 11.7h-.717V6.93h-1.524V6.3h3.765v.63h-1.524zM53.688 11.7V6.3h.717v5.4zM57.453 11.7h-.717V6.93h-1.524V6.3h3.675v.63h-1.524v4.77zM65.967 10.98c-.537.54-1.165.81-1.971.81-.807 0-1.435-.27-1.972-.81-.538-.54-.807-1.17-.807-1.98s.269-1.44.807-1.98c.537-.54 1.165-.81 1.972-.81.806 0 1.434.27 1.971.81.538.54.807 1.17.807 1.98s-.269 1.44-.807 1.98zm-3.406-.45c.359.36.897.63 1.435.63.537 0 1.075-.18 1.434-.63.358-.36.627-.9.627-1.53s-.18-1.17-.627-1.53c-.359-.36-.897-.63-1.434-.63-.538 0-1.076.18-1.435.63-.358.36-.627.9-.627 1.53s.18 1.17.627 1.53zM67.76 11.7V6.3h.807l2.599 4.23V6.3h.717v5.4h-.717l-2.779-4.41v4.41z"/>
        </g>
        <path fill="#FFF" d="M61.038 19.62c-2.151 0-3.854 1.62-3.854 3.87 0 2.16 1.703 3.87 3.854 3.87 2.15 0 3.854-1.62 3.854-3.87 0-2.34-1.703-3.87-3.854-3.87zm0 6.12c-1.165 0-2.151-.99-2.151-2.34 0-1.35.986-2.34 2.15-2.34 1.166 0 2.152.9 2.152 2.34 0 1.35-.986 2.34-2.151 2.34zm-8.336-6.12c-2.15 0-3.854 1.62-3.854 3.87 0 2.16 1.703 3.87 3.854 3.87s3.854-1.62 3.854-3.87c0-2.34-1.703-3.87-3.854-3.87zm0 6.12c-1.165 0-2.15-.99-2.15-2.34 0-1.35.985-2.34 2.15-2.34s2.151.9 2.151 2.34c0 1.35-.986 2.34-2.15 2.34zm-9.949-4.95v1.62h3.854c-.09.9-.448 1.62-.896 2.07-.538.54-1.434 1.17-2.958 1.17-2.42 0-4.212-1.89-4.212-4.32 0-2.43 1.882-4.32 4.212-4.32 1.255 0 2.241.54 2.958 1.17l1.165-1.17c-.986-.9-2.24-1.62-4.033-1.62-3.227 0-6.005 2.7-6.005 5.94s2.778 5.94 6.005 5.94c1.793 0 3.047-.54 4.123-1.71 1.075-1.08 1.434-2.61 1.434-3.78 0-.36 0-.72-.09-.99h-5.557zm40.692 1.26c-.358-.9-1.255-2.43-3.226-2.43-1.972 0-3.586 1.53-3.586 3.87 0 2.16 1.614 3.87 3.765 3.87 1.703 0 2.778-1.08 3.137-1.71l-1.255-.9c-.448.63-.986 1.08-1.882 1.08-.897 0-1.434-.36-1.882-1.17l5.108-2.16-.179-.45zm-5.198 1.26c0-1.44 1.165-2.25 1.972-2.25.627 0 1.254.36 1.434.81l-3.406 1.44zM74.034 27h1.703V15.75h-1.703V27zm-2.689-6.57c-.448-.45-1.165-.9-2.061-.9-1.883 0-3.675 1.71-3.675 3.87s1.703 3.78 3.675 3.78c.896 0 1.613-.45 1.972-.9h.09v.54c0 1.44-.807 2.25-2.062 2.25-.986 0-1.703-.72-1.883-1.35l-1.434.63c.449.99 1.524 2.25 3.406 2.25 1.972 0 3.586-1.17 3.586-3.96V19.8h-1.614v.63zm-1.972 5.31c-1.165 0-2.15-.99-2.15-2.34 0-1.35.985-2.34 2.15-2.34 1.166 0 2.062.99 2.062 2.34 0 1.35-.896 2.34-2.062 2.34zm21.87-9.99H87.21V27h1.703v-4.23h2.33c1.882 0 3.675-1.35 3.675-3.51 0-2.16-1.793-3.51-3.675-3.51zm.09 5.4h-2.42v-3.87h2.42c1.254 0 1.971 1.08 1.971 1.89-.09.99-.806 1.98-1.971 1.98zm10.307-1.62c-1.255 0-2.51.54-2.958 1.71l1.524.63c.358-.63.896-.81 1.524-.81.896 0 1.703.54 1.792 1.44v.09c-.269-.18-.986-.45-1.703-.45-1.613 0-3.226.9-3.226 2.52 0 1.53 1.344 2.52 2.778 2.52 1.165 0 1.703-.54 2.151-1.08h.09v.9h1.613v-4.32c-.18-1.98-1.703-3.15-3.585-3.15zm-.18 6.21c-.537 0-1.344-.27-1.344-.99 0-.9.986-1.17 1.793-1.17.717 0 1.075.18 1.524.36-.18 1.08-1.076 1.8-1.972 1.8zm9.412-5.94l-1.882 4.86h-.09l-1.972-4.86h-1.792l2.957 6.84-1.703 3.78h1.703l4.571-10.62h-1.792zM95.814 27h1.703V15.75h-1.703V27z"/>
        <path fill="url(#a)" d="M1.255.45c-.27.27-.448.72-.448 1.26V21.6c0 .54.179.99.448 1.26l.09.09 11.114-11.16v-.18L1.255.45z" transform="translate(8.067 6.3)"/>
        <path fill="url(#b)" d="M16.133 15.57l-3.674-3.69v-.27l3.674-3.69.09.09 4.392 2.52c1.255.72 1.255 1.89 0 2.61l-4.482 2.43z" transform="translate(8.067 6.3)"/>
        <path fill="url(#c)" d="M16.223 15.48l-3.764-3.78L1.255 22.95c.448.45 1.075.45 1.882.09l13.086-7.56" transform="translate(8.067 6.3)"/>
        <path fill="url(#d)" d="M16.223 7.92L3.137.45C2.33 0 1.703.09 1.255.54L12.459 11.7l3.764-3.78z" transform="translate(8.067 6.3)"/>
        <g fill="#000">
            <path d="M24.2 21.69l-12.996 7.38c-.717.45-1.345.36-1.793 0l-.09.09.09.09c.448.36 1.076.45 1.793 0L24.2 21.69z" opacity=".2"/>
            <path d="M9.321 29.07c-.268-.27-.358-.72-.358-1.26v.09c0 .54.18.99.448 1.26v-.09h-.09z" opacity=".12"/>
        </g>
        <path fill="#000" d="M28.681 19.17L24.2 21.69l.09.09 4.391-2.52c.628-.36.897-.81.897-1.26 0 .45-.359.81-.897 1.17z" opacity=".12"/>
        <path fill="#FFF" d="M11.204 6.84l17.477 9.99c.538.36.897.72.897 1.17 0-.45-.27-.9-.897-1.26L11.204 6.75c-1.255-.72-2.241-.09-2.241 1.35v.09c0-1.44.986-2.07 2.24-1.35z" opacity=".25"/>
    </g>
</svg>
