<svg xmlns="http://www.w3.org/2000/svg" width="120" height="48" viewBox="0 0 120 48">
    <g fill="none">
        <g>
            <path fill="#000" d="M0 4.838h1.234v-.833C1.234-.04 4.043 0 4.436 0c.778-.005 1.553.104 2.299.323l-.259 2.475c-.3-.058-.605-.098-.911-.12-.241-.021-.483.031-.694.15-.315.187-.551.577-.551 1.395v.615h2.156v2.775H4.32V14.4H1.234V7.613H0V4.838zm10.898-2.783c.005-.8-.556-1.494-1.34-1.654-.785-.16-1.574.256-1.883.995-.31.739-.053 1.593.612 2.04.665.445 1.553.359 2.12-.207.316-.308.493-.732.49-1.174zm-.14 12.345V4.838H7.674V14.4h3.086zM58.096 2.055c-.004-.797-.57-1.48-1.353-1.633-.783-.152-1.564.27-1.867 1.007-.302.738-.042 1.587.622 2.028.664.441 1.548.352 2.11-.213.32-.312.496-.742.488-1.189zM57.96 14.4V4.838h-3.086V14.4h3.086zm8.321-9.562h3.087V14.4H66.28v-.81c-.738.73-1.737 1.135-2.775 1.125-1.26.01-2.46-.54-3.277-1.5-.898-.984-1.382-2.276-1.35-3.607-.031-1.33.452-2.622 1.35-3.604.817-.96 2.017-1.51 3.277-1.5 1.038-.01 2.037.395 2.775 1.125v-.791zm-3.682 6.42c.39.43.942.674 1.522.674.58 0 1.133-.245 1.523-.674.85-.928.85-2.35 0-3.278-.39-.43-.943-.675-1.523-.675s-1.133.245-1.522.675c-.85.928-.85 2.35 0 3.278zM70.8.383h3.086V14.4h-3.09L70.8.383zM15.206 5.738v-.93h-3.093V14.4h3.093V9.45c0-.772.199-1.327.597-1.665.346-.313.793-.491 1.26-.502 1.032 0 1.547.618 1.545 1.856v5.25H21.7V8.83c0-1.38-.357-2.446-1.072-3.198-.675-.732-1.63-1.142-2.625-1.125-1.073-.048-2.107.407-2.798 1.23zm14.846-.93v.813c-.742-.73-1.744-1.134-2.786-1.125-1.263-.01-2.465.54-3.285 1.5-.891.987-1.37 2.279-1.335 3.608-.031 1.334.454 2.63 1.354 3.615.82.961 2.022 1.51 3.285 1.5 1.041.01 2.044-.395 2.786-1.125v.814h3.075v-9.6h-3.094zm-.656 6.438c-.39.433-.944.68-1.526.68-.582 0-1.137-.247-1.526-.68-.85-.93-.85-2.355 0-3.285.39-.432.944-.679 1.526-.679.582 0 1.137.247 1.526.68.856.927.856 2.357 0 3.284zm8.449-5.508v-.93h-3.094V14.4h3.094V9.45c0-.772.203-1.327.6-1.665.345-.312.79-.49 1.256-.502 1.033 0 1.549.618 1.549 1.856v5.25h3.094V8.83c0-1.38-.359-2.446-1.077-3.198-.714-.742-1.705-1.152-2.734-1.132-1.029.02-2.003.468-2.688 1.237zm12.799 6.187c-.644.016-1.268-.229-1.729-.679-.454-.425-.712-1.02-.712-1.642 0-.623.258-1.217.712-1.643.461-.445 1.08-.69 1.721-.678.858-.003 1.685.314 2.322.888l1.125-2.493C53.22 4.894 52.005 4.5 50.449 4.5c-1.623 0-2.919.486-3.889 1.459-.948.971-1.46 2.288-1.414 3.645-.037 1.36.483 2.677 1.44 3.645.96.972 2.259 1.459 3.897 1.459 1.597 0 2.808-.393 3.633-1.178l-1.125-2.475c-.645.566-1.475.875-2.332.87h-.015z" transform="translate(39.979 14.396)"/>
            <path stroke="#000" stroke-width=".35" d="M76.583.703c.327-.132.677-.14.995-.04.317.098.602.304.796.598.194.294.271.636.238.967-.034.331-.179.65-.43.9-.28.287-.669.443-1.071.432-.353-.006-.679-.136-.932-.351-.254-.215-.436-.515-.5-.862-.064-.346-.002-.692.159-.983.16-.291.418-.53.745-.661z" transform="translate(39.979 14.396)"/>
            <path fill="#000" d="M77.603 1.399c.1.098.156.234.153.375 0 .108-.03.215-.086.307-.057.092-.14.163-.24.203l.405.562h-.439l-.352-.506h-.158v.514h-.375V1.256h.638c.164-.012.326.04.454.143zm-.45.195l-.263.007v.39h.263c.058.002.114-.017.16-.052.045-.034.07-.087.068-.143 0-.135-.075-.202-.228-.202z" transform="translate(39.979 14.396)"/>
        </g>
        <path fill="#E1251B" d="M0 0H31.62V48H0z"/>
        <path fill="#FFF" d="M21.274 27.15c-.945.079-4.5 0-4.324-4.53 4.74-3.296 4.875-6.953 4.35-9.06.965-.756 2.042-1.359 3.191-1.785.465-.195 1.032-.311 1.238 0 .547.784 2.426.814 1.357-1.223-.3-.562-.945-.926-1.875-.85-.93.074-2.835.603-4.826 2.095-2.168-2.32-5.539-2.223-7.913-2.13C8.203 9.815 2.49 11.213 0 12.12v4.549c1.103.79 2.245 1.522 3.424 2.194.682.408 4.354 2.625 6.457 4.803.578.608.281.518 0 .84-.397.525-.086 1.245.289 1.579.232.21.476.049.469.975.043 2.166.314 4.322.81 6.431.352 1.45.99 2.813 1.875 4.013 1.125 1.324 2.407 1.474 2.722-.63.102-1.122.115-2.251.038-3.375-.034-1.009-.218-4.298-2.794-8.153-.289-.42-.229-.536.071-.671.941-.461 1.707-.87 1.707-.87.46 4.226 2.872 5.291 5.756 5.186 2.388-.09 6.465-1.593 10.785-4.267v-2.427c-4.107 2.738-7.778 4.643-10.335 4.853zM19.75 14.865s-.142 3.09-2.572 4.875c.049-1.185 1.241-3.724 2.572-4.875zm-5.344 17.464c.507 4.526-.63 2.355-.75 2.055-.487-1.125-1.196-4.826-1.177-6.9 1.025 1.435 1.686 3.098 1.928 4.845zm.514-10.954c-.502.349-1.417.851-2.01 1.2-.187.116-.457.326-.547-.146-.143-.788-.567-1.448-2.074-.93-.89-.813-1.833-1.564-2.824-2.25-.795-.551-2.554-1.691-3.806-2.546-.847-.537-1.666-1.118-2.453-1.74-1.173-1.013.552-1.433 1.287-1.647.937-.277 1.781-.543 2.861-.799 2.226-.462 4.482-.774 6.75-.933 1.744-.098 5.276-.402 6.806 1.5-2.403 2.105-3.844 5.1-3.99 8.291z"/>
    </g>
</svg>
