<svg width="120" height="48" viewBox="0 0 120 48" fill="none" xmlns="http://www.w3.org/2000/svg">
<path fill-rule="evenodd" clip-rule="evenodd" d="M40.1104 19.2338H41.3482V18.4013C41.3482 14.3933 44.1131 14.3959 44.5493 14.3963L44.5612 14.3963C45.3416 14.3913 46.1186 14.5 46.8675 14.7188L46.6079 17.1938C46.3058 17.1357 46.0005 17.0957 45.6937 17.0738C45.4518 17.0532 45.2093 17.1054 44.9976 17.2238C44.6816 17.4113 44.4446 17.8013 44.4446 18.6188V19.2338H46.6079V22.0088H44.4446V28.7963H41.3482V22.0088H40.1104V19.2338ZM51.0438 16.4513C51.0494 15.6505 50.4861 14.9576 49.699 14.7971C48.9119 14.6367 48.1208 15.0536 47.8107 15.7922C47.5005 16.5309 47.7578 17.3851 48.4249 17.8313C49.0921 18.2775 49.9826 18.1911 50.5509 17.625C50.8685 17.3169 51.0465 16.8931 51.0438 16.4513ZM50.9046 19.2337V28.7962H47.8082V19.2337H50.9046ZM98.3964 16.4513C98.3923 15.6539 97.824 14.9702 97.0387 14.818C96.2533 14.6658 95.4694 15.0874 95.1659 15.8252C94.8623 16.563 95.1235 17.4117 95.79 17.8529C96.4564 18.2941 97.3427 18.205 97.9073 17.64C98.2277 17.3279 98.4047 16.8978 98.3964 16.4513ZM98.2611 19.2337V28.7962H95.1646V19.2337H98.2611ZM106.61 19.2338H109.706V28.7963H106.61V27.9863C105.869 28.7159 104.867 29.1209 103.825 29.1113C102.561 29.1203 101.357 28.5712 100.537 27.6113C99.6364 26.6275 99.1512 25.3352 99.1827 24.0038C99.1514 22.6734 99.6366 21.3824 100.537 20.4C101.357 19.4401 102.561 18.8909 103.825 18.9C104.867 18.89 105.869 19.295 106.61 20.025V19.2338ZM104.443 26.3285C103.861 26.3285 103.306 26.0834 102.915 25.6537C102.063 24.7263 102.063 23.3036 102.915 22.3762C103.306 21.9465 103.861 21.7015 104.443 21.7015C105.024 21.7015 105.579 21.9465 105.97 22.3762C106.822 23.3036 106.822 24.7263 105.97 25.6537C105.579 26.0834 105.024 26.3285 104.443 26.3285ZM111.143 14.7788H114.24V28.7963H111.139L111.143 14.7788ZM55.3667 19.2038V20.1338C56.0595 19.3111 57.0968 18.8565 58.1734 18.9038C59.172 18.8874 60.1302 19.2967 60.807 20.0288C61.5244 20.7813 61.883 21.8475 61.883 23.2275V28.785H58.7791V23.535C58.7816 22.2975 58.2649 21.6788 57.229 21.6788C56.7609 21.6901 56.3124 21.8684 55.9649 22.1813C55.5661 22.5188 55.3667 23.0738 55.3667 23.8463V28.7963H52.2628V19.2038H55.3667ZM70.2618 19.2037V20.0175C69.5167 19.2875 68.511 18.8828 67.4663 18.8925C66.1993 18.8822 64.9926 19.4314 64.1705 20.3925C63.276 21.379 62.7964 22.6707 62.8311 24C62.7996 25.3344 63.2861 26.6295 64.1894 27.615C65.0114 28.5761 66.2181 29.1252 67.4852 29.115C68.5298 29.1247 69.5355 28.72 70.2806 27.99V28.8037H73.3657V19.2037H70.2618ZM68.0719 26.3214C68.6558 26.3214 69.2122 26.0747 69.6032 25.6425C70.4618 24.7147 70.4618 23.2853 69.6032 22.3575C69.2122 21.9253 68.6558 21.6786 68.0719 21.6786C67.4881 21.6786 66.9316 21.9253 66.5407 22.3575C65.6874 23.2874 65.6874 24.7126 66.5407 25.6425C66.9316 26.0747 67.4881 26.3214 68.0719 26.3214ZM78.0798 20.1338V19.2038H74.9759V28.7963H78.0798V23.8463C78.0798 23.0738 78.283 22.5188 78.6818 22.1813C79.0279 21.8686 79.4752 21.6903 79.9422 21.6788C80.9781 21.6788 81.496 22.2975 81.496 23.535V28.785H84.5999V23.2275C84.5999 21.8475 84.24 20.7813 83.5202 20.0288C82.8036 19.2876 81.8095 18.8776 80.777 18.8975C79.7445 18.9175 78.767 19.3655 78.0798 20.1338ZM89.1863 25.6425C89.6492 26.0923 90.2745 26.3371 90.9208 26.3213H90.9358C91.7964 26.3264 92.629 26.0168 93.276 25.4513L94.4047 27.9263C93.577 28.7113 92.3618 29.1038 90.759 29.1038C89.1161 29.1038 87.8131 28.6175 86.8499 27.645C85.8895 26.6774 85.3676 25.3606 85.4052 24C85.3597 22.6431 85.8721 21.3265 86.8236 20.355C87.7968 19.3825 89.0973 18.8963 90.7251 18.8963C92.2865 18.8963 93.5055 19.29 94.3708 20.0738L93.2421 22.5675C92.6036 21.9932 91.7734 21.6763 90.9133 21.6788C90.2701 21.668 89.649 21.9121 89.1863 22.3575C88.7305 22.7829 88.4718 23.3776 88.4718 24C88.4718 24.6225 88.7305 25.2171 89.1863 25.6425Z" fill="white"/>
<path d="M117.476 17.9563L117.475 17.9563C116.767 17.9438 116.166 17.4362 116.038 16.7433C115.909 16.0505 116.288 15.3629 116.944 15.0991C117.601 14.8353 118.353 15.069 118.743 15.6572C119.132 16.2453 119.053 17.0255 118.552 17.5234L118.552 17.5234L118.551 17.5245C118.268 17.8106 117.879 17.967 117.476 17.9563Z" stroke="white" stroke-width="0.35"/>
<path fill-rule="evenodd" clip-rule="evenodd" d="M117.761 17.2426H118.201L117.795 16.6801C117.895 16.6397 117.979 16.5688 118.036 16.4776C118.093 16.385 118.123 16.2786 118.122 16.1701C118.125 16.0292 118.069 15.8934 117.968 15.7951C117.84 15.6915 117.677 15.6405 117.513 15.6526H116.873V17.2501H117.25V16.7363H117.408L117.761 17.2426ZM117.253 16.3876V15.9976L117.517 15.9901C117.671 15.9901 117.746 16.0576 117.746 16.1926C117.748 16.2482 117.723 16.3012 117.678 16.3351C117.632 16.3702 117.575 16.3887 117.517 16.3876H117.253Z" fill="white"/>
<rect width="31.724" height="48" fill="#E1251B"/>
<path fill-rule="evenodd" clip-rule="evenodd" d="M17.0058 22.62C16.8289 27.15 20.3956 27.2288 21.3437 27.15C23.9096 26.94 27.593 25.035 31.7127 22.2975V24.7238C27.3785 27.3975 23.2889 28.9013 20.8922 28.9913C17.999 29.0963 15.5798 28.0313 15.1171 23.805C15.1171 23.805 14.3495 24.2138 13.4052 24.675C13.1042 24.81 13.044 24.9263 13.3337 25.3463C15.9184 29.2013 16.1028 32.49 16.1367 33.4988C16.2139 34.623 16.2013 35.7515 16.099 36.8738C15.783 38.9775 14.4963 38.8275 13.3676 37.5038C12.479 36.3043 11.8395 34.9402 11.4864 33.4913C10.9893 31.382 10.7169 29.2263 10.6737 27.06C10.6795 26.3527 10.5383 26.2795 10.3673 26.191C10.3144 26.1636 10.2586 26.1347 10.2035 26.085C9.82722 25.7513 9.51495 25.0313 9.91375 24.5063C9.97972 24.4309 10.0465 24.378 10.1027 24.3335C10.287 24.1877 10.3577 24.1318 9.91375 23.6663C7.80308 21.4875 4.11976 19.2713 3.43501 18.8625C2.25276 18.1909 1.10622 17.4587 0 16.6688V12.12C2.49819 11.2125 8.22823 9.81376 12.5135 9.66751C14.8951 9.57376 18.2774 9.47626 20.4521 11.7975C22.4499 10.305 24.3611 9.77626 25.2942 9.70126C26.2272 9.62626 26.8744 9.99001 27.1754 10.5525C28.2476 12.5888 26.3627 12.5588 25.8134 11.775C25.6065 11.4638 25.0383 11.58 24.5718 11.775C23.4184 12.2014 22.3383 12.8035 21.3701 13.56C21.8968 15.6675 21.7613 19.3238 17.0058 22.62ZM19.8162 14.865C19.8162 14.865 19.6732 17.955 17.2352 19.74C17.2841 18.555 18.4806 16.0163 19.8162 14.865ZM14.455 32.3288C14.9629 36.855 13.8229 34.6838 13.7025 34.3838C13.2134 33.2588 12.5023 29.5575 12.5212 27.4838C13.5495 28.9191 14.2131 30.5816 14.455 32.3288ZM13.5007 22.2597C14.0207 21.9622 14.6045 21.6282 14.9704 21.3751C15.1161 18.1832 16.5619 15.1888 18.9735 13.0838C17.5096 11.2706 14.2184 11.4629 12.3992 11.5692C12.3108 11.5743 12.2259 11.5793 12.1449 11.5838C9.86896 11.7429 7.60642 12.0548 5.37265 12.5176C4.4734 12.7292 3.73741 12.9486 2.97541 13.1757C2.81924 13.2222 2.66198 13.2691 2.50199 13.3163C2.46434 13.3272 2.42411 13.3387 2.3818 13.3507C1.59544 13.5745 0.0940232 14.0017 1.21151 14.9626C2.0007 15.5849 2.82201 16.1657 3.67208 16.7026C4.30481 17.1331 5.0663 17.6358 5.7683 18.0993C6.4605 18.5563 7.09485 18.9751 7.49085 19.2488C8.48477 19.9346 9.43125 20.6863 10.3239 21.4988C11.8363 20.9813 12.2615 21.6413 12.4045 22.4288C12.4886 22.8692 12.7297 22.7167 12.9144 22.5998C12.9278 22.5913 12.941 22.5829 12.9538 22.5751C13.1168 22.4794 13.3042 22.3722 13.5007 22.2597Z" fill="white"/>
</svg>
