<svg width="32" height="48" viewBox="0 0 32 48" fill="none" xmlns="http://www.w3.org/2000/svg">
<rect width="31.724" height="48" fill="#E1251B"/>
<path fill-rule="evenodd" clip-rule="evenodd" d="M17.0058 22.62C16.8289 27.15 20.3956 27.2288 21.3437 27.15C23.9096 26.94 27.593 25.035 31.7127 22.2975V24.7238C27.3785 27.3975 23.2889 28.9013 20.8922 28.9913C17.999 29.0963 15.5798 28.0313 15.1171 23.805C15.1171 23.805 14.3495 24.2138 13.4052 24.675C13.1042 24.81 13.044 24.9263 13.3337 25.3463C15.9184 29.2013 16.1028 32.49 16.1367 33.4988C16.2139 34.623 16.2013 35.7515 16.099 36.8738C15.783 38.9775 14.4963 38.8275 13.3676 37.5038C12.479 36.3043 11.8395 34.9402 11.4864 33.4913C10.9893 31.382 10.7169 29.2263 10.6737 27.06C10.6795 26.3527 10.5383 26.2795 10.3673 26.191C10.3144 26.1636 10.2586 26.1347 10.2035 26.085C9.82722 25.7513 9.51495 25.0313 9.91375 24.5063C9.97972 24.4309 10.0465 24.378 10.1027 24.3335C10.287 24.1877 10.3577 24.1318 9.91375 23.6663C7.80308 21.4875 4.11976 19.2713 3.43501 18.8625C2.25276 18.1909 1.10622 17.4587 0 16.6688V12.12C2.49819 11.2125 8.22823 9.81376 12.5135 9.66751C14.8951 9.57376 18.2774 9.47626 20.4521 11.7975C22.4499 10.305 24.3611 9.77626 25.2942 9.70126C26.2272 9.62626 26.8744 9.99001 27.1754 10.5525C28.2476 12.5888 26.3627 12.5588 25.8134 11.775C25.6065 11.4638 25.0383 11.58 24.5718 11.775C23.4184 12.2014 22.3383 12.8035 21.3701 13.56C21.8968 15.6675 21.7613 19.3238 17.0058 22.62ZM19.8162 14.865C19.8162 14.865 19.6732 17.955 17.2352 19.74C17.2841 18.555 18.4806 16.0163 19.8162 14.865ZM14.455 32.3288C14.9629 36.855 13.8229 34.6838 13.7025 34.3838C13.2134 33.2588 12.5023 29.5575 12.5212 27.4838C13.5495 28.9191 14.2131 30.5816 14.455 32.3288ZM13.5007 22.2597C14.0207 21.9622 14.6045 21.6282 14.9704 21.3751C15.1161 18.1832 16.5619 15.1888 18.9735 13.0838C17.5096 11.2706 14.2184 11.4629 12.3992 11.5692C12.3108 11.5743 12.2259 11.5793 12.1449 11.5838C9.86896 11.7429 7.60642 12.0548 5.37265 12.5176C4.4734 12.7292 3.73741 12.9486 2.97541 13.1757C2.81924 13.2222 2.66198 13.2691 2.50199 13.3163C2.46434 13.3272 2.42411 13.3387 2.3818 13.3507C1.59544 13.5745 0.0940232 14.0017 1.21151 14.9626C2.0007 15.5849 2.82201 16.1657 3.67208 16.7026C4.30481 17.1331 5.0663 17.6358 5.7683 18.0993C6.4605 18.5563 7.09485 18.9751 7.49085 19.2488C8.48477 19.9346 9.43125 20.6863 10.3239 21.4988C11.8363 20.9813 12.2615 21.6413 12.4045 22.4288C12.4886 22.8692 12.7297 22.7167 12.9144 22.5998C12.9278 22.5913 12.941 22.5829 12.9538 22.5751C13.1168 22.4794 13.3042 22.3722 13.5007 22.2597Z" fill="white"/>
</svg>
