<svg width="23" height="16" viewBox="0 0 23 16" fill="none" xmlns="http://www.w3.org/2000/svg">
<path d="M12.3798 0.290631C13.7892 0.300658 14.3656 0.308681 15.6911 0.431812C17.0732 0.560157 18.3755 0.972466 19.4737 1.87369C20.4166 2.64737 21.0852 3.63683 21.5553 4.74421C22.7654 7.59467 22.3655 10.2282 20.387 12.6122C20.0954 12.9635 19.7817 13.3048 19.4352 13.6004C18.2211 14.6364 16.7853 15.1458 15.2142 15.3311C13.184 15.5705 11.1465 15.6712 9.10422 15.6552C7.98761 15.6463 6.89026 15.4703 5.81056 15.1711C4.14087 14.7082 2.83576 13.7512 1.92692 12.2869C0.689589 10.2939 0.155351 8.1257 0.732503 5.82271C1.41554 3.09577 3.22721 1.41886 5.94893 0.748662C7.31059 0.413361 8.70956 0.3532 10.1057 0.313493C10.6355 0.298252 11.1252 0.281006 11.6555 0.281006C11.8837 0.281006 12.1119 0.291033 12.3798 0.291033V0.290631ZM12.1416 1.48143C12.0425 1.48143 11.6852 1.49146 11.546 1.49146C10.8116 1.50149 10.2617 1.52114 9.5422 1.5809C8.40032 1.67555 7.2396 1.73772 6.13102 2.00043C3.88378 2.53226 2.42786 3.97574 1.90847 6.23903C1.48051 8.10244 1.92852 9.85355 2.88068 11.4759C3.63832 12.767 4.75211 13.6129 6.21405 13.9967C7.0896 14.2265 7.97518 14.3873 8.87841 14.4038C11.019 14.4435 13.1547 14.3444 15.274 14.0312C15.9775 13.9273 16.6934 13.7913 17.354 13.5399C18.159 13.233 18.8268 12.6876 19.3867 12.0118C20.7844 10.3248 21.3804 8.41849 20.786 6.28475C20.0741 3.72988 18.5272 1.97677 15.7348 1.68599C14.4025 1.54721 13.3821 1.51152 12.1416 1.48184V1.48143Z" fill="#333333"/>
<path d="M6.40848 6.16458C6.74018 5.88543 7.13283 5.68128 7.55397 5.56537C8.85827 5.206 10.2552 6.08998 10.5725 7.47892C10.8264 8.59071 10.5231 9.55049 9.61551 10.2387C8.69503 10.937 7.68351 10.9948 6.65836 10.422C6.62065 10.4012 6.58175 10.3827 6.50394 10.343C6.49793 10.4577 6.4879 10.548 6.4891 10.6378C6.49391 11.1412 6.50635 11.6449 6.50635 12.1483C6.50635 12.6187 6.2304 12.9436 5.84056 12.95C5.43908 12.9564 5.14749 12.628 5.15511 12.1431C5.1864 10.1204 5.2221 8.09818 5.26381 6.07554C5.27383 5.58662 5.632 5.30226 6.01703 5.44905C6.25086 5.53849 6.34993 5.7266 6.38963 5.95602C6.40407 6.04024 6.40608 6.12648 6.40969 6.16458H6.40848ZM7.93619 9.53685C8.77364 9.54246 9.39572 8.95769 9.40093 8.15954C9.40655 7.35779 8.82418 6.68518 8.11949 6.67996C7.35824 6.67395 6.67039 7.41193 6.63148 8.20888C6.59459 8.95689 7.15128 9.57696 7.93619 9.53685V9.53685Z" fill="#333333"/>
<path d="M15.9804 10.9949C15.2476 10.9612 14.6849 10.6896 14.2533 10.1574C13.9978 9.84256 14.0042 9.45913 14.2633 9.22851C14.52 8.9999 14.8702 9.03198 15.167 9.31194C15.2376 9.37852 15.2941 9.47598 15.3771 9.51047C15.5829 9.5959 15.8003 9.70981 16.0124 9.7086C16.4047 9.7062 16.5459 9.42063 16.2932 9.12383C16.0574 8.84709 15.7421 8.63813 15.4618 8.39948C15.1878 8.16646 14.8742 7.96592 14.6472 7.69359C14.1992 7.15654 14.2116 6.44503 14.6492 5.94167C15.465 5.00355 16.9309 5.33685 17.4507 6.32069C17.5915 6.58741 17.5201 6.8802 17.3095 7.03622C17.1126 7.18221 16.8262 7.15774 16.6004 6.97525C16.4769 6.87538 16.3654 6.75466 16.2282 6.68006C16.1019 6.61147 15.9471 6.55813 15.8075 6.56295C15.7064 6.56655 15.5656 6.6568 15.5243 6.74624C15.4943 6.81121 15.5733 6.96723 15.6479 7.031C15.8207 7.1794 16.0313 7.28408 16.2074 7.42968C16.5663 7.72607 16.9506 8.00442 17.2554 8.35055C17.705 8.86072 17.8157 9.47959 17.5093 10.1033C17.1952 10.7426 16.5992 10.9483 15.98 10.9945L15.9804 10.9949Z" fill="#333333"/>
<path d="M11.7638 6.80629C11.5131 6.78865 11.2913 6.78744 11.0747 6.75415C10.7831 6.70963 10.587 6.48342 10.5798 6.21871C10.5726 5.94718 10.7735 5.71255 11.0755 5.65439C11.187 5.63274 11.3033 5.63073 11.4176 5.62592C11.5299 5.62151 11.6426 5.62512 11.7686 5.62512C11.7995 5.22885 11.8259 4.86106 11.858 4.49367C11.8672 4.38859 11.8833 4.2819 11.9134 4.18123C11.9916 3.92174 12.2274 3.75368 12.4669 3.77494C12.7292 3.7982 12.9397 4.00195 12.969 4.30837C13.0003 4.63285 12.9971 4.96093 13.0095 5.28741C13.0135 5.39089 13.0191 5.49477 13.0239 5.59263C13.7407 5.72458 13.9356 5.86215 13.9288 6.21871C13.9224 6.55843 13.729 6.6964 13.0785 6.81432C13.0785 6.90496 13.0821 7.00001 13.0781 7.09467C13.0316 8.17838 12.9842 9.2621 12.9361 10.3458C12.9337 10.3984 12.9261 10.4517 12.9149 10.503C12.8511 10.7938 12.6229 10.9903 12.3614 10.9823C12.0967 10.9743 11.868 10.7718 11.842 10.4726C11.8119 10.1304 11.8159 9.7847 11.8107 9.44058C11.7983 8.62839 11.7894 7.81581 11.7782 7.00362C11.7774 6.94346 11.7698 6.8833 11.7642 6.80629H11.7638Z" fill="#333333"/>
</svg>
