<svg xmlns="http://www.w3.org/2000/svg" width="24" height="20" viewBox="0 0 24 20">
    <path fill="#FFF" fill-rule="nonzero" d="M24 2.375a9.665 9.665 0 0 1-2.832.781A5.012 5.012 0 0 0 23.33.375c-.944.578-2.01 1-3.122 1.219A4.85 4.85 0 0 0 16.614 0c-2.726 0-4.919 2.266-4.919 5.047 0 .39.046.781.122 1.156C7.736 5.984 4.097 3.984 1.675.922a5.11 5.11 0 0 0-.67 2.547c0 1.75.868 3.297 2.193 4.203a4.86 4.86 0 0 1-2.223-.64v.062c0 2.453 1.69 4.484 3.944 4.953-.411.11-.853.172-1.295.172-.32 0-.624-.031-.929-.078.625 2 2.437 3.453 4.6 3.5a9.693 9.693 0 0 1-6.107 2.156c-.411 0-.792-.016-1.188-.063A13.644 13.644 0 0 0 7.553 20c9.046 0 13.995-7.688 13.995-14.36 0-.218 0-.437-.015-.656A10.73 10.73 0 0 0 24 2.375z"/>
</svg>
