<svg xmlns="http://www.w3.org/2000/svg" viewBox="0 0 707 707">
  <path fill="#ffb92a" d="M707 597c0 60.7-49.2 110-110 110H109.1A109.2 109.2 0 010 597.8V105.3C0 47 47.1 0 105.3 0h496.5C659.9 0 707 47.1 707 105.3v491.6"/>
  <path fill="#2d2926" d="M33.9 571.7a14.4 14.4 0 0017.4 10.7l21.9-5.3v-29.7l-28.7 6.9A14.4 14.4 0 0034 571.7zM44.5 516a14.4 14.4 0 006.8 28.1l21.9-5.2v-29.7zm0-38.2a14.4 14.4 0 006.8 28l21.9-5.2V471zM171.6 501l-43.8-29.8v73a4 4 0 11-8 0l-.2-89.5a18.8 18.8 0 00-37.6 0v156.1a51 51 0 0051 51h3.3a49.9 49.9 0 0049.8-50.2v-82.4a37 37 0 00-14.5-28.2zm508-229.5c-1.7 26-13.8 49.7-48.6 57.6-29.8 6.6-49.2-9-55-40-7.1-37.6 3.6-88.7 47.3-98.5 38.2-8.6 53.4 19 54.9 35.9l-30 6.7c-2.2-10-7-19.5-21-16.4-21.8 4.9-23.6 42.8-19.7 63.6 3.4 18 11.5 24.5 22.7 22 10.2-2.3 16-10.1 18.5-24zm-148 17.2a172 172 0 00-20.3 5.8c-16.7 7-22.4 14.7-20.3 25.7 1.4 7.5 6.8 12.3 16.9 10 21.3-4.8 23.2-25 23.6-39.4zm36.4 52.6h-.2l-31 7c-2.2-3.8-4.3-10-5.2-14.3-4.4 9.3-10.5 20-32.3 25-23.2 5.2-36.4-10.6-39.3-25.9-6.8-36 19-53.4 45.5-60.2 9.5-2.4 17.5-3.8 26.5-6.1l-.5-8c-.2-10-2.4-22-19-18.2-14.8 3.3-15.6 12.7-17 19.5l-31.5 7c.4-21.6 9.9-42.6 46.5-50.8 28.6-6.5 52.5 2 52.2 37.3v64s.8 10.8 2 16c1.3 5.3 3.3 7.7 3.3 7.7zm-109.9-72.6c-21.5 5-32 20-32 49.6l-.3 56-31 7v-135l29.9-6.8c.4 3.3 1 13.3 1 24.3 5-17.3 12-26.2 32.4-30.8zm-107.4 39.4c.1-2.3-.2-4.3-.5-5.8-1.9-11.3-8.1-20-21.8-17-14.2 3.2-21.2 15.2-22.5 32.9zm-45 33.8c0 2.9-.1 5.2.3 8 2.4 13.8 9.1 24.5 23 21.4 12.9-2.9 17.1-11.4 19.6-20.8l32.4-7.3c-3.3 20.8-14.6 47-50 55-31.8 7-51-11.3-56.2-42.6-5.8-34.3 3.1-85.5 50.2-96 34.7-7.9 51 12.7 55.5 39.3a100 100 0 011 26zm-107.9-51.4l17.5-4v-25.1l31-6.9v25l22-4.9-.3 27.2-22 5-.2 68c.2 8.3 1.6 13.5 11 11.4a68 68 0 009.8-3v25.5a79.6 79.6 0 01-18.7 6.6c-17.7 4-33-7.5-33-31l.1-70.6-17.5 4zm-46.2 7.7c-19.8 4.5-32 26.8-32 26.8v-16.8l-31 6.8v107.2a34 34 0 0131 3.3v-52.3c.2-25 7.4-39.7 22.4-43 13.2-3 18.1 6.8 17.9 22V434l30.5-6.9.3-81.6c.2-40-15.9-52.5-39.1-47.3zm-84.9-23.1v179.7l-32 7.2V282.4l32-7.2"/>
</svg>