<?xml version="1.0" encoding="utf-8"?>
<!-- Generator: Adobe Illustrator 21.0.2, SVG Export Plug-In . SVG Version: 6.00 Build 0)  -->
<svg version="1.1" id="Layer_1" xmlns="http://www.w3.org/2000/svg" xmlns:xlink="http://www.w3.org/1999/xlink" x="0px" y="0px"
	 viewBox="0 0 820 237.3" style="enable-background:new 0 0 820 237.3;" xml:space="preserve">
<g>
	<path style="fill:#414042;" d="M114.4,157.5l-11.2,0l0-45.4c0-14.3-6.8-23.2-18.9-23.2c-12.3,0-25.8,7-25.8,26l0,42.5l-11.2,0
		l0-77.9l11.2,0l0,12.8c4.8-10.2,18.7-14.5,25.8-14.5c13.2,0,22.5,6.2,27,17c7-14.7,21-17,28.8-17c19,0,30.2,13,30,34.2l0,45.4
		l-11.2,0l0-45.4c0-14.3-6.8-23.2-18.8-23.2c-12.3,0-25.8,7-25.8,26L114.4,157.5z"/>
	<path style="fill:#414042;" d="M186.7,118.3c0-24.7,18.5-40.4,40.7-40.4c22.2,0,40.7,15.7,40.7,40.3c0,24.7-18.5,40.9-40.7,40.9
		S186.7,143,186.7,118.3z M257.1,118.3c0-18-13.5-29.3-29.7-29.3s-29.7,11.3-29.7,29.4c0,18,13.5,29.8,29.7,29.8
		S257.1,136.3,257.1,118.3z"/>
	<path style="fill:#414042;" d="M290,157.4l0-67.9l-14,0l0-10l14,0l0-29.2l11.2,0l0,29.2l16.5,0l0,10l-16.5,0l0,67.9L290,157.4z"/>
	<path style="fill:#414042;" d="M386.8,79.5l11.2,0l0,77.9l-11.2,0l0-12.8c-4.8,10.2-16.8,14.5-25.8,14.5c-19,0-30.2-13-30-34.2
		l0-45.4l11.2,0l0,45.4c0,14.3,6.8,23.2,18.9,23.2c12.3,0,25.8-7,25.8-26L386.8,79.5z"/>
	<path style="fill:#414042;" d="M424.6,135.1c1.5,5.8,5.2,13.5,18.3,13.5c10,0,16.5-5,16.5-12.3c0-5.2-3-10-11.2-12l-10.8-2.5
		c-9.7-2.3-21.7-7.2-19.7-25.3c1.7-11.2,12.7-18.5,25.3-18.5c12,0,22.5,5.8,24.5,20.2l-10.8,0c-1.3-6-7-9.5-13.7-9.5
		c-7.5,0-13.7,4-14.5,9.5c-1.7,9,6,11.7,11.5,13l10.7,2.5c14.7,3.5,19.7,12,19.7,22.7c0,13.5-12.3,22.9-28.5,22.9
		c-13.2,0-26.5-8.8-27.2-24L424.6,135.1z"/>
	<path style="fill:#414042;" d="M492,157.4l-5,0l0-107.9l5,0l0,49.3c6.8-12.5,20.2-21,35.7-21c22.3,0,40.5,18.2,40.5,40.5
		c0,22.5-18.2,40.7-40.5,40.7c-15.5,0-28.9-8.5-35.7-21L492,157.4z M527.7,82.8c-19.7,0-35.7,16-35.7,35.5v1.5
		c0.7,19,16.5,34.2,35.7,34.2c19.5,0,35.5-16,35.5-35.7C563.2,98.8,547.2,82.8,527.7,82.8z"/>
	<path style="fill:#414042;" d="M656,138c-6.8,12.5-20.2,21-35.7,21c-22.3,0-40.5-18.2-40.5-40.7c0-22.3,18.2-40.5,40.5-40.5
		c15.5,0,28.9,8.5,35.7,21l0-19.3l5,0l0,77.9l-5,0L656,138z M620.3,154c19.2,0,35-15.2,35.7-34.2v-1.5c0-19.5-16-35.5-35.7-35.5
		c-19.5,0-35.5,16-35.5,35.5C584.8,138,600.8,154,620.3,154z"/>
	<path style="fill:#414042;" d="M677.9,79.4l5,0l0,17.2c4.3-13.8,17.2-18.8,28.8-18.9c18,0,31.9,12.7,31.9,33.7l0,45.9l-5,0l0-45.9
		c0-17.8-11.7-28.7-26.9-28.7c-14.7,0-28.2,8.2-28.8,30l0,44.5l-5,0L677.9,79.4z"/>
	<path style="fill:#414042;" d="M809.7,157.3l-44.4-42.3l0,42.4l-5,0l0-107.9l5,0l0,63.2l32.3-33.2l7.2,0l-33.5,34.2l45.7,43.7
		L809.7,157.3z"/>
	<g>
		<linearGradient id="SVGID_1_" gradientUnits="userSpaceOnUse" x1="3" y1="37.2114" x2="211.2381" y2="37.2114">
			<stop  offset="0" style="stop-color:#FFC600"/>
			<stop  offset="0.1987" style="stop-color:#FF9B00"/>
			<stop  offset="0.3702" style="stop-color:#E9371D"/>
			<stop  offset="0.5862" style="stop-color:#A52BB4"/>
			<stop  offset="0.7924" style="stop-color:#4A2BB4"/>
			<stop  offset="0.9942" style="stop-color:#00D1AF"/>
		</linearGradient>
		<path style="fill:url(#SVGID_1_);" d="M107.1,12.9c44.8,0,83.9,23.7,104.1,58.6C193.8,31.2,153.8,3,107.1,3
			C60.5,3,20.4,31.2,3,71.4C23.3,36.5,62.3,12.9,107.1,12.9z"/>
		<linearGradient id="SVGID_2_" gradientUnits="userSpaceOnUse" x1="212.994" y1="223.9127" x2="1.8894" y2="145.1621">
			<stop  offset="0" style="stop-color:#FFC600"/>
			<stop  offset="0.1987" style="stop-color:#FF9B00"/>
			<stop  offset="0.3702" style="stop-color:#E9371D"/>
			<stop  offset="0.5862" style="stop-color:#A52BB4"/>
			<stop  offset="0.7924" style="stop-color:#4A2BB4"/>
			<stop  offset="0.9942" style="stop-color:#00D1AF"/>
		</linearGradient>
		<path style="fill:url(#SVGID_2_);" d="M107.1,224.4c-44.8,0-83.9-23.7-104.1-58.6c17.4,40.3,57.5,68.5,104.1,68.5
			c46.7,0,86.7-28.2,104.1-68.5C191,200.7,151.9,224.4,107.1,224.4z"/>
	</g>
</g>
</svg>
