<?xml version="1.0" encoding="UTF-8"?>
<svg width="20px" height="24px" viewBox="0 0 20 24" version="1.1" xmlns="http://www.w3.org/2000/svg" xmlns:xlink="http://www.w3.org/1999/xlink">
    <title>01/04/Contenu/Contour/Protection</title>
    <defs>
        <filter color-interpolation-filters="auto" id="filter-1">
            <feColorMatrix in="SourceGraphic" type="matrix" values="0 0 0 0 0.000000 0 0 0 0 0.474510 0 0 0 0 0.266667 0 0 0 1.000000 0"></feColorMatrix>
        </filter>
    </defs>
    <g id="3.4_RWD_Se-connecter_Domaines-virtuels" stroke="none" stroke-width="1" fill="none" fill-rule="evenodd">
        <g id="Tablette_Desjardins-Card" transform="translate(-554.000000, -622.000000)">
            <g id="01/04/Contenu/Contour/Protection" transform="translate(552.000000, 622.000000)" filter="url(#filter-1)">
                <g>
                    <path d="M12,6.03961325e-14 C15.3137085,6.03961325e-14 18,2.68629151 18,6 L18,6 L18,7 L19,7 C20.6568543,7 22,8.34314578 22,10 L22,10 L22,21 C22,22.6568543 20.6568543,24 19,24 L19,24 L5,24 C3.34314575,24 2,22.6568543 2,21 L2,21 L2,10 C2,8.34314578 3.34314575,7 5,7 L5,7 L6,7 L6,6 C6,2.68629151 8.68629152,6.03961325e-14 12,6.03961325e-14 Z M19,9.00000003 L5.00000001,9.00000003 C4.44771526,9.00000003 4.00000001,9.44771528 4.00000001,10 L4.00000001,10 L4.00000001,21 C4.00000001,21.5522848 4.44771526,22 5.00000001,22 L5.00000001,22 L19,22 C19.5522848,22 20,21.5522848 20,21 L20,21 L20,10 C20,9.44771528 19.5522848,9.00000003 19,9.00000003 L19,9.00000003 Z M12,12 C12.908623,12.0082224 13.6975123,12.6279322 13.9206571,13.5087669 C14.1438019,14.3896016 13.7451149,15.3101641 12.95,15.75 C12.9772649,15.8308588 12.9940681,15.9148747 13,16 L13,16 L13,18 C13,18.5522848 12.5522848,19 12,19 C11.4477153,19 11,18.5522848 11,18 L11,18 L11,16 C11.005932,15.9148747 11.0227352,15.8308588 11.05,15.75 C10.2548852,15.3101641 9.85619819,14.3896016 10.079343,13.5087669 C10.3024878,12.6279322 11.091377,12.0082224 12,12 Z M12,2.00000001 C9.79086103,2.00000001 8.00000002,3.79086101 8.00000002,6.00000001 L8.00000002,6.00000001 L8.00000002,7.00000001 L16,7.00000001 L16,6.00000001 C16,3.79086101 14.209139,2.00000001 12,2.00000001 Z" id="01/04/Contenu/Contour/Cadenas" fill="#2F2F2F"></path>
                </g>
            </g>
        </g>
    </g>
</svg>