<svg xmlns="http://www.w3.org/2000/svg" width="240" height="86" viewBox="0 0 240 86"><path d="M188.5 6.8c3 0 5.9 0.3 8.4 1.1 7.2 2.3 11.7 8.3 8.9 18.3 -2.4 8.6-9.6 15.6-18.7 18.4 -2.9 0.9-6.2 1.3-9.2 1.3H170l9.8-35.7 -13.6 5.1 -8 29c-0.7 2.4-2.3 5.5-4.9 8.3h22.4c5.6 0 11.4-0.7 16.3-2.2 13.1-4.1 22.5-13.2 25.6-24.2 3.5-12.7-2.6-21.7-15.4-24.9 -3.5-0.9-7.5-1.2-11.9-1.2h-33.9c1 3.2 5.5 6.8 12.2 6.8H188.5z" fill="#008C53"/><path d="M137.3 48.8c1.3 0 3.3-0.5 3.7-1.8 0.6-1.8-2.1-2.8-4-3.8 -1.8-1-5.4-3.2-4.9-6.9 0.6-4.3 4.5-7.1 10.7-7.1 4 0 6.5 0.9 7.8 1.6l-2.6 3.8c-1.1-0.5-3.1-1.2-5.7-1.2 -1.4 0-3.3 0.3-3.7 1.7 -0.4 1.4 1.7 2.5 3.7 3.6 2.4 1.2 6 3.3 5.5 6.8 -0.7 4.8-6.2 7.6-11.7 7.6 -4.8 0-7.6-1.4-8.8-2l2.7-4C131.2 47.6 133.6 48.8 137.3 48.8z"/><path d="M33.5 52.5h-7L48 20.7h5.5l3.9 31.8h-7.1l-0.6-5.4H37L33.5 52.5zM47.7 30.5l-7.9 12.2h9.2L47.7 30.5z"/><path d="M76.7 29.2c2.9-0.1 5.6 0.3 7.8 1.3l-2.3 4.2c-1.7-0.8-3.7-1.1-5.5-0.9 -3.1 0.2-7.3 2.6-8.5 7.4 -1.2 4.9 1.7 7.2 4.7 7.4 2.2 0.2 4.2-0.2 6.2-1l0.5 3.7c-0.8 0.5-2.1 0.9-3.4 1.2 -1.7 0.4-3.5 0.6-5.4 0.6 -7.5-0.1-11.8-4.9-10-11.9C62.6 33.9 69.8 29.4 76.7 29.2z"/><path d="M98.7 29.2c2.9-0.1 5.6 0.3 7.8 1.3l-2.3 4.2c-1.7-0.8-3.7-1.1-5.5-0.9 -3.1 0.2-7.3 2.6-8.5 7.4 -1.2 4.9 1.7 7.2 4.7 7.4 2.2 0.2 4.2-0.2 6.2-1l0.5 3.7c-0.8 0.5-2.1 0.9-3.4 1.2 -1.7 0.4-3.5 0.6-5.4 0.6 -7.5-0.1-11.8-4.9-10-11.9C84.6 33.9 91.8 29.4 98.7 29.2z"/><path d="M117.7 48.6c3.3 0 6.9-1.3 7.9-1.6l-1.7 4.3c-2 0.8-5.6 1.8-9.8 1.7 -7.1-0.1-10.7-4.5-8.8-11.8 1.9-7.4 8.5-12 14.7-12 6.7 0 10.5 5.1 6.9 13.8h-14.9C111.4 45.1 112.2 48.6 117.7 48.6zM116.8 17.5l6.9 6.6 -2.3 2.5 -8.3-5.2L116.8 17.5zM118.5 33.7c-3 0-4.5 2.6-5.5 5.4h7.7C122 37 122 33.7 118.5 33.7z"/><path d="M75.8 62.1H79l4 22.2h-3l-1-6.7h-9.3l-3.9 6.7h-3.3L75.8 62.1zM71 75.1h7.6L77 64.7h-0.1L71 75.1z"/><path d="M88.6 70.5h-2.7l0.5-2.3H89c0.8-3.3 1-6.4 5.2-6.4 0.7 0 1.5 0.1 2.2 0.2L96 64.3c-0.4-0.1-0.8-0.2-1.2-0.2 -2.6 0-2.5 2.1-3.1 4h3.1l-0.4 2.3h-3.1l-3 13.7h-2.6L88.6 70.5z"/><path d="M97.8 70.5H95l0.5-2.3h2.7c0.8-3.3 1-6.4 5.2-6.4 0.7 0 1.5 0.1 2.2 0.2l-0.4 2.2c-0.4-0.1-0.8-0.2-1.2-0.2 -2.6 0-2.5 2.1-3.1 4h3.1l-0.4 2.3h-3.1l-3 13.7h-2.6L97.8 70.5z"/><path d="M104.9 73c0.5-3.6 3.5-5.2 7-5.2 3.1 0 5.9 0.8 5.9 4.1 0 0.9-0.3 2-0.5 2.9l-1 4.4c-0.1 0.7-0.4 1.6-0.4 2.3 0 0.7 0.3 1 0.8 1 0.2 0 0.6-0.1 0.8-0.2l-0.4 2c-0.4 0.2-1.1 0.4-1.6 0.4 -1.5 0-2.2-0.9-2.1-2.3l-0.1-0.1c-1.1 1.5-2.7 2.3-5.4 2.3 -2.7 0-4.9-1.2-4.9-4.5 0-4.7 4.6-5 8.1-5.3 2.8-0.2 4-0.4 4-2.5 0-1.7-1.8-2.1-3.2-2.1 -2 0-4 0.8-4.3 2.9H104.9zM108.5 82.3c2.1 0 3.6-0.7 4.5-2.1 0.9-1.2 1-2.6 1.4-4.1h-0.1c-1.1 0.7-3.2 0.8-5.2 1.1 -1.9 0.3-3.6 0.9-3.6 2.9C105.6 81.5 107 82.3 108.5 82.3z"/><path d="M122.6 68.2h2.6l-3.4 16.1h-2.6L122.6 68.2zM125.9 65.3h-2.7l0.7-3.2h2.7L125.9 65.3z"/><path d="M129.5 68.2h2.5l-0.8 3.4h0.1c1.2-2.2 3.1-3.8 5.8-3.8 0.3 0 0.6-0.1 0.9 0l-0.6 2.8c-0.2 0-0.5 0-0.8 0 -0.7 0-1 0-1.6 0.2 -1.5 0.4-2.6 1.3-3.4 2.6 -0.7 1-1.1 2.5-1.3 3.8l-1.5 7.1h-2.6L129.5 68.2z"/><path d="M139.9 77c-0.1 0.5-0.1 0.9-0.1 1.4 0 2.5 2 3.9 4.2 3.9 2.3 0 3.9-1.1 4.6-3.1h2.6c-0.8 3.5-3.8 5.4-7.3 5.4 -5.3 0-6.8-3.7-6.8-6.5 0-6.1 3.9-10.3 8.3-10.3 4.7 0 6.8 2.6 6.8 7.1 0 0.8-0.2 1.6-0.2 2.1H139.9zM149.5 74.7c0.2-2.3-0.8-4.5-3.8-4.5 -3.1 0-4.8 2-5.6 4.5H149.5z"/><path d="M164.5 72.9c0.1-1.8-1.5-2.8-3.3-2.8 -1.6 0-3.4 0.4-3.4 2 0 1.5 2.1 2.1 4.2 3s4.3 2 4.3 4.5c0 3.6-3.4 5-6.6 5 -3.7 0-6.5-1.3-6.5-5.4h2.6c-0.1 2.4 1.9 3.1 4.1 3.1 1.7 0 3.7-0.6 3.7-2.5 0-1.6-2.1-2.2-4.2-3 -2.1-0.8-4.3-1.9-4.3-4.3 0-3 3-4.6 6-4.6 3 0 6.1 1.3 6.1 5.1H164.5z"/><path d="M0 44.8c0-15.7 12.3-34.7 39.4-42C46.8 0.9 55.9 0 65.5 0h69.9v2.7H65.5c-8.2 0-16.1 0.5-22.6 2 -29 6.4-41 25.5-42.5 40.2C0.4 45.3 0 45.3 0 44.8z"/><path d="M239.6 33.6c-1.5 14.7-13.5 33.8-42.5 40.2 -5.9 1.3-13 1.9-20.5 2v2.7c8.9-0.1 17.1-1 24-2.9 27.1-7.3 39.4-26.3 39.4-42C240 33.1 239.6 33.1 239.6 33.6z"/></svg>