<svg width="176" height="64" viewBox="0 0 176 64" fill="none" xmlns="http://www.w3.org/2000/svg">
<g clip-path="url(#clip0_419_15189)">
<path d="M144 3.11111H32C24.2889 3.11111 17.0222 6.11111 11.5778 11.5778C6.11111 17.0222 3.11111 24.2889 3.11111 32C3.11111 39.7111 6.11111 46.9778 11.5778 52.4222C17.0222 57.8889 24.2889 60.8889 32 60.8889H144C151.711 60.8889 158.978 57.8889 164.422 52.4222C169.889 46.9556 172.889 39.7111 172.889 32C172.889 24.2889 169.889 17.0222 164.422 11.5778C158.978 6.11111 151.711 3.11111 144 3.11111Z" fill="#6E298C"/>
<path d="M144 0H32C14.3333 0 0 14.3333 0 32C0 49.6667 14.3333 64 32 64H144C161.667 64 176 49.6667 176 32C176 14.3333 161.667 0 144 0ZM144 60.8889H32C24.2889 60.8889 17.0222 57.8889 11.5778 52.4222C6.11111 46.9778 3.11111 39.7111 3.11111 32C3.11111 24.2889 6.11111 17.0222 11.5778 11.5778C17.0222 6.11111 24.2889 3.11111 32 3.11111H144C151.711 3.11111 158.978 6.11111 164.422 11.5778C169.889 17.0444 172.889 24.2889 172.889 32C172.889 39.7111 169.889 46.9778 164.422 52.4222C158.978 57.8889 151.711 60.8889 144 60.8889Z" fill="white"/>
<path d="M90.8444 21.4667C90.8 17.7778 87.7556 14.7778 84.0667 14.7778C80.4 14.7778 77.3556 17.7778 77.2889 21.4667V25.4444L77.6222 25.2222C78.6 24.6 79.6667 24.1333 80.7778 23.8L80.9333 23.7556V21.4889C80.9556 19.7778 82.3778 18.4 84.0667 18.4C85.7778 18.4 87.2 19.8 87.2222 21.5333C87.2222 21.6889 87.2222 22.2 87.2222 22.8222V23.7556L87.3778 23.8C88.4889 24.1111 89.5556 24.5778 90.5333 25.2222L90.8667 25.4444V25.0667C90.8444 22.6889 90.8444 21.7333 90.8444 21.4667Z" fill="white"/>
<path d="M84.0667 24.6667C78.1333 24.6667 73.3111 29.4889 73.3111 35.4222C73.3111 41.3556 78.1333 46.1778 84.0667 46.1778C90 46.1778 94.8222 41.3556 94.8222 35.4222C94.8222 29.4889 90 24.6667 84.0667 24.6667ZM87.7778 38.4222C87.2444 38.8 87.6444 39.7556 87.7556 40.3111C86.6889 40.1556 85.6667 39.8889 84.6 39.8667C83.9333 39.8444 84.4444 41.6667 84.4444 43.5556C84.2444 43.6444 83.8222 43.6222 83.6667 43.5556C83.6667 41.8667 84.2 39.8444 83.5111 39.8667C82.4444 39.8889 81.4 40.1556 80.3556 40.3111C80.5556 39.2222 80.7333 38.7556 79.8444 38.0444C78.9556 37.3333 78.0667 36.6222 77.2 35.9111C78.6 35.4222 77.8222 34.2 77.5111 33.0889C77.9778 33.1778 78.7556 33.5333 79.2222 33.4444C79.8444 33.6444 79.8667 32.8 79.9778 32.4222C80.4222 32.9111 80.8444 33.4 81.2889 33.8889C81.4889 34.1111 82.1333 34.5333 82 33.8889C81.8 32.7111 81.5556 31.5333 81.3556 30.3556C81.7556 30.5556 82.5333 31.1778 82.8667 30.6667C83.2444 30.0667 83.6444 29.4667 84.0222 28.8667C84.4 29.4667 84.8 30.0667 85.1778 30.6667C85.5111 31.1778 86.2889 30.5556 86.6889 30.3556C86.4667 31.5333 86.2444 32.7111 86.0444 33.8889C85.8889 34.7333 86.7556 33.9111 86.9333 33.7111C87.3111 33.2889 87.6889 32.8444 88.0667 32.4222C88.2222 32.9556 88.2 33.5556 88.8889 33.4444C89.4444 33.3333 89.9778 33.2222 90.5333 33.1111C90.2444 34.2222 89.4667 35.4444 90.8444 35.9333C89.8667 36.7333 88.8 37.5778 87.7778 38.4222Z" fill="white"/>
<path d="M30.3778 29.1556C31.3778 29.1556 32.3333 29.4667 33.1111 30.0667L35.0889 27.4C33.7111 26.3556 32.0667 25.8222 30.3556 25.8222C25.9778 25.8222 22.4444 29.3778 22.4444 33.7333C22.4444 38.0889 26 41.6444 30.3556 41.6444C32.0222 41.6444 33.6222 41.1333 34.9778 40.1556L33.0444 37.4667C32.2667 38.0444 31.3333 38.3333 30.3556 38.3333C27.8222 38.3333 25.7556 36.2667 25.7556 33.7333C25.7556 31.2 27.8444 29.1556 30.3778 29.1556Z" fill="white"/>
<path d="M64.5778 38.3778C62.0444 38.3778 59.9778 36.3111 59.9778 33.7778C59.9778 31.2444 62.0444 29.1778 64.5778 29.1778C65.5778 29.1778 66.5333 29.4889 67.3333 30.0889L69.3111 27.4222C67.9333 26.3778 66.2889 25.8444 64.5778 25.8444C60.2 25.8444 56.6667 29.4 56.6667 33.7556C56.6667 38.1111 60.2222 41.6667 64.5778 41.6667C66.2444 41.6667 67.8444 41.1556 69.2 40.1778L67.2667 37.4889C66.4889 38.0667 65.5556 38.3778 64.5778 38.3778Z" fill="white"/>
<path d="M51.5333 41.5778H54.8444V28.6222C54.8444 28.6222 54.7111 27.2667 53.7111 26.7111C52.7111 26.1556 51.5333 26.2444 51.5333 26.2444V41.5778Z" fill="white"/>
<path d="M45.7778 26.1333C45.0222 25.8889 44.2222 25.7556 43.3778 25.7556C39 25.7556 35.4667 29.3111 35.4667 33.6667C35.4667 38.0222 39.0222 41.5778 43.3778 41.5778C44.3111 41.5778 45.6667 41.5556 46.4444 41.5556H49.1111V20.0889C49.1111 20.0889 47.7111 19.9333 46.7333 20.6444C45.7333 21.3333 45.8 22.8889 45.8 22.8889L45.7778 26.1333ZM38.7778 33.6667C38.7778 31.1333 40.8444 29.0667 43.3778 29.0667C44.2444 29.0667 45.0444 29.2889 45.7778 29.7333V38.2444C45.0222 38.2444 44.0889 38.2667 43.3778 38.2667C40.8444 38.2667 38.7778 36.2 38.7778 33.6667Z" fill="white"/>
<path d="M108.422 33.9778C107.2 32.9333 105.2 32.3111 104.956 32.2222C104.356 32.0222 103.2 31.5778 102.689 31.1556C102.578 31.0667 102.111 30.6 102.333 29.8444C102.578 29.3556 102.778 29.2 104.378 29.2C107.089 29.2 109.356 29.2222 109.356 29.2222L109.378 25.9556C109.378 25.9556 107.089 25.9333 104.378 25.9333C101.222 25.9333 100.2 26.8222 99.3556 28.4667L99.2667 28.6667C98.5333 30.8222 99.4889 32.6667 100.556 33.6C101.778 34.6444 103.778 35.2667 104.022 35.3556C104.622 35.5556 105.778 36 106.289 36.4222C106.4 36.5111 106.867 36.9778 106.644 37.7333C106.4 38.2222 106.2 38.3556 104.6 38.3556C101.889 38.3556 99.6 38.3333 99.6 38.3333V41.6222C99.6 41.6222 101.889 41.6222 104.6 41.6222C107.733 41.6222 108.778 40.7333 109.622 39.0889L109.711 38.8889C110.444 36.7778 109.511 34.9333 108.422 33.9778Z" fill="white"/>
<path d="M135.844 26.2C135.089 25.9778 134.289 25.8444 133.467 25.8444C129.133 25.8444 125.622 29.3778 125.622 33.6889C125.622 38 129.156 41.5333 133.467 41.5333C134.4 41.5333 135.733 41.5111 136.489 41.5111H139.111V20.2C139.111 20.2 137.711 20.0444 136.756 20.7556C135.756 21.4222 135.844 22.9778 135.844 22.9778V26.2ZM128.911 33.6889C128.911 31.1778 130.956 29.1333 133.467 29.1333C134.311 29.1333 135.133 29.3556 135.844 29.8V38.2444C135.111 38.2444 134.156 38.2667 133.467 38.2667C130.956 38.2444 128.911 36.2 128.911 33.6889Z" fill="white"/>
<path d="M121.044 25.9333C120.289 25.9333 119.356 25.9333 118.667 25.9333C114.333 25.9333 110.822 29.4667 110.822 33.7778C110.822 38.0889 114.356 41.6222 118.667 41.6222C119.489 41.6222 120.333 41.3778 121.044 40.8444V41.6H124.311V29.0667C124.311 29.0667 124.356 27.8667 123.489 26.9111C122.644 25.9333 121.044 25.9333 121.044 25.9333ZM118.689 38.3556C116.178 38.3556 114.133 36.3111 114.133 33.8C114.133 31.2889 116.178 29.2444 118.689 29.2444C119.378 29.2444 120.311 29.2444 121.067 29.2667V37.2889C120.311 38.0222 119.533 38.3556 118.689 38.3556Z" fill="white"/>
<path d="M148.622 38.2444C146.111 38.2444 144.067 36.2 144.067 33.6889C144.067 31.1778 146.111 29.1333 148.622 29.1333C149.622 29.1333 150.556 29.4444 151.356 30.0444L153.311 27.4C151.933 26.3778 150.311 25.8444 148.622 25.8444C144.289 25.8444 140.778 29.3778 140.778 33.6889C140.778 38 144.311 41.5333 148.622 41.5333C150.267 41.5333 151.844 41.0222 153.2 40.0444L151.289 37.3778C150.511 37.9556 149.6 38.2444 148.622 38.2444Z" fill="white"/>
</g>
<defs>
<clipPath id="clip0_419_15189">
<rect width="176" height="64" fill="white"/>
</clipPath>
</defs>
</svg>
