<svg id="Layer_1" data-name="Layer 1" xmlns="http://www.w3.org/2000/svg" width="2.31in" height="0.5in" viewBox="0 0 166.3 35.86"><defs><style>.cls-1{fill:#fff;}</style></defs><title>tangerine-logo-white</title><g id="Page-1"><g id="Print_Transactions_AccountTime" data-name="Print Transactions AccountTime"><g id="TangerineLogo-Copy"><polygon id="Fill-1" class="cls-1" points="0 0.54 0 5.62 8.31 5.62 8.31 28.06 13.47 28.06 13.47 5.62 21.78 5.62 21.78 0.54 0 0.54"/><path id="Fill-2" class="cls-1" d="M24.47,24c-2.55,0-4.44-2-4.44-5.33s2-5.25,4.44-5.25,4.4,1.86,4.4,5.21S26.94,24,24.47,24ZM28.8,11.25c-.51-1-2-2.32-5.06-2.32-5.06,0-8.59,4.3-8.59,9.78,0,5.67,3.64,9.86,8.74,9.86a5.55,5.55,0,0,0,5-2.63v2.17h4.66V9.39H28.8Z" transform="translate(0 -0.05)"/><path id="Fill-4" class="cls-1" d="M45.52,8.89a5.88,5.88,0,0,0-5.17,2.82V9.39h-4.7V28.11H40.5V17.34c0-2.17,1.24-3.88,3.35-3.88,2.33,0,3.31,1.63,3.31,3.73V28.11H52V16.31c0-4.11-2-7.42-6.48-7.42" transform="translate(0 -0.05)"/><path id="Fill-6" class="cls-1" d="M62.84,22.94c-2.51,0-4.29-1.83-4.29-4.76s1.89-4.72,4.29-4.72,4.22,1.83,4.22,4.72-1.75,4.76-4.22,4.76ZM67.1,11.59C66.48,10.34,64.84,9,62,9c-4.91,0-8.33,4.19-8.33,9.13,0,5.25,3.56,9.1,8.33,9.1a5.61,5.61,0,0,0,5-2.4v1.37c0,3.61-1.71,5.21-4.77,5.21A4.06,4.06,0,0,1,58,27.92l-4.37,1.22c.51,3.58,3.79,6.78,8.7,6.78,6.73,0,9.39-4.68,9.39-9.82V9.39H67.1Z" transform="translate(0 -0.05)"/><path id="Fill-8" class="cls-1" d="M78.31,16.62a4,4,0,0,1,4-3.69,3.67,3.67,0,0,1,4,3.69Zm3.93-7.8c-4.58,0-8.81,3.88-8.81,9.86,0,6.32,4.33,10,9.24,10a8.11,8.11,0,0,0,8.15-5.94l-4-1.26a4,4,0,0,1-4.07,2.85,4.44,4.44,0,0,1-4.51-4.26H91c0-.08.07-.84.07-1.56,0-6-3.31-9.7-8.85-9.7Z" transform="translate(0 -0.05)"/><polygon id="Fill-10" class="cls-1" points="105.35 28.06 110.19 28.06 110.19 9.34 105.35 9.34 105.35 28.06"/><path id="Fill-12" class="cls-1" d="M117,11.71V9.39h-4.7V28.11h4.84V17.34c0-2.17,1.24-3.88,3.35-3.88,2.33,0,3.31,1.63,3.31,3.73V28.11h4.84V16.31c0-4.11-2-7.42-6.48-7.42A5.88,5.88,0,0,0,117,11.71Z" transform="translate(0 -0.05)"/><path id="Fill-13" class="cls-1" d="M135.17,16.62a4,4,0,0,1,4-3.69,3.67,3.67,0,0,1,4,3.69Zm3.93-7.8c-4.59,0-8.81,3.88-8.81,9.86,0,6.32,4.33,10,9.24,10a8.1,8.1,0,0,0,8.15-5.94l-4-1.26a4,4,0,0,1-4.08,2.85,4.44,4.44,0,0,1-4.51-4.26h12.81c0-.08.07-.84.07-1.56,0-6-3.31-9.7-8.84-9.7Z" transform="translate(0 -0.05)"/><path id="Fill-14" class="cls-1" d="M107.77,0a3,3,0,0,0-2.95,3.08,2.95,2.95,0,1,0,5.89,0A3,3,0,0,0,107.77,0" transform="translate(0 -0.05)"/><path id="Fill-16" class="cls-1" d="M102.54,9.1a5.55,5.55,0,0,0-5.09,3.19V9.39H92.76V28.11H97.6V19.42c0-4,2.15-5.29,4.62-5.29a7,7,0,0,1,1.45.15V9.18a10.44,10.44,0,0,0-1.13-.08" transform="translate(0 -0.05)"/><path id="Fill-17" class="cls-1" d="M166.15,1.31A1.35,1.35,0,0,0,165,.59H148.1a.91.91,0,0,0-.88.77.93.93,0,0,0,.56,1c2,.72,5.38,2.23,7,5.39s1.06,6.91.54,9.09a.93.93,0,0,0,.54,1.06.88.88,0,0,0,1.09-.36l9.11-14.84a1.48,1.48,0,0,0,.06-1.43" transform="translate(0 -0.05)"/></g></g></g></svg>