<svg width="12" height="13" viewBox="0 0 12 13" fill="none" xmlns="http://www.w3.org/2000/svg">
<path fill-rule="evenodd" clip-rule="evenodd" d="M5.30632 0.528885C1.67972 0.983358 -0.722068 4.50997 0.196555 8.03168C1.11493 11.5526 4.96699 13.4407 8.35249 12.0295C11.0532 10.9037 12.5559 7.83458 11.8088 4.97035C11.2499 2.82759 9.42038 1.07625 7.27331 0.628566C6.70669 0.51047 5.81431 0.465218 5.30632 0.528885ZM6.81911 1.63009C6.99932 1.8375 7.28084 2.20518 7.44479 2.44715C7.75362 2.90307 8.22633 3.79259 8.18283 3.83615C8.12081 3.89825 7.18185 4.10257 6.7716 4.14318L6.31652 4.1883V2.6286C6.31652 1.29277 6.32907 1.08216 6.40402 1.16097C6.45217 1.21157 6.63897 1.42268 6.81911 1.63009ZM5.68883 2.67442V4.19019L5.26514 4.14663C4.76657 4.09541 3.98485 3.93131 3.9109 3.86242C3.84405 3.80007 4.23969 3.01413 4.62804 2.43791C4.91759 2.0082 5.60384 1.15871 5.6614 1.15871C5.67647 1.15871 5.68883 1.84077 5.68883 2.67442ZM4.57299 1.5201C4.22142 1.94208 3.77426 2.65098 3.51515 3.19734L3.29382 3.66407L3.00057 3.5388C2.83925 3.46986 2.53319 3.31185 2.3204 3.18753L1.93356 2.96158L2.05884 2.79195C2.28582 2.48448 2.99912 1.94453 3.55469 1.65951C3.85937 1.5032 4.60011 1.23124 4.73744 1.22527C4.78383 1.2232 4.70983 1.35587 4.57299 1.5201ZM8.06087 1.4878C8.61468 1.71481 9.302 2.16351 9.76881 2.60289L10.114 2.92783L9.86296 3.08351C9.53449 3.28721 9.08181 3.51995 8.9112 3.57281C8.79037 3.61027 8.73921 3.54565 8.44721 2.98666C8.26675 2.64111 7.92723 2.10248 7.69273 1.7898C7.2079 1.14338 7.21217 1.13986 8.06087 1.4878ZM2.62885 4.00484C2.86185 4.11206 3.05254 4.23538 3.05254 4.27887C3.05254 4.32236 3.00979 4.52198 2.95757 4.72241C2.90535 4.9229 2.82965 5.33438 2.78935 5.63682L2.7161 6.18677H1.66033H0.604552V6.027C0.604552 5.47002 0.985246 4.3025 1.35954 3.71152L1.54521 3.41832L1.87518 3.6141C2.05665 3.72183 2.39585 3.89762 2.62885 4.00484ZM10.8769 4.14638C11.1281 4.67219 11.3178 5.30824 11.3753 5.81727L11.417 6.18677H10.3819H9.34675L9.30501 5.7311C9.28204 5.48051 9.20803 5.06331 9.14049 4.80405C9.07296 4.54479 9.01728 4.29697 9.01665 4.25329C9.01609 4.20967 9.16391 4.10767 9.34512 4.02671C9.52633 3.9457 9.84413 3.776 10.0513 3.64955L10.4279 3.41964L10.5468 3.56187C10.6122 3.64012 10.7607 3.90315 10.8769 4.14638ZM4.52761 4.62134C4.83831 4.68633 5.22673 4.73994 5.39068 4.74038L5.68883 4.7412V5.46398V6.18677H4.49503H3.30123L3.33004 6.04535C3.34586 5.96761 3.3763 5.74838 3.39771 5.55826C3.41911 5.36814 3.48131 5.03377 3.53586 4.81518C3.63108 4.43348 3.64156 4.4194 3.79886 4.46038C3.88893 4.48389 4.2169 4.55629 4.52761 4.62134ZM8.53396 4.78834C8.63451 5.15218 8.76313 5.87257 8.76401 6.07678C8.76445 6.17778 8.66458 6.18677 7.54051 6.18677H6.31652V5.46398V4.7412H6.59678C6.88075 4.7412 8.12653 4.52103 8.18741 4.46013C8.20561 4.44184 8.26857 4.42695 8.32732 4.42695C8.4039 4.42695 8.46234 4.52914 8.53396 4.78834ZM2.76405 7.20809C2.78696 7.42417 2.87748 7.89335 2.96523 8.25084C3.05298 8.60828 3.11562 8.90914 3.10439 8.91932C3.09315 8.92951 2.75263 9.10825 2.34771 9.31648L1.61143 9.69509L1.39086 9.34199C0.981103 8.68602 0.604552 7.55257 0.604552 6.97504V6.81527H1.66353H2.7225L2.76405 7.20809ZM5.68883 7.59355C5.68883 8.46366 5.69975 8.44505 5.18668 8.44964C5.06585 8.45071 4.76927 8.49496 4.52761 8.54807C3.6265 8.74586 3.70621 8.76044 3.59718 8.37799C3.5036 8.04966 3.40329 7.52838 3.34184 7.05096L3.31152 6.81527H4.50018H5.68883V7.59355ZM8.73614 7.17666C8.68636 7.59713 8.46855 8.57176 8.3997 8.68231C8.36367 8.74026 8.24233 8.72977 7.88625 8.63807C7.62983 8.57201 7.26352 8.50137 7.07226 8.48107C6.881 8.4607 6.63269 8.42984 6.52052 8.4125L6.31652 8.38082V7.59808V6.81527H7.54773H8.77894L8.73614 7.17666ZM11.3757 7.17666C11.3523 7.3754 11.2903 7.70775 11.2377 7.91516C11.138 8.30904 10.6716 9.3188 10.4741 9.56826L10.3597 9.71288L10.0048 9.49887C9.80961 9.38121 9.49187 9.21711 9.29873 9.13427C9.01345 9.01184 8.95275 8.96005 8.97497 8.85792C8.98997 8.78878 9.06059 8.51318 9.13183 8.24544C9.20308 7.97769 9.28059 7.54635 9.30407 7.28697L9.34675 6.81527H10.3824H11.4181L11.3757 7.17666ZM5.68751 10.4449L5.68626 11.8748L5.4075 11.5605C4.98971 11.0894 4.47651 10.3615 4.18903 9.8321C4.04824 9.57285 3.93268 9.34143 3.93218 9.31786C3.93068 9.24464 4.97766 9.03786 5.42206 9.02359L5.68883 9.01505L5.68751 10.4449ZM7.64283 9.17833C7.87922 9.23213 8.0883 9.30152 8.10732 9.33238C8.19821 9.47964 7.2487 10.9343 6.61191 11.6233L6.32148 11.9376L6.31903 10.4673L6.31652 8.99701L6.76475 9.03868C7.01125 9.06162 7.40638 9.12447 7.64283 9.17833ZM3.49788 9.78497C3.73936 10.2662 4.07222 10.7978 4.44701 11.3009C4.79864 11.7728 4.80749 11.7935 4.64022 11.7536C4.27007 11.6653 3.61426 11.3876 3.24938 11.1646C2.75935 10.8651 2.03983 10.266 2.06801 10.1808C2.09287 10.1056 3.16923 9.52125 3.28667 9.51923C3.3291 9.51848 3.42413 9.63802 3.49788 9.78497ZM9.22021 9.74606C9.90301 10.0904 9.96534 10.1392 9.8936 10.2734C9.80993 10.4301 8.88433 11.1209 8.49021 11.3209C8.31314 11.4108 7.97757 11.5493 7.74451 11.6287C7.33802 11.7672 7.21864 11.7551 7.41127 11.595C7.57108 11.4622 8.24924 10.4309 8.48161 9.96717C8.60551 9.72004 8.72051 9.51785 8.73727 9.51785C8.75396 9.51785 8.97127 9.62055 9.22021 9.74606Z" fill="white"/>
</svg>
