<svg xmlns="http://www.w3.org/2000/svg" width="24" height="24" viewBox="0 0 24 24">
    <path fill="#FFF" fill-rule="nonzero" d="M16 12c0-2.203-1.797-4-4-4-2.203 0-4 1.797-4 4 0 2.203 1.797 4 4 4 2.203 0 4-1.797 4-4zm2.156 0A6.148 6.148 0 0 1 12 18.156 6.148 6.148 0 0 1 5.844 12 6.148 6.148 0 0 1 12 5.844 6.148 6.148 0 0 1 18.156 12zm1.687-6.406c0 .797-.64 1.438-1.437 1.438s-1.438-.64-1.438-1.438c0-.797.64-1.437 1.438-1.437.797 0 1.437.64 1.437 1.437zM12 2.157c-1.75 0-5.5-.14-7.078.484a3.836 3.836 0 0 0-1.374.907 3.836 3.836 0 0 0-.907 1.374C2.016 6.5 2.157 10.25 2.157 12s-.14 5.5.484 7.078c.22.546.485.953.907 1.374.421.422.828.688 1.374.907 1.578.625 5.328.484 7.078.484s5.5.14 7.078-.484a3.836 3.836 0 0 0 1.374-.907c.422-.421.688-.828.907-1.374.625-1.578.484-5.328.484-7.078s.14-5.5-.484-7.078a3.836 3.836 0 0 0-.907-1.374 3.836 3.836 0 0 0-1.374-.907C17.5 2.016 13.75 2.157 12 2.157zM23.999 12c0 1.656.016 3.297-.078 4.953-.094 1.921-.531 3.624-1.937 5.03-1.407 1.407-3.11 1.844-5.031 1.938-1.656.094-3.297.078-4.953.078-1.656 0-3.297.016-4.953-.078-1.921-.094-3.624-.531-5.03-1.937C.61 20.577.172 18.874.078 16.953-.015 15.297.001 13.656.001 12c0-1.656-.016-3.297.078-4.953.094-1.921.531-3.624 1.937-5.03C3.423.61 5.126.172 7.047.078 8.703-.015 10.344.001 12 .001c1.656 0 3.297-.016 4.953.078 1.921.094 3.624.531 5.03 1.937 1.407 1.407 1.844 3.11 1.938 5.031.094 1.656.078 3.297.078 4.953z"/>
</svg>
