<svg xmlns="http://www.w3.org/2000/svg" width="24" height="23" viewBox="0 0 24 23">
    <path fill="#FFF" fill-rule="nonzero" d="M5.453 7.453H.297v15.485h5.156V7.453zm.328-4.781C5.766 1.156 4.671 0 2.906 0 1.156 0 0 1.156 0 2.672c0 1.484 1.11 2.672 2.844 2.672h.031c1.797 0 2.922-1.188 2.906-2.672zm7.657 6.982v-2.2H8.296s.062 1.452 0 15.483h5.14v-8.64c0-.469.047-.922.172-1.266.375-.922 1.22-1.875 2.641-1.875 1.86 0 2.61 1.422 2.61 3.5v8.281H24v-8.875c0-4.75-2.531-6.968-5.922-6.968-2.739 0-3.962 1.5-4.64 2.56z"/>
</svg>
