<svg width="57" height="62" viewBox="0 0 57 62" fill="none" xmlns="http://www.w3.org/2000/svg">
<path d="M21.8905 2.29782C21.8786 1.24535 21.0006 0.393353 19.9237 0.400406C19.4055 0.403455 18.9197 0.605413 18.5556 0.9687C18.1911 1.33256 17.9938 1.81254 17.9997 2.32103L18.0564 7.35256C18.0675 8.31512 18.8064 9.10964 19.7528 9.23369C19.8414 9.2453 19.9314 9.25112 20.0232 9.25028L20.0235 9.25032C21.0963 9.24367 21.9597 8.38159 21.9473 7.32904L21.8905 2.29751L21.8905 2.29782Z" fill="#3D1952"/>
<path d="M31.6856 7.16624L31.6285 2.13497C31.6229 1.62652 31.4146 1.14865 31.0425 0.789349C30.6698 0.429661 30.1795 0.232268 29.6617 0.236941C28.589 0.242977 27.7259 1.10479 27.7377 2.15787L27.7948 7.18945C27.8003 7.69789 28.0087 8.17577 28.3808 8.53507C28.6874 8.83084 29.0735 9.01583 29.4896 9.07037C29.5791 9.0821 29.6697 9.08801 29.7618 9.08721C30.8343 9.08113 31.6974 8.21901 31.6856 7.16624Z" fill="#3D1952"/>
<rect y="4.97998" width="48.919" height="52.1802" rx="2.60901" fill="#F2F2F2"/>
<path d="M0 7.58899C0 6.14807 1.16809 4.97998 2.60901 4.97998H46.31C47.7509 4.97998 48.919 6.14808 48.919 7.58899V20.6341H0V7.58899Z" fill="#3D1952"/>
<path d="M17.0996 47.9385H20.7507V29.6299H17.8458L12.3026 33.6008L14.0349 36.2924L17.0996 34.0005V47.9385ZM30.748 36.1325C30.135 36.1325 29.3089 36.2658 28.4561 36.5323L28.6693 32.9345H35.5183V29.6299H25.5246L24.9649 39.3039L26.8837 40.0234C27.7898 39.3039 28.6693 39.0907 29.6287 39.0907C31.1211 39.0907 32.7734 40.0501 32.7734 41.9689C32.7734 43.5945 31.4675 44.8471 29.7086 44.8471C28.1096 44.8471 26.937 44.1542 26.1908 43.1681L23.5791 45.2735C25.0982 47.1923 27.3901 48.1517 29.8952 48.1517C33.5995 48.1517 36.4511 45.6466 36.4511 42.0222C36.4511 38.3978 33.866 36.1325 30.748 36.1325Z" fill="#333333"/>
<path d="M13.2224 15.8501H13.8439V14.7635H14.3403C15.0378 14.7635 15.5028 14.4282 15.5028 13.7306C15.5028 13.1225 15.1675 12.6753 14.3984 12.6753H13.2224V15.8501ZM13.8439 14.2046V13.2343H14.2866C14.6533 13.2343 14.85 13.4266 14.85 13.7172C14.85 14.0123 14.6533 14.2046 14.2598 14.2046H13.8439ZM19.2308 15.8501H19.8881L18.7032 12.6753H18.0995L16.9235 15.8501H17.5808L17.7954 15.2151H19.0162L19.2308 15.8501ZM17.9788 14.6786L18.3991 13.431H18.408L18.8328 14.6786H17.9788ZM23.1922 12.6753L22.5528 13.8335H22.5439L21.8955 12.6753H21.1756L22.2264 14.455V15.8501H22.8614V14.455L23.9211 12.6753H23.1922ZM25.484 15.8501H26.5482C27.5677 15.8501 28.1848 15.2017 28.1848 14.2672C28.1848 13.3282 27.5409 12.6753 26.5348 12.6753H25.484V15.8501ZM26.1055 15.2912V13.2388H26.5482C27.1206 13.2388 27.5319 13.6725 27.5319 14.2672C27.5319 14.8485 27.125 15.2912 26.508 15.2912H26.1055ZM31.9684 15.8501H32.6257L31.4408 12.6753H30.8371L29.6611 15.8501H30.3184L30.533 15.2151H31.7538L31.9684 15.8501ZM30.7164 14.6786L31.1367 13.431H31.1456L31.5704 14.6786H30.7164ZM35.9298 12.6753L35.2904 13.8335H35.2815L34.6331 12.6753H33.9132L34.964 14.455V15.8501H35.5989V14.455L36.6587 12.6753H35.9298Z" fill="white"/>
<path d="M56.4145 57.2664L37.3301 57.2664L37.3301 61.4122L56.4145 61.4122L56.4145 57.2664Z" fill="#FFAB66"/>
<path d="M40.6122 57.2651L38.9846 57.2651L38.9846 61.411L40.6122 61.411L40.6122 57.2651Z" fill="#FFC18F"/>
<path d="M56.4143 60.7949L37.3298 60.7949L37.3298 61.411L56.4143 61.411L56.4143 60.7949Z" fill="#FFCCAB"/>
<path d="M56.4131 53.2302L37.3286 53.2302L37.3286 57.3761L56.4131 57.3761L56.4131 53.2302Z" fill="#FFAB66"/>
<path d="M40.6107 53.23L38.9832 53.23L38.9832 57.3758L40.6107 57.3758L40.6107 53.23Z" fill="#FFC18F"/>
<path d="M56.4131 56.759L37.3286 56.759L37.3286 57.3751L56.4131 57.3751L56.4131 56.759Z" fill="#FFCCAB"/>
<path d="M55.1394 49.196L36.0549 49.196L36.0549 53.3419L55.1394 53.3419L55.1394 49.196Z" fill="#FFAB66"/>
<path d="M39.337 49.1958L37.7095 49.1958L37.7095 53.3417L39.337 53.3417L39.337 49.1958Z" fill="#FFC18F"/>
<path d="M55.1394 52.7249L36.0549 52.7249L36.0549 53.3409L55.1394 53.3409L55.1394 52.7249Z" fill="#FFCCAB"/>
</svg>
