 <svg version="1.1" id="close-icon" xmlns="http://www.w3.org/2000/svg" height="40px" width="40px"
		                                                    xmlns:xlink="http://www.w3.org/1999/xlink" x="0px" y="0px"
		                                                    viewBox="-49 141 512 512" style="enable-background:new -49 141 512 512;" class="close-icon visibility-hidden"
		                                                     xml:space="preserve">
		                                             <g>
		                                                 <path d="M207,651.9c-140.8,0-254.9-114.6-254.9-256s114.1-256,254.9-256c140.8,0,254.9,114.6,254.9,256
		                                                     C461.9,537.3,347.8,651.9,207,651.9z M307,340.6c28.3-28.3,37.4-28.9,9.1-57.3c-28.3-28.3-28.9-19.3-57.2,9.1l-53,53l-53-53
		                                                     C124.6,264,124,255,95.7,283.3c-28.3,28.3-19.2,28.9,9.1,57.3l53,53l-55.3,55.3c-28.3,28.3-37.4,28.9-9.1,57.3s28.9,19.3,57.2-9.1
		                                                     l55.3-55.3l55.2,55.3c28.3,28.3,28.9,37.4,57.2,9.1c28.3-28.3,19.3-28.9-9.1-57.3L254,393.6L307,340.6z"/>
		                                             </g>
		                                             </svg>