<?xml version="1.0" encoding="utf-8"?>
<!-- Generator: Adobe Illustrator 19.0.1, SVG Export Plug-In . SVG Version: 6.00 Build 0)  -->
<svg version="1.1" id="Layer_1" xmlns="http://www.w3.org/2000/svg" xmlns:xlink="http://www.w3.org/1999/xlink" x="0px" y="0px"
	 viewBox="-89 334.3 194.3 76" style="enable-background:new -89 334.3 194.3 76;" xml:space="preserve">
<style type="text/css">
	.st0{fill:none;}
	.st1{fill:#0079C1;}
	.st2{fill:#EE3224;}
	.st3{fill:#FFFFFF;}
</style>
<g id="R_symbol">
</g>
<g id="BMO-roundel">
	<rect x="-110.4" y="319.3" class="st0" width="231.8" height="107.4"/>
	<g>
		<path class="st1" d="M-67.4,369.8c0,3-1.4,4.6-5,4.6h-3.1v-9.2c0.4,0,1.7-0.1,2.1-0.1h1.1C-68.6,365.2-67.4,366.8-67.4,369.8z
			 M-60.1,381.7c0-4.7-3.8-6.4-8.5-6.5V375c4-0.3,7.2-2,7.2-6c0-4.5-3.7-5.3-7.8-5.3c-5,0-10.8,0.1-15.7,0v1.5
			c1-0.1,3.6,0.1,3.6,1.4v19c0,1.3-2.6,1.4-3.6,1.4v1.5c4.8-0.1,10.5,0,15.3,0C-64.6,388.6-60.1,386.9-60.1,381.7z M-66.4,381.2
			c0,3.9-1.4,5.8-6.1,5.8h-2.9v-10.9h3.1C-68,376.1-66.4,377.5-66.4,381.2z"/>
		<path class="st1" d="M-28.1,388.5c-2.2,0-4.4,0-6.7,0V387c1,0,3.8-0.1,3.8-1.4V368h-0.1l-10,20.9h-1.2l-9.8-21h-0.1v17.7
			c0,1.4,2.8,1.4,3.8,1.4v1.5c-2.8-0.1-6.6-0.1-9.3,0V387c1.1,0,3.4-0.1,3.4-1.4v-19c0-1.3-2.5-1.4-3.4-1.4v-1.5
			c3.2,0.1,6.6,0.1,9.7,0l8.4,17.6l8.6-17.6c3,0.1,6.5,0.1,9.5,0v1.5c-1,0-3.7,0.1-3.7,1.4v19c0,1.4,2.6,1.4,3.7,1.4v1.5
			C-23.6,388.5-25.8,388.5-28.1,388.5z"/>
		<path class="st1" d="M2,376.1c0,4.7-0.5,11.4-7.5,11.4c-7.1,0-7.6-6.6-7.6-11.4c0-4.7,0.5-11.3,7.6-11.3
			C1.5,364.8,2,371.4,2,376.1z M8.6,376.1c0-8.2-5-12.9-14.1-12.9s-14.2,4.6-14.2,12.9s5,12.9,14.2,12.9
			C3.6,389,8.6,384.4,8.6,376.1z"/>
	</g>
	<rect x="95.2" y="348.1" class="st0" width="8.6" height="8.6"/>
	<circle class="st0" cx="99.5" cy="352.4" r="8.6"/>
	<g>
		<path class="st1" d="M99.5,348.1c-2.4,0-4.3,1.9-4.3,4.3c0,2.4,1.9,4.3,4.3,4.3s4.3-1.9,4.3-4.3C103.8,350,101.8,348.1,99.5,348.1
			L99.5,348.1z M99.5,356.1c-2,0-3.6-1.7-3.6-3.7s1.6-3.7,3.6-3.7s3.6,1.6,3.6,3.7C103.1,354.4,101.5,356.1,99.5,356.1"/>
		<path class="st1" d="M101.5,351.3c0-1-0.6-1.4-1.6-1.4H98v4.9h0.6v-2.2h1l1.4,2.2h0.7l-1.5-2.2C101,352.6,101.5,352,101.5,351.3
			L101.5,351.3z M98.5,352.2v-1.7h1c0.9,0,1.3,0.3,1.3,0.9c0,0.6-0.4,0.8-1.3,0.8L98.5,352.2"/>
	</g>
	<path class="st2" d="M59.9,337c-19.9,0-36,16.1-36,36c0,19.9,16.1,36,36,36s36-16.1,36-36C95.9,353.1,79.8,337,59.9,337z"/>
	<rect x="42.9" y="353.3" class="st0" width="34" height="35.4"/>
	<path class="st3" d="M42.9,377.9h34v10.8h-34V377.9z M58.8,362l-6.2-8.1c-0.3-0.3-0.7-0.6-1.1-0.6s-0.8,0.2-1.1,0.5l-7.4,9.4v14.7
		l7.4-9.5c0.3-0.3,0.7-0.5,1.1-0.5c0.5,0,0.9,0.2,1.1,0.6l6.3,8.2c0.2,0.3,0.6,0.5,1,0.5s0.8-0.2,1-0.5l6.3-8.2
		c0.3-0.3,0.7-0.6,1.1-0.6c0.5,0,0.9,0.2,1.1,0.5l7.4,9.5v-14.7l-7.4-9.4c-0.3-0.3-0.6-0.5-1.1-0.5s-0.9,0.2-1.1,0.6L61,362
		c-0.3,0.3-0.7,0.5-1.1,0.5C59.4,362.5,59,362.3,58.8,362z"/>
	<g>
		<rect x="-110.4" y="319.3" class="st0" width="25.5" height="17.7"/>
		<g>
			<path class="st0" d="M-90.5,319.5c-0.2-0.2-0.5-0.3-0.8-0.3s-0.6,0.1-0.8,0.3l-4.7,4.1c-0.2,0.2-0.5,0.3-0.8,0.3
				s-0.6-0.1-0.8-0.3l-4.7-4.1c-0.2-0.2-0.5-0.3-0.8-0.3s-0.6,0.1-0.8,0.3l-5.6,4.7v7.3l5.5-4.7c0.2-0.2,0.5-0.3,0.8-0.3
				s0.7,0.1,0.9,0.3l4.7,4.1c0.2,0.2,0.5,0.3,0.8,0.3s0.6-0.1,0.8-0.3l4.7-4.1c0.2-0.2,0.5-0.3,0.9-0.3c0.3,0,0.7,0.1,0.8,0.3
				l5.5,4.7v-7.3L-90.5,319.5z"/>
			<rect x="-110.4" y="331.6" class="st0" width="25.5" height="5.4"/>
		</g>
		<rect x="-110.4" y="409" class="st0" width="25.5" height="17.7"/>
		<g>
			<path class="st0" d="M-90.5,409.2c-0.2-0.2-0.5-0.3-0.8-0.3s-0.6,0.1-0.8,0.3l-4.7,4.1c-0.2,0.2-0.5,0.3-0.8,0.3
				s-0.6-0.1-0.8-0.3l-4.7-4.1c-0.2-0.2-0.5-0.3-0.8-0.3s-0.6,0.1-0.8,0.3l-5.6,4.7v7.3l5.5-4.7c0.2-0.2,0.5-0.3,0.8-0.3
				s0.7,0.1,0.9,0.3l4.7,4.1c0.2,0.2,0.5,0.3,0.8,0.3s0.6-0.1,0.8-0.3l4.7-4.1c0.2-0.2,0.5-0.3,0.9-0.3c0.3,0,0.7,0.1,0.8,0.3
				l5.5,4.7v-7.3L-90.5,409.2z"/>
			<rect x="-110.4" y="421.3" class="st0" width="25.5" height="5.4"/>
		</g>
		<rect x="95.9" y="319.3" class="st0" width="25.5" height="17.7"/>
		<g>
			<path class="st0" d="M115.8,319.5c-0.2-0.2-0.5-0.3-0.8-0.3s-0.6,0.1-0.8,0.3l-4.7,4.1c-0.2,0.2-0.5,0.3-0.8,0.3
				s-0.6-0.1-0.8-0.3l-4.7-4.1c-0.2-0.2-0.5-0.3-0.8-0.3s-0.6,0.1-0.8,0.3l-5.6,4.7v7.3l5.5-4.7c0.2-0.2,0.5-0.3,0.8-0.3
				s0.7,0.1,0.9,0.3l4.7,4.1c0.2,0.2,0.5,0.3,0.8,0.3s0.6-0.1,0.8-0.3l4.7-4.1c0.2-0.2,0.5-0.3,0.9-0.3c0.3,0,0.7,0.1,0.8,0.3
				l5.5,4.7v-7.3L115.8,319.5z"/>
			<rect x="95.9" y="331.6" class="st0" width="25.5" height="5.4"/>
		</g>
		<rect x="95.9" y="409" class="st0" width="25.5" height="17.7"/>
		<g>
			<path class="st0" d="M115.8,409.2c-0.2-0.2-0.5-0.3-0.8-0.3s-0.6,0.1-0.8,0.3l-4.7,4.1c-0.2,0.2-0.5,0.3-0.8,0.3
				s-0.6-0.1-0.8-0.3l-4.7-4.1c-0.2-0.2-0.5-0.3-0.8-0.3s-0.6,0.1-0.8,0.3l-5.6,4.7v7.3l5.5-4.7c0.2-0.2,0.5-0.3,0.8-0.3
				s0.7,0.1,0.9,0.3l4.7,4.1c0.2,0.2,0.5,0.3,0.8,0.3s0.6-0.1,0.8-0.3l4.7-4.1c0.2-0.2,0.5-0.3,0.9-0.3c0.3,0,0.7,0.1,0.8,0.3
				l5.5,4.7v-7.3L115.8,409.2z"/>
			<rect x="95.9" y="421.3" class="st0" width="25.5" height="5.4"/>
		</g>
	</g>
</g>
<g id="M-bar_Guide">
</g>
<g id="O_BMO_En">
</g>
</svg>
