<?xml version="1.0" encoding="utf-8"?>
<!-- Generator: Adobe Illustrator 22.1.0, SVG Export Plug-In . SVG Version: 6.00 Build 0)  -->
<svg version="1.1" id="Layer_1" xmlns="http://www.w3.org/2000/svg" xmlns:xlink="http://www.w3.org/1999/xlink" x="0px" y="0px"
	 viewBox="0 0 428.4 118.8" style="enable-background:new 0 0 428.4 118.8;" xml:space="preserve">
<style type="text/css">
	.st0{fill:#414042;}
	.st1{fill:url(#SVGID_1_);}
	.st2{fill:url(#SVGID_2_);}
</style>
<title>MotusBank_Wordmark_TM_RGB</title>
<path class="st0" d="M55.8,79.4l-5.6,0l0-22.8c0-7.2-3.4-11.7-9.5-11.7c-6.2,0-13,3.5-13,13.1l0,21.4l-5.6,0l0-39.2l5.6,0l0,6.5
	c2.4-5.1,9.4-7.3,13-7.3c6.6,0,11.3,3.1,13.6,8.6c3.5-7.4,10.6-8.6,14.5-8.6c9.6,0,15.2,6.5,15.1,17.2l0,22.8l-5.6,0l0-22.8
	c0-7.2-3.4-11.7-9.5-11.7c-6.2,0-13,3.5-13,13.1L55.8,79.4z"/>
<path class="st0" d="M92.3,58.8c0-12.4,9.3-20.3,20.5-20.3s20.5,7.9,20.5,20.3c0,12.4-9.3,20.6-20.5,20.6S92.3,71.3,92.3,58.8z
	 M127.7,58.8c0-9.1-6.8-14.8-15-14.8s-15,5.7-14.9,14.8c0,9.1,6.8,15,15,15S127.7,67.9,127.7,58.8z"/>
<path class="st0" d="M144.3,79.4l0-34.2l-7.1,0l0-5l7.1,0l0-14.7l5.6,0l0,14.7l8.3,0l0,5l-8.3,0l0,34.2L144.3,79.4z"/>
<path class="st0" d="M193.1,39.3l5.6,0l0,39.2l-5.6,0l0-6.5c-2.4,5.1-8.5,7.3-13,7.3c-9.6,0-15.2-6.5-15.1-17.2l0-22.8l5.6,0l0,22.8
	c0,7.2,3.4,11.7,9.5,11.7c6.2,0,13-3.5,13-13.1L193.1,39.3z"/>
<path class="st0" d="M212.1,67.3c0.8,2.9,2.6,6.8,9.2,6.8c5,0,8.3-2.5,8.3-6.2c0-2.6-1.5-5-5.6-6l-5.5-1.3
	c-4.9-1.2-10.9-3.6-9.9-12.8c0.8-5.6,6.4-9.3,12.8-9.3c6,0,11.3,2.9,12.4,10.2l-5.5,0c-0.7-3-3.5-4.8-6.9-4.8c-3.8,0-6.9,2-7.3,4.8
	c-0.8,4.5,3,5.9,5.8,6.6l5.4,1.3c7.4,1.8,9.9,6,9.9,11.4c0,6.8-6.2,11.5-14.4,11.5c-6.6,0-13.4-4.4-13.7-12.1L212.1,67.3z"/>
<path class="st0" d="M246.7,78.6l-2.5,0l0-54.3l2.5,0l0,24.8c3.4-6.3,10.2-10.6,18-10.6c11.3,0,20.4,9.2,20.4,20.4
	c0,11.3-9.2,20.5-20.4,20.5c-7.8,0-14.5-4.3-18-10.6L246.7,78.6z M264.7,41c-9.9,0-18,8.1-18,17.9v0.8c0.3,9.6,8.3,17.2,18,17.2
	c9.8,0,17.9-8.1,17.9-18C282.6,49.1,274.5,41,264.7,41z"/>
<path class="st0" d="M330.3,68.8c-3.4,6.3-10.2,10.6-18,10.6c-11.3,0-20.4-9.2-20.4-20.5c0-11.3,9.2-20.4,20.4-20.4
	c7.8,0,14.5,4.3,18,10.6l0-9.7l2.5,0l0,39.2l-2.5,0L330.3,68.8z M312.4,76.9c9.7,0,17.6-7.6,18-17.2v-0.8c0-9.8-8.1-17.9-18-17.9
	c-9.8,0-17.9,8.1-17.9,17.9C294.5,68.8,302.5,76.9,312.4,76.9z"/>
<path class="st0" d="M345.4,40.2l2.5,0l0,8.7c2.2-7,8.6-9.5,14.5-9.5c9.1,0,16,6.4,16,17l0,23.1l-2.5,0l0-23.1
	c0-9-5.9-14.4-13.5-14.4c-7.4,0-14.2,4.1-14.5,15.1l0,22.4l-2.5,0L345.4,40.2z"/>
<linearGradient id="SVGID_1_" gradientUnits="userSpaceOnUse" x1="-0.209" y1="28.5164" x2="98.1842" y2="15.0115">
	<stop  offset="0" style="stop-color:#FFC600"/>
	<stop  offset="0.1986" style="stop-color:#FF9B00"/>
	<stop  offset="0.3702" style="stop-color:#E9371D"/>
	<stop  offset="0.5862" style="stop-color:#A52BB4"/>
	<stop  offset="0.7924" style="stop-color:#4A2BB4"/>
	<stop  offset="0.994" style="stop-color:#00D1AF"/>
</linearGradient>
<path class="st1" d="M52.2,5.7c22.6,0,42.2,11.9,52.4,29.5C95.8,15,75.7,0.8,52.2,0.8C28.7,0.8,8.5,15-0.3,35.2
	C9.9,17.6,29.6,5.7,52.2,5.7z"/>
<linearGradient id="SVGID_2_" gradientUnits="userSpaceOnUse" x1="100.8445" y1="92.1404" x2="10.4178" y2="101.829">
	<stop  offset="0" style="stop-color:#FFC600"/>
	<stop  offset="0.1986" style="stop-color:#FF9B00"/>
	<stop  offset="0.3702" style="stop-color:#E9371D"/>
	<stop  offset="0.5862" style="stop-color:#A52BB4"/>
	<stop  offset="0.7924" style="stop-color:#4A2BB4"/>
	<stop  offset="0.9942" style="stop-color:#00D1AF"/>
</linearGradient>
<path class="st2" d="M52.2,112.3c-22.6,0-42.2-11.9-52.4-29.5c8.8,20.3,28.9,34.5,52.4,34.5c23.5,0,43.7-14.2,52.4-34.5
	C94.4,100.4,74.7,112.3,52.2,112.3z"/>
<path class="st0" d="M415.3,79.4L393,58.1l0,21.3l-2.5,0l0-54.2l2.5,0l0,31.7l16.3-16.7l3.6,0L396,57.4l23,21.9L415.3,79.4z"/>
<g>
	<path class="st0" d="M421.7,25.1v0.5h-1.2V29H420v-3.4h-1.2v-0.5H421.7z"/>
	<path class="st0" d="M425.8,25.1h0.5l0.5,3.9h-0.5l-0.4-2.9l-1.2,2.5h-0.5l-1.2-2.5l-0.4,2.9h-0.5l0.5-3.9h0.5l1.4,2.8L425.8,25.1z
		"/>
</g>
</svg>
