<?xml version="1.0" encoding="UTF-8"?>
<svg width="238px" height="95px" viewBox="0 0 238 95" version="1.1" xmlns="http://www.w3.org/2000/svg" xmlns:xlink="http://www.w3.org/1999/xlink">
    <title>237.5x95svg</title>
    <g id="237.5x95svg" stroke="none" stroke-width="1" fill="none" fill-rule="evenodd">
        <g id="Group" fill-rule="nonzero">
            <g id="PCFinancial_EN_Standard">
                <g id="Group" transform="translate(79.124609, 28.492257)">
                    <path d="M3.17819845e-12,9.57453957 L2.44179688,9.57453957 C2.44179688,9.57453957 2.44179688,8.92141457 2.44179688,7.92688332 C2.44179688,-0.0813198033 8.00078125,0.000320821657 8.78007813,0.000320821657 C10.3195972,-0.00948501444 11.8522995,0.20554337 13.3296875,0.638602072 L12.8175781,5.53703957 C12.2216473,5.42218243 11.6194118,5.3428757 11.0140625,5.29953957 C10.5369742,5.25871056 10.0586217,5.36213812 9.64101563,5.59641457 C9.01757813,5.96750832 8.55,6.73938332 8.55,8.35735207 L8.55,9.57453957 L12.8175781,9.57453957 L12.8175781,15.0667271 L8.55,15.0667271 L8.55,28.5003208 L2.44179688,28.5003208 L2.44179688,15.0667271 L3.17819845e-12,15.0667271 L3.17819845e-12,9.57453957 Z M21.5679688,4.06750832 C21.5791891,2.48269532 20.4679098,1.11126434 18.9151953,0.793717712 C17.3624808,0.476171081 15.8020023,1.30119917 15.1901227,2.76317096 C14.5782432,4.22514276 15.0858597,5.91573141 16.4018719,6.79883396 C17.7178841,7.6819365 19.4747313,7.51090353 20.5957031,6.3905552 C21.2223283,5.78072064 21.5734081,4.9418811 21.5679688,4.06750832 L21.5679688,4.06750832 Z M21.2933594,28.5003208 L21.2933594,9.57453957 L15.1851563,9.57453957 L15.1851563,28.5003208 L21.2933594,28.5003208 Z M114.979688,4.06750832 C114.971703,2.4892952 113.850634,1.13621608 112.30142,0.834961208 C110.752205,0.533706336 109.205773,1.36807254 108.606947,2.82828742 C108.008121,4.28850229 108.523469,5.96839356 109.83813,6.84159867 C111.152791,7.71480378 112.901079,7.53843265 114.014844,6.4202427 C114.646998,5.80250992 114.996108,4.95121822 114.979688,4.06750832 Z M114.7125,28.5003208 L114.7125,9.57453957 L108.604297,9.57453957 L108.604297,28.5003208 L114.7125,28.5003208 Z M131.181641,9.57453957 L137.289844,9.57453957 L137.289844,28.5003208 L131.181641,28.5003208 L131.181641,26.8971958 C129.720576,28.3413197 127.743679,29.1427644 125.689453,29.1237583 C123.194675,29.1417083 120.81982,28.0548182 119.202734,26.1550083 C117.425912,24.2079279 116.468826,21.6503821 116.530859,19.0151646 C116.46921,16.3822318 117.426373,13.8271383 119.202734,11.8827427 C120.81982,9.98293287 123.194675,8.89604274 125.689453,8.9139927 C127.743836,8.89416123 129.721038,9.6957297 131.181641,11.1405552 L131.181641,9.57453957 Z M123.893359,22.2807896 C124.664325,23.1312274 125.758759,23.6162834 126.906641,23.6162834 C128.054522,23.6162834 129.148956,23.1312274 129.919922,22.2807896 C131.601062,20.4453215 131.601062,17.6295389 129.919922,15.7940708 C129.148956,14.943633 128.054522,14.458577 126.906641,14.458577 C125.758759,14.458577 124.664325,14.943633 123.893359,15.7940708 C122.212219,17.6295389 122.212219,20.4453215 123.893359,22.2807896 L123.893359,22.2807896 Z M140.125,0.757352072 L146.233203,0.757352072 L146.233203,28.5003208 L140.117578,28.5003208 L140.125,0.757352072 Z M30.0957031,11.3557896 L30.0957031,9.51516457 L23.9726563,9.51516457 L23.9726563,28.5003208 L30.0957031,28.5003208 L30.0957031,18.7034458 C30.0957031,17.1745396 30.4890625,16.0761021 31.2757813,15.4081333 C31.9612212,14.7888618 32.8460465,14.4359851 33.7695313,14.4136021 C35.8130208,14.4136021 36.8322917,15.6382114 36.8273438,18.0874302 L36.8273438,28.4780552 L42.9503906,28.4780552 L42.9503906,17.4788364 C42.9503906,14.7475864 42.2428385,12.6373 40.8277344,11.1479771 C39.4926127,9.69902664 37.6024354,8.88895069 35.6324219,8.92141457 C33.5087208,8.82780635 31.4623464,9.72755274 30.0957031,11.3557896 L30.0957031,11.3557896 Z M59.4789063,9.51516457 L59.4789063,11.1257114 C58.009165,9.68098562 56.0252791,8.87995498 53.9644531,8.89914895 C51.4649368,8.87884925 49.0845848,9.96576797 47.4628906,11.8678989 C45.6981741,13.8203659 44.7521191,16.3768403 44.8207031,19.0077427 C44.7583806,21.6488077 45.7182274,24.2119444 47.5,26.1624302 C49.1216941,28.0645612 51.5020461,29.1514799 54.0015625,29.1311802 C56.0623885,29.1503742 58.0462744,28.3493435 59.5160156,26.9046177 L59.5160156,28.5151646 L65.6019531,28.5151646 L65.6019531,9.51516457 L59.4789063,9.51516457 Z M58.1800781,22.2585239 C57.4088483,23.1139195 56.3111115,23.6022271 55.159375,23.6022271 C54.0076385,23.6022271 52.9099017,23.1139195 52.1386719,22.2585239 C50.4555124,20.4181455 50.4555124,17.5973399 52.1386719,15.7569614 C52.9099017,14.9015659 54.0076385,14.4132583 55.159375,14.4132583 C56.3111115,14.4132583 57.4088483,14.9015659 58.1800781,15.7569614 C59.8738596,17.5932021 59.8738596,20.4222833 58.1800781,22.2585239 L58.1800781,22.2585239 Z M74.9015625,11.3557896 L74.9015625,9.51516457 L68.7785156,9.51516457 L68.7785156,28.5003208 L74.9015625,28.5003208 L74.9015625,18.7034458 C74.9015625,17.1745396 75.3023438,16.0761021 76.0890625,15.4081333 C76.771872,14.7893718 77.6542103,14.4364365 78.5753906,14.4136021 C80.6188802,14.4136021 81.640625,15.6382114 81.640625,18.0874302 L81.640625,28.4780552 L87.7636719,28.4780552 L87.7636719,17.4788364 C87.7636719,14.7475864 87.0536458,12.6373 85.6335938,11.1479771 C84.2200647,9.68099341 82.2590112,8.86962436 80.2222123,8.90906444 C78.1854134,8.94850453 76.2572405,9.83518365 74.9015625,11.3557896 L74.9015625,11.3557896 Z M100.232422,23.6018833 C98.9575647,23.6330907 97.7240105,23.1487668 96.8109375,22.2585239 C95.9116275,21.4165639 95.4012881,20.2396742 95.4012881,19.0077427 C95.4012881,17.7758112 95.9116275,16.5989215 96.8109375,15.7569614 C97.7235693,14.8753838 98.9488709,14.3922038 100.217578,14.4136021 C101.914316,14.4087578 103.552077,15.0358167 104.811719,16.1725864 L107.038281,11.2370396 C105.33125,9.6858677 102.926563,8.90657082 99.8464844,8.90657082 C96.6352865,8.90657082 94.0697917,9.86894061 92.15,11.7936802 C90.2729442,13.7164253 89.2622758,16.3221804 89.3519531,19.0077427 C89.277783,21.7005783 90.3073797,24.3067448 92.2019531,26.2218052 C94.1019531,28.1465448 96.6723958,29.1089146 99.9132813,29.1089146 C103.075,29.1089146 105.472266,28.3320917 107.105078,26.7784458 L104.878516,21.8800083 C103.602133,22.9993166 101.959726,23.6119185 100.262109,23.6018833 L100.232422,23.6018833 Z" id="Shape" fill="#000000"></path>
                    <path d="M151.505746,1.23231557 C152.190556,0.956251507 152.925212,0.940400493 153.590391,1.14759544 C154.255571,1.35479039 154.851274,1.78503131 155.258181,2.40115111 C155.665087,3.0172709 155.826917,3.73405586 155.756334,4.42717309 C155.685751,5.12029032 155.382754,5.78973982 154.858915,6.31228455 C154.268101,6.91212654 153.454893,7.23995097 152.611701,7.21753591 C151.873457,7.20442516 151.190881,6.93228466 150.659326,6.48190458 C150.12777,6.03152449 149.747235,5.40290483 149.613071,4.67683575 C149.478908,3.95076667 149.609671,3.22766866 149.945178,2.6170719 C150.280686,2.00647514 150.820936,1.50837964 151.505746,1.23231557 Z" id="Path" stroke="#000000" stroke-width="0.35"></path>
                    <path d="M153.588281,2.7686802 C153.787881,2.96342017 153.898023,3.2320591 153.892578,3.5108677 C153.893225,3.7256383 153.834121,3.93635589 153.721875,4.11946145 C153.610024,4.30002496 153.443686,4.44037259 153.246875,4.5202427 L154.048437,5.63352395 L153.180078,5.63352395 L152.482422,4.63157082 L152.170703,4.63157082 L152.170703,5.6483677 L151.428516,5.6483677 L151.428516,2.48664895 L152.690234,2.48664895 C153.01458,2.4628334 153.335786,2.56370811 153.588281,2.7686802 Z M152.697656,3.1546177 L152.178125,3.16946145 L152.178125,3.94133645 L152.697656,3.94133645 C152.812688,3.94353421 152.925109,3.90693207 153.016797,3.8374302 C153.104203,3.77046379 153.153945,3.66545209 153.150391,3.55539895 C153.150391,3.28821145 153.001953,3.1546177 152.697656,3.1546177 Z" id="Combined-Shape" fill="#000000"></path>
                </g>
                <g id="Group-2">
                    <rect id="Rectangle" fill="#E1251B" x="2.5910755e-12" y="0" width="62.58125" height="95"></rect>
                    <path d="M42.1042969,53.734375 C40.2339844,53.8902344 33.1980469,53.734375 33.546875,44.76875 C42.928125,38.2449219 43.1953125,31.0085937 42.15625,26.8375 C44.0661948,25.340311 46.1968773,24.1485309 48.4722656,23.3046875 C49.3925781,22.91875 50.5132812,22.6886719 50.9214844,23.3046875 C52.0050781,24.8558594 55.7234375,24.9152344 53.6082031,20.8851562 C53.0144531,19.771875 51.7378906,19.0519531 49.8972656,19.2003906 C48.0566406,19.3488281 44.2863281,20.3953125 40.3453125,23.3492187 C36.0554687,18.7550781 29.3832031,18.9480469 24.6851562,19.1335937 C16.2316406,19.4230469 4.928125,22.1914062 -5.66028705e-13,23.9875 L-5.66028705e-13,32.9902344 C2.18221337,34.553571 4.44396978,36.0027796 6.77617187,37.3320312 C8.12695312,38.1410156 15.3929687,42.5273437 19.5566406,46.8394531 C20.6996094,48.0417969 20.1132812,47.8636719 19.5566406,48.5019531 C18.7699219,49.5410156 19.3859375,50.9660156 20.128125,51.6265625 C20.5882812,52.0421875 21.0707031,51.7230469 21.0558594,53.55625 C21.1410745,57.843663 21.6784241,62.1101191 22.6589844,66.2847656 C23.3554577,69.1523723 24.6170613,71.8522041 26.3699219,74.2261719 C28.5964844,76.8460937 31.1347656,77.1429687 31.7582031,72.9792969 C31.9600303,70.7582251 31.9848482,68.5246173 31.8324219,66.2996094 C31.765625,64.303125 31.4019531,57.7941406 26.303125,50.1644531 C25.7316406,49.3332031 25.8503906,49.103125 26.4441406,48.8359375 C28.3070312,47.9230469 29.8210937,47.1140625 29.8210937,47.1140625 C30.7339844,55.4785156 35.50625,57.5863281 41.2136719,57.3785156 C45.9414062,57.2003906 54.0089844,54.2242187 62.5589844,48.9324219 L62.5589844,44.1304687 C54.4320312,49.5484375 47.1660156,53.31875 42.1042969,53.734375 Z M39.0910156,29.4203125 C39.0910156,29.4203125 38.8089844,35.5359375 33.9996094,39.06875 C34.0960937,36.7234375 36.45625,31.6988281 39.0910156,29.4203125 Z M28.5148437,63.9839844 C29.5167969,72.9421875 27.2679687,68.6449219 27.0304687,68.0511719 C26.065625,65.8246094 24.6628906,58.4992187 24.7,54.3949219 C26.7285943,57.2356135 28.0376549,60.5260928 28.5148437,63.9839844 L28.5148437,63.9839844 Z M29.5316406,42.3046875 C28.5371094,42.9949219 26.7261719,43.9894531 25.5535156,44.6796875 C25.1824219,44.9097656 24.6480469,45.3253906 24.4699219,44.3902344 C24.1878906,42.8316406 23.3492187,41.5253906 20.365625,42.5496094 C18.6047457,40.9415385 16.737636,39.4538017 14.7769531,38.0964844 C13.2035156,37.0054687 9.72265625,34.7492187 7.24375,33.0570312 C5.56684103,31.9945351 3.94665866,30.8450479 2.38984375,29.6132812 C0.066796875,27.609375 3.48085937,26.778125 4.93554687,26.3550781 C6.79101562,25.8058594 8.4609375,25.2789062 10.5984375,24.7742187 C15.0049297,23.8584382 19.4681914,23.2410203 23.9578125,22.9261719 C27.4089844,22.7332031 34.4003906,22.1320312 37.4285156,25.8949219 C32.6711619,30.061044 29.819152,35.9875422 29.5316406,42.3046875 L29.5316406,42.3046875 Z" id="Shape" fill="#FFFFFF"></path>
                </g>
            </g>
        </g>
    </g>
</svg>