<?xml version="1.0" encoding="UTF-8"?>
<svg id="Layer_1" data-name="Layer 1" xmlns="http://www.w3.org/2000/svg" viewBox="0 0 400 88">
  <defs>
    <style>
      .cls-1 {
        fill: #f09;
      }

      .cls-2 {
        fill: #b3ff00;
      }
    </style>
  </defs>
  <rect class="cls-1" x="0" width="400" height="88" rx="13" ry="13"/>
  <path class="cls-2" d="m59.63,60.33c-7.64,0-11.71-4.12-11.94-10.25h5.95c.27,3.2,2.33,5.12,5.99,5.12,2.74,0,5.03-1.14,5.03-3.93,0-3.25-3.16-4.3-6.08-5.17l-1.83-.55c-3.93-1.19-8.05-3.61-8.05-8.92,0-5.72,4.67-9.24,10.84-9.24,6.59,0,10.75,3.98,10.93,9.42h-5.95c-.27-2.52-1.88-4.3-4.94-4.3-2.84,0-4.8,1.51-4.8,3.84,0,2.75,2.79,3.66,5.49,4.48l1.6.5c3.02.92,8.87,3.07,8.87,9.74,0,6.27-5.21,9.24-11.12,9.24Zm13.08-29.78c0-2.01,1.69-3.57,3.61-3.57s3.52,1.56,3.52,3.57c0,1.88-1.6,3.52-3.52,3.52s-3.61-1.65-3.61-3.52Zm.69,6.45h5.86v22.87h-5.86v-22.87Zm9.06,0h5.35l.5,2.7h.37c1.24-1.69,3.16-3.16,6.27-3.16,3.61,0,5.22,1.97,5.99,3.61h.37c1.24-1.78,3.25-3.61,7.14-3.61,4.71,0,7.73,2.84,7.73,8.37v14.96h-5.86v-13.86c0-2.93-1.74-4.39-3.93-4.39-2.47,0-4.16,1.83-4.16,4.71v13.54h-5.86v-13.68c0-3.02-1.69-4.57-3.89-4.57s-4.16,1.51-4.16,4.67v13.59h-5.86v-22.87Zm60.21,11.48c0,7.46-4.76,11.85-10.75,11.85-3.11,0-5.4-1.24-6.63-2.61v11.3h-5.86v-32.02h4.76l.5,2.7h.41c1.1-1.46,3.25-3.16,6.82-3.16,6.13,0,10.75,4.67,10.75,11.94Zm-5.86,0c0-4.12-2.33-6.86-5.81-6.86s-5.72,2.74-5.72,6.86,2.24,6.77,5.72,6.77,5.81-2.74,5.81-6.77Zm8.24-21.09h5.86v32.48h-5.86V27.39Zm8.4,3.16c0-2.01,1.69-3.57,3.61-3.57s3.52,1.56,3.52,3.57c0,1.88-1.6,3.52-3.52,3.52s-3.61-1.65-3.61-3.52Zm.69,6.45h5.86v22.87h-5.86v-22.87Zm8.42-6.45c0-2.01,1.69-3.57,3.61-3.57s3.52,1.56,3.52,3.57c0,1.88-1.6,3.52-3.52,3.52s-3.61-1.65-3.61-3.52Zm.69,6.45h5.86v22.87h-5.86v-22.87Zm26.26-3.61v8.51h13.19v5.26h-13.19v12.72h-6.04V27.85h21.02v5.53h-14.98Zm16.7-2.84c0-2.01,1.69-3.57,3.61-3.57s3.52,1.56,3.52,3.57c0,1.88-1.6,3.52-3.52,3.52s-3.61-1.65-3.61-3.52Zm.69,6.45h5.86v22.87h-5.86v-22.87Zm9.06,0h5.35l.5,2.7h.37c1.37-1.78,3.29-3.16,6.72-3.16,5.44,0,8.92,3.48,8.92,9.47v13.86h-5.86v-12.67c0-3.75-2.15-5.58-4.9-5.58s-5.26,1.78-5.26,5.86v12.4h-5.86v-22.87Zm46.66,18.48v4.39h-2.47c-2.15,0-3.84-.64-4.62-2.74-1.56,1.97-3.93,3.2-7.55,3.2-4.67,0-8.1-2.2-8.1-6.72s3.34-6.54,7.55-6.95l7.14-.73v-.96c0-2.52-1.6-3.75-3.84-3.75-2.47,0-3.75,1.37-4.12,3.43h-5.86c.46-4.76,4.12-8.1,9.97-8.1,5.35,0,9.7,2.7,9.7,8.83v8.37c0,1.19.55,1.74,1.65,1.74h.55Zm-8.05-5.53l-5.12.55c-2.1.23-3.71,1.1-3.71,2.88s1.42,2.47,3.25,2.47c2.47,0,5.58-1.19,5.58-4.8v-1.1Zm9.69-12.95h5.35l.5,2.7h.37c1.37-1.78,3.29-3.16,6.72-3.16,5.44,0,8.92,3.48,8.92,9.47v13.86h-5.86v-12.67c0-3.75-2.15-5.58-4.9-5.58s-5.26,1.78-5.26,5.86v12.4h-5.86v-22.87Zm24.27,11.53c0-7.18,5.21-11.99,11.89-11.99,5.31,0,10.34,2.84,11.07,8.83h-5.86c-.5-2.1-2.47-3.75-5.22-3.75-3.48,0-6.04,2.84-6.04,6.91s2.38,6.72,6.13,6.72c2.65,0,4.44-1.19,5.17-3.29h5.9c-.78,5.12-5.12,8.37-11.07,8.37-7.14,0-11.99-4.89-11.99-11.8Zm24.58-17.98c0-2.01,1.69-3.57,3.61-3.57s3.52,1.56,3.52,3.57c0,1.88-1.6,3.52-3.52,3.52s-3.61-1.65-3.61-3.52Zm.69,6.45h5.86v22.87h-5.86v-22.87Zm30.98,18.48v4.39h-2.47c-2.15,0-3.84-.64-4.62-2.74-1.56,1.97-3.93,3.2-7.55,3.2-4.67,0-8.1-2.2-8.1-6.72s3.34-6.54,7.55-6.95l7.14-.73v-.96c0-2.52-1.6-3.75-3.84-3.75-2.47,0-3.75,1.37-4.12,3.43h-5.86c.46-4.76,4.12-8.1,9.97-8.1,5.35,0,9.7,2.7,9.7,8.83v8.37c0,1.19.55,1.74,1.65,1.74h.55Zm-8.05-5.53l-5.12.55c-2.1.23-3.71,1.1-3.71,2.88s1.42,2.47,3.25,2.47c2.47,0,5.58-1.19,5.58-4.8v-1.1Zm9.75-22.55h5.86v32.48h-5.86V27.39Z"/>
</svg>