<?xml version="1.0" encoding="utf-8"?>
<!-- Generator: Adobe Illustrator 25.0.0, SVG Export Plug-In . SVG Version: 6.00 Build 0)  -->
<svg version="1.1" id="Layer_1" xmlns="http://www.w3.org/2000/svg" xmlns:xlink="http://www.w3.org/1999/xlink" x="0px" y="0px"
	 viewBox="0 0 591.9 125.4" style="enable-background:new 0 0 591.9 125.4;" xml:space="preserve">
<style type="text/css">
	.st0{fill:#ED1C24;}
</style>
<g>
	<path class="st0" d="M145.3,46.9c-16,0-29,13-29,29s13,29,29,29s29-13,29-29S161.3,46.9,145.3,46.9z M145.3,88.7
		c-7,0-12.8-5.7-12.8-12.8c0-7,5.7-12.8,12.8-12.8c7,0,12.8,5.7,12.8,12.8C158.1,83,152.3,88.7,145.3,88.7z"/>
	<polygon class="st0" points="211.2,48.3 203.3,48.3 203.3,31.2 186,31.2 186,48.3 178,48.3 178,64 186,64 186,103.6 203.3,103.6 
		203.3,64 211.2,64 	"/>
	<rect x="219.2" y="48.3" class="st0" width="17.3" height="55.2"/>
	<path class="st0" d="M227.8,21.5c-5.3,0-9.7,4.3-9.7,9.7s4.3,9.7,9.7,9.7c5.3,0,9.7-4.3,9.7-9.7S233.2,21.5,227.8,21.5z"/>
	<path class="st0" d="M476.4,63.2c5.7,0,10.3,4.6,10.3,10.3v30h17.3V71.2c0-14.7-8.5-24.2-21.9-24.2c-5.5,0-11.3,2.4-16.1,10.1v-8.8
		h-17.3v55.2h17.3v-30C466.1,67.8,470.7,63.2,476.4,63.2z"/>
	<polygon class="st0" points="567.2,103.6 545.9,76 565.7,48.3 545.5,48.3 529.6,70.7 529.6,22.9 512.2,22.9 512.2,103.6 
		529.6,103.6 529.6,80.8 547,103.6 	"/>
	<path class="st0" d="M56.6,88.7c1.2-3,1.8-6.1,1.8-10.2c0-5.6-1.7-10.6-4.9-14c-3.7-4.1-10-7.4-18.8-10c-1.9-0.6-3.5-1.2-4.9-1.9
		c-1.5-0.8-2.7-1.7-3.7-2.7c-1.1-1.2-1.6-2.7-1.6-4.5c0-2.6,1.4-4.3,3.6-5.7c2.8-1.8,8.2-1.9,13.7,0.1c1.9,0.7,3.6,1.5,5.6,2.6
		l7.4-14.7C52,26.2,48.1,24,44.2,23c-4-1-7.7-1.5-11.8-1.5c-4.1,0-7.8,0.6-11,1.8c-2.9,1.1-5.9,3-8.4,5.5c-2.3,2.2-4.4,5.4-5.6,8.4
		c-1.2,3-1.9,6.5-1.9,10.2c0,3.9,1.9,10.3,6.5,14.6c5,4.7,10.8,6.4,13.1,7.3c2.3,0.9,4.8,1.6,6.5,2.3c1.7,0.7,3.6,1.6,4.7,2.4
		c1.2,0.9,2,1.7,2.5,2.8c0.5,1.1,0.7,2.1,0.5,3.5c-0.2,1.8-1,3.4-2.5,4.8s-4.2,2.2-8,2.2c-3.2,0-6.4-0.9-9.7-2.3
		c-2.8-1.3-4.8-2.4-7.9-4.2L2.8,96c6,5.4,15.8,8.9,24.6,8.9c4.5,0,9.1-0.7,13.1-2.1c3.7-1.3,7.4-3.3,9.9-5.5
		C53,95,55.4,91.7,56.6,88.7z"/>
	<g>
		<path class="st0" d="M579.4,84.2c-5.3,0-9.7,4.3-9.7,9.7c0,5.3,4.3,9.7,9.7,9.7c5.3,0,9.7-4.3,9.7-9.7
			C589.1,88.6,584.8,84.2,579.4,84.2z M579.4,101.6c-4.3,0-7.7-3.5-7.7-7.7c0-4.3,3.5-7.7,7.7-7.7c4.3,0,7.7,3.5,7.7,7.7
			C587.2,98.2,583.7,101.6,579.4,101.6z"/>
		<g>
			<path class="st0" d="M579.4,95.5h-1.5v3.7H576V88.6h4c1.9,0,3.5,1.6,3.5,3.5c0,1.3-0.8,2.5-2,3.1l2.2,4h-2.3L579.4,95.5z
				 M577.9,93.7h2.2c0.8,0,1.5-0.7,1.5-1.6c0-0.9-0.7-1.6-1.5-1.6h-2.2V93.7z"/>
		</g>
	</g>
	<path class="st0" d="M104.1,83.9c-2.3,2.9-5.9,4.8-10,4.8c-7,0-12.8-5.7-12.8-12.8c0-7,5.7-12.8,12.8-12.8c4,0,7.6,1.9,10,4.8
		l11.5-11.5c-5.3-5.8-13-9.5-21.4-9.5c-16,0-29.9,11.4-29.9,29s13.9,29,29.9,29c8.5,0,16.1-3.7,21.4-9.5L104.1,83.9z"/>
	<path class="st0" d="M304.3,103.6V48.3h-16.9v5.8l-1.6-1.4c-4.2-3.8-9-5.8-14.6-5.8c-14.9,0-27.5,13.3-27.5,29s12.6,29,27.5,29
		c5.6,0,10.3-2,14.6-5.8l1.6-1.4v5.8H304.3z M274,89c-7.2,0-13-5.9-13-13c0-7.2,5.9-13,13-13s13,5.9,13,13C287,83.1,281.2,89,274,89
		z"/>
	<path class="st0" d="M440.4,103.6V48.3h-16.9v5.8l-1.6-1.4c-4.2-3.8-9-5.8-14.6-5.8c-14.9,0-27.5,13.3-27.5,29s12.6,29,27.5,29
		c5.6,0,10.3-2,14.6-5.8l1.6-1.4v5.8H440.4z M410.1,89c-7.2,0-13-5.9-13-13c0-7.2,5.9-13,13-13s13,5.9,13,13
		C423.2,83.1,417.3,89,410.1,89z"/>
	<path class="st0" d="M330.2,103.6v-5.8l1.6,1.4c4.2,3.8,9,5.8,14.6,5.8c14.9,0,27.5-13.3,27.5-29s-12.6-29-27.5-29
		c-5.6,0-10.3,2-14.6,5.8l-1.6,1.4V22.9h-16.9v80.6H330.2z M330.5,75.9c0-7.2,5.9-13,13-13c7.2,0,13,5.9,13,13c0,7.2-5.9,13-13,13
		C336.4,89,330.5,83.1,330.5,75.9z"/>
</g>
</svg>
