<?xml version="1.0" encoding="utf-8"?>
<!-- Generator: Adobe Illustrator 26.0.1, SVG Export Plug-In . SVG Version: 6.00 Build 0)  -->
<svg version="1.1" id="Calque_1" xmlns="http://www.w3.org/2000/svg" xmlns:xlink="http://www.w3.org/1999/xlink" x="0px" y="0px"
	 viewBox="0 0 400 88" style="enable-background:new 0 0 400 88;" xml:space="preserve">
<style type="text/css">
	.st0{fill:#E41E24;}
	.st1{fill:none;}
	.st2{fill:#0C334C;}
</style>
<g>
	<g>
		<path class="st0" d="M108.9,21.4c-1.6,0.4-2.7,0.6-3.8,0.2c-0.9-0.3-1.6-1.3-2.2-2.2L92.4,5c-0.6-0.9-1.3-1.8-2.2-2.2
			c-1.1-0.4-2.3-0.2-3.8,0.2l-34,9.1v63.4l34.2-9.1c1.6-0.3,2.7-0.6,3.8-0.2c0.9,0.4,1.6,1.3,2.2,2.2L103,82.9
			c0.6,0.9,1.3,1.8,2.2,2.2c1.1,0.4,2.3,0.2,3.8-0.2l34.1-9.1V12.3L108.9,21.4z"/>
	</g>
	<path class="st1" d="M183.2-2.2c1.1-0.6,3.3-1.7,3.3-5.5c0-2.8-1.7-6.9-8.3-6.9h-7.4l-5.7,2.8v24.2h11.4c5.5,0,7-0.9,8.5-2.4
		c1.4-1.4,2.3-3.4,2.3-5.6C187.3,1.6,186.5-1,183.2-2.2z M170.5-10h6.5c2.6,0,4.1,0.7,4.1,2.9c0,2.1-1.8,3-4,3h-6.6V-10z M177.4,7.6
		h-6.9V0.4h7.2c2,0,4.1,0.9,4.1,3.3C181.7,6.4,180.1,7.6,177.4,7.6z"/>
	<path class="st1" d="M161.2,50c1.1-0.6,3.3-1.7,3.3-5.5c0-2.8-1.7-6.9-8.3-6.9h-7.4l-5.7,2.8v24.2h11.4c5.5,0,7-0.9,8.5-2.4
		c1.4-1.4,2.3-3.4,2.3-5.6C165.4,53.8,164.5,51.2,161.2,50z M148.5,42.2h6.5c2.6,0,4.1,0.7,4.1,2.9c0,2.1-1.8,3-4,3h-6.6V42.2z
		 M155.4,59.8h-6.9v-7.2h7.2c2,0,4.1,0.9,4.1,3.3C159.7,58.6,158.1,59.8,155.4,59.8z"/>
	<g>
		<path class="st1" d="M48.2,50c1.1-0.6,3.3-1.7,3.3-5.5c0-2.8-1.7-6.9-8.3-6.9h-7.4l-5.7,2.8v24.2h11.4c5.5,0,7-0.9,8.5-2.4
			c1.4-1.4,2.3-3.4,2.3-5.6C52.3,53.8,51.5,51.2,48.2,50z M35.5,42.2h6.5c2.6,0,4.1,0.7,4.1,2.9c0,2.1-1.8,3-4,3h-6.6V42.2z
			 M42.4,59.8h-6.9v-7.2h7.2c2,0,4.1,0.9,4.1,3.3C46.7,58.6,45.1,59.8,42.4,59.8z"/>
		<path class="st1" d="M26.2,50c1.1-0.6,3.3-1.7,3.3-5.5c0-2.8-1.7-6.9-8.3-6.9h-7.4l-5.7,2.8v24.2h11.4c5.5,0,7-0.9,8.5-2.4
			c1.4-1.4,2.3-3.4,2.3-5.6C30.4,53.8,29.5,51.2,26.2,50z M13.5,42.2h6.5c2.6,0,4.1,0.7,4.1,2.9c0,2.1-1.8,3-4,3h-6.6V42.2z
			 M20.4,59.8h-6.9v-7.2h7.2c2,0,4.1,0.9,4.1,3.3C24.7,58.6,23.1,59.8,20.4,59.8z"/>
	</g>
	<g>
		<path class="st1" d="M387.8,39.5c1.1-0.6,3.3-1.7,3.3-5.5c0-2.8-1.7-6.9-8.3-6.9h-7.4l-5.7,2.8V54h11.4c5.5,0,7-0.9,8.5-2.4
			c1.4-1.4,2.3-3.4,2.3-5.6C391.9,43.3,391.1,40.7,387.8,39.5z M375.1,31.7h6.5c2.6,0,4.1,0.7,4.1,2.9c0,2.1-1.8,3-4,3h-6.6V31.7z
			 M382,49.3h-6.9v-7.2h7.2c2,0,4.1,0.9,4.1,3.3C386.3,48.1,384.7,49.3,382,49.3z"/>
		<path class="st1" d="M365.8,39.5c1.1-0.6,3.3-1.7,3.3-5.5c0-2.8-1.7-6.9-8.3-6.9h-7.4l-5.7,2.8V54h11.4c5.5,0,7-0.9,8.5-2.4
			c1.4-1.4,2.3-3.4,2.3-5.6C369.9,43.3,369.1,40.7,365.8,39.5z M353.1,31.7h6.5c2.6,0,4.1,0.7,4.1,2.9c0,2.1-1.8,3-4,3h-6.6V31.7z
			 M360,49.3h-6.9v-7.2h7.2c2,0,4.1,0.9,4.1,3.3C364.3,48.1,362.7,49.3,360,49.3z"/>
	</g>
	<path class="st1" d="M183.2,88.1c1.1-0.6,3.3-1.7,3.3-5.5c0-2.8-1.7-6.9-8.3-6.9h-7.4l-5.7,2.8v24.2h11.4c5.5,0,7-0.9,8.5-2.4
		c1.4-1.4,2.3-3.4,2.3-5.6C187.3,92,186.5,89.4,183.2,88.1z M170.5,80.4h6.5c2.6,0,4.1,0.7,4.1,2.9c0,2.1-1.8,3-4,3h-6.6V80.4z
		 M177.4,98h-6.9v-7.2h7.2c2,0,4.1,0.9,4.1,3.3C181.7,96.8,180.1,98,177.4,98z"/>
	<g>
		<polygon class="st2" points="182.1,14.6 182.1,30.8 182,30.8 171.3,12 165.3,14.9 165.3,39 170.6,39 170.6,19.8 170.7,19.8 
			181.7,39 187.3,39 187.3,12 		"/>
		<path class="st2" d="M206.1,12L206.1,12l-7.9,3.8L190,39h5.9l1.9-5.6h10l1.7,5.6h6.1L206.1,12z M199.3,28.8l3.5-10.7h0.1l3.3,10.7
			H199.3z"/>
		<path class="st2" d="M316.4,12L316.4,12l-7.9,3.8L300.3,39h5.9l1.9-5.6h10l1.7,5.6h6.1L316.4,12z M309.6,28.8l3.5-10.7h0.1
			l3.3,10.7H309.6z"/>
		<polygon class="st2" points="234.3,12 215.1,12 212.3,16.8 212.3,16.8 220.5,16.8 220.5,39 226.1,39 226.1,16.8 231.5,16.8 		"/>
		<polygon class="st2" points="236.5,14.8 236.5,39 242.1,39 242.1,12 242.1,12 		"/>
		<path class="st2" d="M258.8,11.3c-0.2,0-0.5,0-0.8,0l-9.3,4.6c-1.7,2.1-2.8,5.2-2.8,9.6c0,12.7,9.4,14.2,13,14.2
			c3.6,0,13-1.5,13-14.2C271.8,12.9,262.4,11.3,258.8,11.3z M258.8,35c-3,0-7.3-1.9-7.3-9.4s4.3-9.4,7.3-9.4c3,0,7.3,1.9,7.3,9.4
			S261.9,35,258.8,35z"/>
		<polygon class="st2" points="292.2,14.6 292.2,30.8 292.2,30.8 281.4,12 275.5,14.9 275.5,39 280.8,39 280.8,19.8 280.8,19.8 
			291.8,39 297.5,39 297.5,12 		"/>
		<polygon class="st2" points="347.7,34.1 334.3,34.1 334.3,12 328.7,14.8 328.7,39 344.9,39 		"/>
		<path class="st2" d="M183.5,60.9c1.1-0.6,3.3-1.7,3.3-5.5c0-2.8-1.7-6.9-8.3-6.9H171l-5.7,2.8v24.2h11.4c5.5,0,7-0.9,8.5-2.4
			c1.4-1.4,2.3-3.4,2.3-5.6C187.6,64.8,186.8,62.2,183.5,60.9z M170.7,53.1h6.5c2.6,0,4.1,0.7,4.1,2.9c0,2.1-1.8,3-4,3h-6.6V53.1z
			 M177.7,70.8h-6.9v-7.2h7.2c2,0,4.1,0.9,4.1,3.3C182,69.6,180.4,70.8,177.7,70.8z"/>
		<polygon class="st2" points="233,51 233,67.3 233,67.3 222.2,48.5 216.3,51.4 216.3,75.5 221.6,75.5 221.6,56.2 221.6,56.2 
			232.7,75.5 238.3,75.5 238.3,48.5 		"/>
		<path class="st2" d="M204.4,48.5L204.4,48.5l-7.9,3.8l-8.3,23.2h5.9l1.9-5.6h10l1.7,5.6h6.1L204.4,48.5z M197.6,65.2l3.5-10.7h0.1
			l3.3,10.7H197.6z"/>
		<polygon class="st2" points="266.2,48.5 257.5,50 248.6,59.4 248.6,48.5 243,51.2 243,75.5 248.6,75.5 248.6,66.3 251.3,63.6 
			259.6,75.5 266.9,75.5 255.2,59.5 		"/>
	</g>
</g>
</svg>
