<?xml version="1.0" encoding="UTF-8"?>
<svg width="167px" height="36px" viewBox="0 0 167 36" version="1.1" xmlns="http://www.w3.org/2000/svg" xmlns:xlink="http://www.w3.org/1999/xlink">
    <!-- Generator: Sketch 44.1 (41455) - http://www.bohemiancoding.com/sketch -->
    <title>TangerineLogo Copy</title>
    <desc>Created with Sketch.</desc>
    <defs></defs>
    <g id="Page-1" stroke="none" stroke-width="1" fill="none" fill-rule="evenodd">
        <g id="Print_Transactions_AccountTime" transform="translate(-40.000000, -40.000000)" fill="#F58426">
            <g id="TangerineLogo-Copy" transform="translate(40.000000, 40.000000)">
                <polygon id="Fill-1" points="0 0.58793612 0 5.6699044 8.31067122 5.6699044 8.31067122 28.1096441 13.4675363 28.1096441 13.4675363 5.6699044 21.776943 5.6699044 21.776943 0.58793612"></polygon>
                <path d="M24.4675417,24.0382509 C21.9207231,24.0382509 20.0276807,22.0573016 20.0276807,18.710317 C20.0276807,15.3593652 21.9915383,13.459082 24.4675417,13.459082 C26.9422806,13.459082 28.8719951,15.3223381 28.8719951,18.6732899 C28.8719951,22.0573016 26.9422806,24.0382509 24.4675417,24.0382509 L24.4675417,24.0382509 Z M28.7986508,11.2493581 C28.2902987,10.2602058 26.8322641,8.9311977 23.7391567,8.9311977 C18.6796625,8.9311977 15.1490183,13.2303075 15.1490183,18.710317 C15.1490183,24.3833963 18.789679,28.5674576 23.8845808,28.5674576 C26.2872398,28.5674576 28.1056734,27.4262298 28.9074028,25.941179 L28.9074028,28.1099086 L33.5660322,28.1099086 L33.5660322,9.38610197 L28.7986508,9.38610197 L28.7986508,11.2493581 Z" id="Fill-2"></path>
                <path d="M45.520652,8.8904679 C43.5934666,8.8904679 41.443719,9.76853892 40.3536705,11.708494 L40.3536705,9.38504405 L35.6571043,9.38504405 L35.6571043,28.1101731 L40.4990946,28.1101731 L40.4990946,17.3419015 C40.4990946,15.1731719 41.7358317,13.4593465 43.846378,13.4593465 C46.1756928,13.4593465 47.1595184,15.0938281 47.1595184,17.1871811 L47.1595184,28.1101731 L51.997715,28.1101731 L51.997715,16.3117549 C51.997715,12.2030702 49.9617776,8.8904679 45.520652,8.8904679" id="Fill-4"></path>
                <path d="M62.8399037,22.9357693 C60.3297573,22.9357693 58.5454668,21.1095403 58.5454668,18.1777881 C58.5454668,15.2857078 60.4397738,13.4581563 62.8399037,13.4581563 C65.170483,13.4581563 67.0635254,15.2857078 67.0635254,18.1777881 C67.0635254,21.0725132 65.3159071,22.9357693 62.8399037,22.9357693 L62.8399037,22.9357693 Z M67.1001976,11.5922554 C66.4805645,10.3373015 64.8416981,9.04532049 62.0040313,9.04532049 C57.0912258,9.04532049 53.670598,13.2307042 53.670598,18.1777881 C53.670598,23.4316678 57.2353853,27.2732286 62.0040313,27.2732286 C64.587522,27.2732286 66.2630606,26.0936512 66.9914456,24.874402 L66.9914456,26.2483716 C66.9914456,29.8624802 65.2804995,31.4586123 62.2215351,31.4586123 C59.9288926,31.4586123 58.3633705,29.9735614 58.0371147,27.9212027 L53.670598,29.1364847 C54.1789501,32.716211 57.4566829,35.9124424 62.3694883,35.9124424 C69.1007274,35.9124424 71.758827,31.2298378 71.758827,26.0936512 L71.758827,9.38517629 L67.1001976,9.38517629 L67.1001976,11.5922554 Z" id="Fill-6"></path>
                <path d="M78.3099931,16.6168317 C78.418745,14.9069735 79.8021708,12.9260241 82.3135818,12.9260241 C85.0779043,12.9260241 86.2438262,14.7535756 86.3171705,16.6168317 L78.3099931,16.6168317 Z M82.2389729,8.8173394 C77.6549524,8.8173394 73.4325952,12.6972496 73.4325952,18.6744801 C73.4325952,24.9915663 77.7637043,28.6836963 82.6765098,28.6836963 C87.0796986,28.6836963 89.91863,25.9793962 90.8278468,22.7434929 L86.7888504,21.4872166 C86.2084186,23.1640149 84.9678878,24.3409474 82.7144465,24.3409474 C80.3117875,24.3409474 78.3099931,22.5543903 78.1999766,20.0815095 L91.0124722,20.0815095 C91.0124722,20.0021658 91.0845519,19.241788 91.0845519,18.5210821 C91.0845519,12.5068246 87.7714115,8.8173394 82.2389729,8.8173394 L82.2389729,8.8173394 Z" id="Fill-8"></path>
                <polygon id="Fill-10" points="105.346483 28.1095119 110.185944 28.1095119 110.185944 9.38570525 105.346483 9.38570525"></polygon>
                <path d="M116.97333,11.708494 L116.97333,9.38504405 L112.276764,9.38504405 L112.276764,28.1101731 L117.117489,28.1101731 L117.117489,17.3419015 C117.117489,15.1731719 118.355491,13.4593465 120.466037,13.4593465 C122.796617,13.4593465 123.780442,15.0938281 123.780442,17.1871811 L123.780442,28.1101731 L128.619903,28.1101731 L128.619903,16.3117549 C128.619903,12.2030702 126.580172,8.8904679 122.140311,8.8904679 C120.210597,8.8904679 118.064643,9.76853892 116.97333,11.708494 Z" id="Fill-12"></path>
                <path d="M135.168034,16.6168317 C135.279316,14.9069735 136.661477,12.9260241 139.171623,12.9260241 C141.939739,12.9260241 143.100603,14.7535756 143.176476,16.6168317 L135.168034,16.6168317 Z M139.099543,8.8173394 C134.514258,8.8173394 130.291901,12.6972496 130.291901,18.6744801 C130.291901,24.9915663 134.621746,28.6836963 139.534551,28.6836963 C143.940269,28.6836963 146.779201,25.9793962 147.687153,22.7434929 L143.646892,21.4872166 C143.067725,23.1640149 141.825929,24.3409474 139.571223,24.3409474 C137.168564,24.3409474 135.168034,22.5543903 135.058018,20.0815095 L147.869249,20.0815095 C147.869249,20.0021658 147.941329,19.241788 147.941329,18.5210821 C147.941329,12.5068246 144.630717,8.8173394 139.099543,8.8173394 L139.099543,8.8173394 Z" id="Fill-13"></path>
                <path d="M107.766972,0.0474728268 C106.138223,0.0474728268 104.820554,1.42805437 104.820554,3.12997818 C104.820554,4.83057958 106.138223,6.21116113 107.766972,6.21116113 C109.393193,6.21116113 110.712127,4.83057958 110.712127,3.12997818 C110.712127,1.42805437 109.393193,0.0474728268 107.766972,0.0474728268" id="Fill-14"></path>
                <path d="M102.54473,9.10429935 C101.01588,9.10429935 98.5424056,9.82368284 97.449828,12.2965636 L97.449828,9.38596973 L92.755791,9.38596973 L92.755791,28.108454 L97.5965167,28.108454 L97.5965167,19.4163443 C97.5965167,15.3817137 99.7424706,14.1267598 102.217209,14.1267598 C102.653482,14.1267598 103.126426,14.1651093 103.67145,14.2788354 L103.67145,9.17967593 C103.308522,9.14132645 102.94433,9.10429935 102.54473,9.10429935" id="Fill-16"></path>
                <path d="M166.145897,1.30652617 C165.920806,0.878069828 165.461772,0.588465078 164.963536,0.588465078 L148.099398,0.588465078 C147.665655,0.588465078 147.29514,0.909807335 147.215473,1.35413243 C147.135806,1.79845753 147.363426,2.25997377 147.773143,2.40411495 C149.807815,3.12217604 153.148776,4.6349972 154.79523,7.79287913 C156.445477,10.9454715 155.858723,14.7023988 155.337725,16.8817076 C155.232767,17.3207432 155.48062,17.7690354 155.881485,17.9409469 C156.281085,18.1102136 156.741384,17.9568157 156.975327,17.5759656 L166.085198,2.73471398 C166.354549,2.29567847 166.369724,1.73498251 166.145897,1.30652617" id="Fill-17"></path>
            </g>
        </g>
    </g>
</svg>